<?xml version="1.0" encoding="UTF-8"?>
<svg width="39px" height="35px" viewBox="0 0 39 35" version="1.1" xmlns="http://www.w3.org/2000/svg" xmlns:xlink="http://www.w3.org/1999/xlink">
    <!-- Generator: Sketch 52.5 (67469) - http://www.bohemiancoding.com/sketch -->
    <title>Group 12</title>
    <desc>Created with Sketch.</desc>
    <g id="Symbols" stroke="none" stroke-width="1" fill="none" fill-rule="evenodd">
        <g id="Health-Tips/Active" transform="translate(-308.000000, -3.000000)">
            <g id="Health-Tips" transform="translate(0.000000, -1.000000)">
                <g id="Tab-Bar">
                    <g id="Group-12" transform="translate(308.000000, 5.000000)">
                        <path d="M7.68343944,21.0375274 C4.11191831,21.0375274 1.20641831,23.6862371 1.20641831,26.9417371 C1.20641831,30.1972371 4.11191831,32.8459468 7.68343944,32.8459468 C11.2549606,32.8459468 14.1607352,30.1972371 14.1607352,26.9417371 C14.1607352,23.6862371 11.2549606,21.0375274 7.68343944,21.0375274 M7.68343944,33.9013177 C3.47363662,33.9013177 0.0485028169,30.7790758 0.0485028169,26.9417371 C0.0485028169,23.1043984 3.47363662,19.9824306 7.68343944,19.9824306 C11.8932423,19.9824306 15.3183761,23.1043984 15.3183761,26.9417371 C15.3183761,30.7790758 11.8932423,33.9013177 7.68343944,33.9013177" id="Fill-1" fill="#4169E1"></path>
                        <path d="M31.3165606,21.0588048 C27.7450394,21.0588048 24.8392648,23.7075145 24.8392648,26.9630145 C24.8392648,30.2185145 27.7450394,32.8672242 31.3165606,32.8672242 C34.8880817,32.8672242 37.7935817,30.2185145 37.7935817,26.9630145 C37.7935817,23.7075145 34.8880817,21.0588048 31.3165606,21.0588048 M31.3165606,33.9225952 C27.1067577,33.9225952 23.6816239,30.8003532 23.6816239,26.9630145 C23.6816239,23.1256758 27.1067577,20.0034339 31.3165606,20.0034339 C35.5263634,20.0034339 38.9514972,23.1256758 38.9514972,26.9630145 C38.9514972,30.8003532 35.5263634,33.9225952 31.3165606,33.9225952" id="Fill-3" fill="#4169E1"></path>
                        <path d="M23.8589641,19.0643484 C23.8117246,19.0643484 23.7639359,19.0577677 23.7166965,19.0437839 C23.4758303,18.9722194 23.3445486,18.7364129 23.4228232,18.5167839 L24.1923866,16.3624452 C24.2709359,16.1430903 24.5296542,16.0232677 24.7702458,16.0945581 C25.0108373,16.1661226 25.1426683,16.401929 25.0643937,16.6212839 L24.2948303,18.7756226 C24.2316613,18.9522032 24.0520415,19.0643484 23.8589641,19.0643484" id="Fill-4" fill="#4169E1"></path>
                        <path d="M27.6168613,14.8822387 C27.6168613,14.8822387 21.0964458,14.6966097 21.1642838,15.1608194 C21.2321218,15.625029 23.6888472,16.5539968 24.2436359,16.6776581 C24.79815,16.8015935 26.5641359,16.4300613 26.7338683,16.2444323 C26.9036007,16.058529 27.82065,15.5013677 27.6168613,14.8822387" id="Fill-5" fill="#4169E1"></path>
                        <path d="M21.8286021,27.9739113 C21.7275317,27.8598468 21.6006444,27.7630565 21.4553556,27.68875 L24.164757,19.1849113 L24.3155387,18.7111048 L30.5212077,26.4740726 L21.8286021,27.9739113 Z M20.5465458,27.6059435 C20.4839261,27.6147177 20.4229542,27.5963468 20.3636303,27.6125242 L12.6144401,19.1138952 C12.7152359,18.8298306 12.8152077,18.838879 12.9129824,18.3184597 L23.5253768,18.3184597 L20.5465458,27.6059435 Z M31.3487218,26.0899274 L24.506419,17.5307016 C24.5058697,17.529879 24.5050458,17.5293306 24.5044965,17.5287823 C24.5039472,17.5276855 24.5031232,17.5265887 24.5022993,17.5257661 C24.4910387,17.5120565 24.4786796,17.4988952 24.4660458,17.4865565 C24.4630246,17.4840887 24.4597289,17.481621 24.4567077,17.4791532 C24.4454472,17.4690081 24.433912,17.4594113 24.4218275,17.4506371 C24.4166092,17.4465242 24.4108415,17.4432339 24.4056232,17.4396694 C24.3951866,17.4325403 24.3842007,17.4259597 24.3732148,17.4196532 C24.3668979,17.4163629 24.3608556,17.4130726 24.3545387,17.4100565 C24.3430035,17.4042984 24.3314683,17.3993629 24.3193838,17.3947016 C24.3133415,17.3919597 24.3070246,17.3894919 24.3009824,17.3872984 C24.28725,17.3823629 24.273243,17.37825 24.2592359,17.3746855 C24.2542923,17.3735887 24.2496232,17.3719435 24.2449542,17.3708468 C24.2260035,17.3667339 24.2067782,17.3634435 24.1872782,17.3615242 C24.1823345,17.3609758 24.1776655,17.3576855 24.1727218,17.3574113 C24.1603627,17.3563145 24.1482782,17.3519274 24.1356444,17.3519274 L13.2079542,17.3519274 C13.625419,16.4597016 13.9706514,15.1487823 14.1299472,14.69225 C14.1450528,14.648379 14.151919,14.5269113 14.1508204,14.5269113 L13.1840599,14.5269113 L13.2021866,14.5968306 C12.8904613,15.4901532 12.5309472,16.5309919 12.1640176,17.5693629 C12.152757,17.589379 12.1428697,17.6189919 12.1354542,17.6409274 L11.6647077,18.9896855 C10.7418908,21.5827339 9.88416549,23.941621 9.73008803,24.2138952 C9.5642007,24.4645081 8.55075,25.3685242 7.69384859,26.0962339 C7.65649648,26.0910242 7.61886972,26.0880081 7.57986972,26.0880081 C7.17201761,26.0880081 6.84134155,26.389621 6.84134155,26.7617016 C6.84134155,27.1335081 7.17201761,27.435121 7.57986972,27.435121 C7.98772183,27.435121 8.31867254,27.1337823 8.31867254,26.7617016 C8.31867254,26.7449758 8.3172993,26.7285242 8.31592606,26.7117984 C9.02259507,26.1124113 10.2670246,25.0312661 10.5218979,24.63725 C10.6825669,24.3891048 11.4708063,22.2386048 12.2788204,19.9781532 L19.62675,28.0808468 C19.5141444,28.2437177 19.4493275,28.4326371 19.4493275,28.6347177 C19.4493275,29.2458952 20.0403697,29.7413629 20.7695599,29.7413629 C21.4391514,29.7413629 21.9920176,29.3232177 22.0777077,28.7816855 L30.8356796,27.2706048 C30.9653134,27.372879 31.1336725,27.435121 31.3187852,27.435121 C31.7266373,27.435121 32.0573134,27.1337823 32.0573134,26.7619758 C32.0573134,26.3992177 31.7425669,26.1044597 31.3487218,26.0899274 Z" id="Fill-6" fill="#4169E1"></path>
                        <path d="M14.1092387,14.3939548 L13.6233866,13.391229 L14.3575204,12.5938742 L16.4948303,12.5938742 C16.747781,12.5938742 16.952943,12.3413419 16.952943,12.110471 C16.952943,11.8798742 16.747781,11.6273419 16.4948303,11.6273419 L14.1512599,11.6273419 C14.0202528,11.6273419 13.8955627,11.804471 13.8084993,11.8938581 L12.7387458,13.0558903 C12.6176261,13.1801 12.5890627,13.3544871 12.6654148,13.5052935 L13.1842246,14.5266645 L14.1507106,14.5266645 C14.149612,14.5266645 14.1361542,14.4468742 14.1092387,14.3939548" id="Fill-7" fill="#4169E1"></path>
                        <path d="M21.2111937,2.98347258 C21.2111937,1.44168226 19.9884613,0.184779032 18.4880599,0.184779032 C16.9873838,0.184779032 15.7676725,1.44168226 15.7676725,2.98347258 C15.7676725,4.5252629 16.9879331,5.77147258 18.4880599,5.77147258 C19.9881866,5.77147258 21.2111937,4.5252629 21.2111937,2.98347258" id="Fill-8" fill="#EEEEEE"></path>
                        <path d="M21.2111937,2.98347258 C21.2111937,1.44168226 19.9884613,0.184779032 18.4880599,0.184779032 C16.9873838,0.184779032 15.7676725,1.44168226 15.7676725,2.98347258 C15.7676725,4.5252629 16.9879331,5.77147258 18.4880599,5.77147258 C19.9881866,5.77147258 21.2111937,4.5252629 21.2111937,2.98347258 Z" id="Stroke-9" stroke="#4169E1" stroke-width="0.99916129"></path>
                        <path d="M13.1184465,12.5543903 C11.487038,12.5543903 11.487038,10.3682452 13.1184465,10.3682452 L17.6528831,10.3759226 L20.6407775,5.56574516 C20.6407775,5.56574516 21.2724676,4.48597097 22.4773479,4.48597097 C22.4773479,4.48597097 23.4743197,4.35380968 24.1886789,5.18269677 L29.9354113,11.1022613 C30.3056366,11.5141 30.5212352,12.0660516 30.5212352,12.6706484 C30.5212352,13.5445032 30.0488408,14.3100516 29.3501366,14.711471 L23.4899746,18.0563581 L23.4899746,24.3534871 C23.4899746,25.2432452 22.7912704,25.9690355 21.9253056,25.9690355 C21.056869,25.9690355 20.3578901,25.2432452 20.3578901,24.3534871 L20.3578901,16.4907129 C20.3578901,16.4907129 20.1499817,15.2338097 21.5399746,14.5502452 L24.9181437,12.7232935 L21.2724676,9.01400323 L19.5078549,11.8521806 C19.194207,12.3591645 18.7704254,12.5620677 18.3749324,12.5543903 L13.1184465,12.5543903 Z" id="Fill-10" fill="#EEEEEE"></path>
                        <path d="M13.1184465,12.5543903 C11.487038,12.5543903 11.487038,10.3682452 13.1184465,10.3682452 L17.6528831,10.3759226 L20.6407775,5.56574516 C20.6407775,5.56574516 21.2724676,4.48597097 22.4773479,4.48597097 C22.4773479,4.48597097 23.4743197,4.35380968 24.1886789,5.18269677 L29.9354113,11.1022613 C30.3056366,11.5141 30.5212352,12.0660516 30.5212352,12.6706484 C30.5212352,13.5445032 30.0488408,14.3100516 29.3501366,14.711471 L23.4899746,18.0563581 L23.4899746,24.3534871 C23.4899746,25.2432452 22.7912704,25.9690355 21.9253056,25.9690355 C21.056869,25.9690355 20.3578901,25.2432452 20.3578901,24.3534871 L20.3578901,16.4907129 C20.3578901,16.4907129 20.1499817,15.2338097 21.5399746,14.5502452 L24.9181437,12.7232935 L21.2724676,9.01400323 L19.5078549,11.8521806 C19.194207,12.3591645 18.7704254,12.5620677 18.3749324,12.5543903 L13.1184465,12.5543903 Z" id="Stroke-11" stroke="#4169E1" stroke-width="0.99916129"></path>
                    </g>
                </g>
            </g>
        </g>
    </g>
</svg>