<?xml version="1.0" encoding="UTF-8"?>
<svg width="35px" height="36px" viewBox="0 0 35 36" version="1.1" xmlns="http://www.w3.org/2000/svg" xmlns:xlink="http://www.w3.org/1999/xlink">
    <!-- Generator: Sketch 52.5 (67469) - http://www.bohemiancoding.com/sketch -->
    <title>Group 5</title>
    <desc>Created with Sketch.</desc>
    <g id="Symbols" stroke="none" stroke-width="1" fill="none" fill-rule="evenodd">
        <g id="Health-Tips/GenPop" transform="translate(-29.000000, -4.000000)" stroke="#4169E1" stroke-width="0.804301">
            <g id="Health-Tips">
                <g id="Tab-Bar">
                    <g id="Group-5" transform="translate(30.000000, 5.000000)">
                        <path d="M23.1655742,5.72489841 C24.6572274,5.72489841 25.8683806,4.49846984 25.8683806,2.98358095 C25.8683806,1.47031111 24.6572274,0.240914286 23.1655742,0.240914286 C21.6707274,0.240914286 20.4606387,1.47031111 20.4606387,2.98358095 C20.4606387,4.49846984 21.6707274,5.72489841 23.1655742,5.72489841" id="Stroke-2"></path>
                        <path d="M8.48948952,5.74230317 C10.004296,5.74230317 11.2362073,4.50616032 11.2362073,2.98155714 C11.2362073,1.45749365 10.004296,0.221350794 8.48948952,0.221350794 C6.97548145,0.221350794 5.74649758,1.45749365 5.74649758,2.98155714 C5.74649758,4.50616032 6.97548145,5.74230317 8.48948952,5.74230317" id="Stroke-3"></path>
                        <path d="M32.6282177,17.0569095 L30.502379,9.54479841 C29.6387903,6.49343333 27.1204113,6.59003651 27.1204113,6.59003651 L20.1792339,6.59003651 C20.1792339,6.59003651 17.6608548,6.49343333 16.797,9.54479841 L15.6755323,13.5071476 L14.5540645,9.54479841 C13.6910081,6.49343333 11.1720968,6.59003651 11.1720968,6.59003651 L5.80400806,6.59003651 C5.80400806,6.59003651 3.28403226,6.49343333 2.42044355,9.54479841 L0.260274194,17.1794175 C0.0521612903,17.8901794 0.397064516,18.5564175 1.01155645,18.7366714 C1.62604839,18.9128778 2.30095161,18.4805921 2.46142742,17.9098778 L4.56091935,10.4690048 L5.58737903,10.4690048 L2.51678226,23.351227 L5.23209677,23.351227 L5.23209677,32.5020841 C5.23209677,33.2571 5.83008871,33.8685603 6.57285484,33.8685603 C7.3196129,33.8685603 7.92745161,33.2571 7.92745161,32.5020841 L7.92745161,23.351227 L9.06382258,23.351227 L9.06382258,32.5020841 C9.06382258,33.2571 9.66394355,33.8685603 10.4099032,33.8685603 C11.1555968,33.8685603 11.7589113,33.2571 11.7589113,32.5020841 L11.7589113,23.351227 L14.4279194,23.351227 L11.3847339,10.4690048 L12.4098629,10.4690048 L14.5093548,17.9098778 C14.6527984,18.4050365 15.0998952,18.805481 15.6286935,18.7593381 C16.1572258,18.8060206 16.6969355,18.4050365 16.8342581,17.9098778 L18.9361452,10.4690048 L19.8819677,10.4690048 L19.8819677,32.2379095 C19.8819677,33.1251476 20.5970565,33.8442746 21.4760806,33.8442746 C22.3495161,33.8442746 23.0624758,33.1251476 23.0624758,32.2379095 L23.0624758,19.8516556 L24.2345081,19.8516556 L24.2345081,32.2379095 C24.2345081,33.1251476 24.9445403,33.8442746 25.8211694,33.8442746 C26.6977984,33.8442746 27.4128871,33.1251476 27.4128871,32.2379095 L27.4128871,10.4690048 L28.4396129,10.4690048 C28.4396129,10.4690048 30.2737742,18.2096714 30.5787581,18.6416873 C30.8310484,18.9989571 31.1959113,19.0928619 31.2882581,19.1139095 C31.3787419,19.1252429 31.9631613,19.1902746 32.3972177,18.7766079 C32.824621,18.3691476 32.9297419,17.6656714 32.6282177,17.0569095 Z" id="Stroke-4"></path>
                    </g>
                </g>
            </g>
        </g>
    </g>
</svg>