<?xml version="1.0" encoding="UTF-8"?>
<svg width="30px" height="36px" viewBox="0 0 30 36" version="1.1" xmlns="http://www.w3.org/2000/svg" xmlns:xlink="http://www.w3.org/1999/xlink">
    <!-- Generator: Sketch 52.5 (67469) - http://www.bohemiancoding.com/sketch -->
    <title>Group 6</title>
    <desc>Created with Sketch.</desc>
    <g id="Symbols" stroke="none" stroke-width="1" fill="none" fill-rule="evenodd">
        <g id="Health-Tips/GenPop" transform="translate(-219.000000, -4.000000)" stroke="#FFFFFF" stroke-width="0.816">
            <g id="Health-Tips">
                <g id="Tab-Bar">
                    <g id="Group-6" transform="translate(219.000000, 5.000000)">
                        <path d="M23.6546161,16.280424 C24.7056875,16.280424 25.5625625,15.411384 25.5625625,14.34052 C25.5625625,13.2702 24.7059554,12.401432 23.6546161,12.401432 C22.5979196,12.401432 21.7442589,13.269384 21.7442589,14.34052 C21.7442589,15.411384 22.5979196,16.280424 23.6546161,16.280424" id="Stroke-2"></path>
                        <path d="M10.004375,5.5911504 C11.5057143,5.5911504 12.7247321,4.3549104 12.7247321,2.8281744 C12.7247321,1.3025264 11.5057143,0.0635664 10.004375,0.0635664 C8.50008929,0.0635664 7.281875,1.3025264 7.281875,2.8281744 C7.281875,4.3549104 8.50008929,5.5911504 10.004375,5.5911504" id="Stroke-3"></path>
                        <path d="M28.9586696,19.30112 L28.9586696,24.19984 C28.9586696,24.6704 28.5943839,25.0512 28.1336696,25.0512 C27.6729554,25.0512 27.3006339,24.6704 27.3006339,24.19984 L27.3006339,19.89136 L26.4354554,19.89136 L26.4354554,32.60464 C26.4354554,33.23024 25.9265268,33.7416 25.3077768,33.7416 C24.6890268,33.7416 24.1854554,33.23024 24.1854554,32.60464 L24.1854554,25.80192 L23.3095625,25.80192 L23.3095625,32.60464 C23.3095625,33.23024 22.8086696,33.7416 22.1925982,33.7416 C21.8818839,33.7416 21.6006339,33.61376 21.3943839,33.40704 C21.1881339,33.20032 21.0622411,32.91744 21.0622411,32.60464 L21.0622411,18.99648 L18.3220625,18.21584 C17.8452768,18.07168 17.4006339,17.64736 17.2774196,17.21216 L15.3113482,9.96336 L14.2800982,9.96336 L14.2800982,31.9056 C14.2800982,32.80048 13.5595625,33.524 12.6783125,33.524 C11.7943839,33.524 11.0792054,32.80048 11.0792054,31.9056 L11.0792054,19.4208 L9.90063393,19.4208 L9.90063393,31.9056 C9.90063393,32.80048 9.18277679,33.524 8.30420536,33.524 C7.42027679,33.524 6.69974107,32.80048 6.69974107,31.9056 L6.69974107,10.132 C6.63733036,10.092832 6.53688393,10.042784 6.40616964,10.024832 C6.1326875,9.986752 5.92322321,10.11704 5.86134821,10.1592 L3.2283125,18.01728 C3.03009821,18.61296 2.3845625,18.93392 1.79795536,18.73264 L1.39884821,18.59392 C0.812241071,18.38992 0.496169643,17.73712 0.694383929,17.14144 L3.7720625,7.95328 C3.91724107,7.672848 4.31125893,7.003184 5.12072321,6.528 C5.92483036,6.05608 6.6876875,6.040848 6.99974107,6.052 L13.9854554,6.052 C13.9854554,6.052 16.5193839,5.95408 17.3899196,9.0304 L19.5434911,16.654832 L21.2202768,16.82048 C21.2390268,16.81776 26.4193839,16.81504 26.4193839,16.81504 C27.7667054,16.81504 28.9586696,17.92752 28.9586696,19.30112 Z" id="Stroke-4"></path>
                    </g>
                </g>
            </g>
        </g>
    </g>
</svg>