<?xml version="1.0" encoding="UTF-8"?>
<svg width="36px" height="36px" viewBox="0 0 36 36" version="1.1" xmlns="http://www.w3.org/2000/svg" xmlns:xlink="http://www.w3.org/1999/xlink">
    <!-- Generator: Sketch 52.5 (67469) - http://www.bohemiancoding.com/sketch -->
    <title>Group 4</title>
    <desc>Created with Sketch.</desc>
    <g id="Symbols" stroke="none" stroke-width="1" fill="none" fill-rule="evenodd" stroke-linecap="round" stroke-linejoin="round">
        <g id="Health-Tips/GenPop" transform="translate(-121.000000, -4.000000)" stroke="#FFFFFF" stroke-width="1.21732143">
            <g id="Health-Tips">
                <g id="Tab-Bar">
                    <g id="Group-4" transform="translate(122.000000, 5.000000)">
                        <path d="M33.7975179,13.1199929 L33.7975179,20.7787964 C33.7975179,22.3852964 32.4830536,23.7003679 30.87625,23.7003679 L23.7505179,23.7003679 L23.7505179,30.8257964 C23.7505179,32.4322964 22.4360536,33.7470643 20.82925,33.7470643 L13.17075,33.7470643 C11.5639464,33.7470643 10.2494821,32.4322964 10.2494821,30.8257964 L10.2494821,23.7003679 L3.12375,23.7003679 C1.51694643,23.7003679 0.202482143,22.3852964 0.202482143,20.7787964 L0.202482143,13.1199929 C0.202482143,11.5131893 1.51694643,10.198725 3.12375,10.198725 L10.2494821,10.198725 L10.2494821,3.07299286 C10.2494821,1.46618929 11.5639464,0.151725 13.17075,0.151725 L20.82925,0.151725 C22.4360536,0.151725 23.7505179,1.46618929 23.7505179,3.07299286 L23.7505179,10.198725 L30.87625,10.198725 C32.4830536,10.198725 33.7975179,11.5131893 33.7975179,13.1199929 Z" id="Stroke-1"></path>
                    </g>
                </g>
            </g>
        </g>
    </g>
</svg>