<?xml version="1.0" encoding="UTF-8"?>
<svg width="81px" height="63px" viewBox="0 0 81 63" version="1.1" xmlns="http://www.w3.org/2000/svg" xmlns:xlink="http://www.w3.org/1999/xlink">
    <!-- Generator: Sketch 52.5 (67469) - http://www.bohemiancoding.com/sketch -->
    <title>Air Puff</title>
    <desc>Created with Sketch.</desc>
    <g id="Hi-Fi-Wires-v2" stroke="none" stroke-width="1" fill="none" fill-rule="evenodd">
        <g id="Settings" transform="translate(-147.000000, -580.000000)">
            <g id="Air-Puff" transform="translate(148.000000, 580.000000)">
                <path d="M42.6843077,51.0524387 C42.6843077,57.1406968 38.272,62.0831484 32.8484103,62.0831484 C29.4637949,62.0831484 26.3561026,60.1610839 24.5345641,56.9528258 C24.1181538,56.2034065 24.2761026,55.1732129 24.9304615,54.6570839 C25.5827692,54.1430194 26.4545641,54.3536 26.8914872,55.1030194 C28.177641,57.3966968 30.4135385,58.7551484 32.8484103,58.7551484 C36.7273846,58.7551484 39.8740513,55.2908903 39.8740513,51.0524387 C39.8740513,46.8821161 36.8073846,43.4385032 33.006359,43.3476645 L1.69558974,43.3476645 C-0.125948718,43.3476645 -0.125948718,40.021729 1.69558974,40.021729 L33.0843077,40.021729 C38.4094359,40.1621161 42.6843077,45.0570839 42.6843077,51.0524387" id="Fill-6" fill="#4169E1"></path>
                <path d="M42.6843077,51.0524387 C42.6843077,57.1406968 38.272,62.0831484 32.8484103,62.0831484 C29.4637949,62.0831484 26.3561026,60.1610839 24.5345641,56.9528258 C24.1181538,56.2034065 24.2761026,55.1732129 24.9304615,54.6570839 C25.5827692,54.1430194 26.4545641,54.3536 26.8914872,55.1030194 C28.177641,57.3966968 30.4135385,58.7551484 32.8484103,58.7551484 C36.7273846,58.7551484 39.8740513,55.2908903 39.8740513,51.0524387 C39.8740513,46.8821161 36.8073846,43.4385032 33.006359,43.3476645 L1.69558974,43.3476645 C-0.125948718,43.3476645 -0.125948718,40.021729 1.69558974,40.021729 L33.0843077,40.021729 C38.4094359,40.1621161 42.6843077,45.0570839 42.6843077,51.0524387 Z" id="Stroke-7" stroke="#4169E1" stroke-width="0.750769231"></path>
                <path d="M53.1530256,11.8256 C53.1530256,5.73734194 48.7407179,0.794890323 43.3171282,0.794890323 C39.9325128,0.794890323 36.8248205,2.71489032 35.0032821,5.9252129 C34.5868718,6.67256774 34.7448205,7.70276129 35.3991795,8.21889032 C36.0535385,8.73295484 36.9232821,8.52237419 37.3602051,7.77501935 C38.646359,5.47927742 40.8822564,4.12082581 43.3171282,4.12082581 C47.1961026,4.12082581 50.3427692,7.58714839 50.3427692,11.8256 C50.3427692,15.9938581 47.2761026,19.437471 43.4750769,19.5303742 L12.1643077,19.5303742 C10.3427692,19.5303742 10.3427692,22.8563097 12.1643077,22.8563097 L43.5530256,22.8563097 C48.8781538,22.7159226 53.1530256,17.8209548 53.1530256,11.8256" id="Fill-11" fill="#4169E1"></path>
                <path d="M53.1530256,11.8256 C53.1530256,5.73734194 48.7407179,0.794890323 43.3171282,0.794890323 C39.9325128,0.794890323 36.8248205,2.71489032 35.0032821,5.9252129 C34.5868718,6.67256774 34.7448205,7.70276129 35.3991795,8.21889032 C36.0535385,8.73295484 36.9232821,8.52237419 37.3602051,7.77501935 C38.646359,5.47927742 40.8822564,4.12082581 43.3171282,4.12082581 C47.1961026,4.12082581 50.3427692,7.58714839 50.3427692,11.8256 C50.3427692,15.9938581 47.2761026,19.437471 43.4750769,19.5303742 L12.1643077,19.5303742 C10.3427692,19.5303742 10.3427692,22.8563097 12.1643077,22.8563097 L43.5530256,22.8563097 C48.8781538,22.7159226 53.1530256,17.8209548 53.1530256,11.8256 Z" id="Stroke-12" stroke="#4169E1" stroke-width="0.750769231"></path>
                <path d="M79.3249231,22.1481806 C79.3249231,16.0599226 74.9126154,11.117471 69.4890256,11.117471 C66.1044103,11.117471 62.9967179,13.037471 61.1751795,16.2477935 C60.7608205,16.9951484 60.9187692,18.0253419 61.5731282,18.541471 C62.2254359,19.0555355 63.0951795,18.8449548 63.5321026,18.0976 C64.8182564,15.8018581 67.0562051,14.4434065 69.4890256,14.4434065 C73.368,14.4434065 76.5146667,17.909729 76.5146667,22.1481806 C76.5146667,26.3164387 73.448,29.7600516 69.6469744,29.8529548 L38.3362051,29.8529548 C36.5146667,29.8529548 36.5146667,33.1788903 38.3362051,33.1788903 L69.7249231,33.1788903 C75.0500513,33.0385032 79.3249231,28.1435355 79.3249231,22.1481806" id="Fill-16" fill="#4169E1"></path>
                <path d="M79.3249231,22.1481806 C79.3249231,16.0599226 74.9126154,11.117471 69.4890256,11.117471 C66.1044103,11.117471 62.9967179,13.037471 61.1751795,16.2477935 C60.7608205,16.9951484 60.9187692,18.0253419 61.5731282,18.541471 C62.2254359,19.0555355 63.0951795,18.8449548 63.5321026,18.0976 C64.8182564,15.8018581 67.0562051,14.4434065 69.4890256,14.4434065 C73.368,14.4434065 76.5146667,17.909729 76.5146667,22.1481806 C76.5146667,26.3164387 73.448,29.7600516 69.6469744,29.8529548 L38.3362051,29.8529548 C36.5146667,29.8529548 36.5146667,33.1788903 38.3362051,33.1788903 L69.7249231,33.1788903 C75.0500513,33.0385032 79.3249231,28.1435355 79.3249231,22.1481806 Z" id="Stroke-17" stroke="#4169E1" stroke-width="0.750769231"></path>
            </g>
        </g>
    </g>
</svg>