<?xml version="1.0" encoding="UTF-8"?>
<svg width="254px" height="254px" viewBox="0 0 254 254" version="1.1" xmlns="http://www.w3.org/2000/svg" xmlns:xlink="http://www.w3.org/1999/xlink">
    <!-- Generator: Sketch 52.5 (67469) - http://www.bohemiancoding.com/sketch -->
    <title>Logo</title>
    <desc>Created with Sketch.</desc>
    <g id="Page-1" stroke="none" stroke-width="1" fill="none" fill-rule="evenodd">
        <g id="CAF-Logo-Blue-No-bkgrd" transform="translate(-124.000000, -112.000000)">
            <g id="Logo" transform="translate(125.000000, 113.000000)">
                <circle id="Oval" stroke="#FFFFFF" fill="#FFFFFF" fill-rule="nonzero" cx="126" cy="126" r="126"></circle>
                <path d="M49,126.967 C49,86.116 82.824,53 124.55,53 C166.275,53 200.098,86.116 200.098,126.967 C200.098,167.819 166.275,200.934 124.55,200.934 C82.824,200.934 49,167.819 49,126.967" id="Fill-1" fill="#00A3DA"></path>
                <path d="M49,126.967 C49,86.116 82.824,53 124.55,53 C166.275,53 200.098,86.116 200.098,126.967 C200.098,167.819 166.275,200.934 124.55,200.934 C82.824,200.934 49,167.819 49,126.967 Z" id="Stroke-3" stroke="#00A3DA" stroke-width="6.425"></path>
                <path d="M145.727,23 L141.581,31.876 L146.587,32.745 L145.727,23 Z M147.362,42.476 L146.941,38.519 L139.136,37.164 L137.435,40.753 L127,38.941 L141.594,12 L153.472,14.063 L157.373,44.215 L147.362,42.476 Z" id="Fill-4" fill="#00A3DA"></path>
                <polygon id="Fill-5" fill="#00A3DA" points="187.096 66.886 184.399 47.008 175.51 57.177 167 50.046 186.273 28 190.163 31.334 192.897 51.169 201.786 41 210.296 48.131 191.023 70.177"></polygon>
                <path d="M31.933,158.469 L22.09,160.013 L24.128,164.574 L31.933,158.469 Z M16.288,170.601 L19.418,168.064 L16.241,160.953 L12.248,161.558 L8,152.053 L38.988,149 L43.823,159.822 L20.363,179.722 L16.288,170.601 Z" id="Fill-6" fill="#00A3DA"></path>
                <polygon id="Fill-7" fill="#00A3DA" points="28 192.734 51.458 175 58.832 184.346 35.374 202.082"></polygon>
                <path d="M73.582,203.559 L68.036,211.565 C69.649,212.092 72.899,212.211 75.027,209.139 C76.317,207.278 75.729,205.119 73.582,203.559 Z M65.192,225.442 C66.094,224.139 66.537,222.598 66.448,220.772 C66.373,219.227 65.746,216.975 65.102,215.801 L60.556,222.364 L51,216.018 L67.638,192 L75.767,197.399 C84.967,203.508 88.486,210.602 84.971,215.676 C82.102,219.819 77.533,220.25 75.241,219.952 C75.756,221.313 76.344,223.471 76.239,225.575 C76.102,227.727 75.577,229.688 74.319,231.504 L65.192,225.442 Z" id="Fill-8" fill="#00A3DA"></path>
                <polygon id="Fill-9" fill="#00A3DA" points="128.322 217.746 128.632 224.263 138.703 223.802 138.998 229.982 128.927 230.443 129.409 240.556 117.359 241.107 116.877 230.994 114.295 231.113 114 224.933 116.583 224.814 115.978 212.117 140.422 211 140.716 217.179"></polygon>
                <path d="M162.694173,210.071806 C160.879173,210.852806 160.383173,213.522806 162.694173,218.670806 C165.004173,223.819806 167.302173,225.164806 169.117173,224.385806 C170.931173,223.604806 171.473173,221.037806 169.162173,215.887806 C166.852173,210.739806 164.507173,209.289806 162.694173,210.071806 M172.004173,230.821806 C167.272173,232.858806 156.941173,235.213806 151.650173,223.422806 C146.359173,211.631806 155.072173,205.670806 159.805173,203.635806 C164.538173,201.598806 174.915173,199.346806 180.206173,211.137806 C185.497173,222.928806 176.738173,228.783806 172.004173,230.821806" id="Fill-10" fill="#00A3DA"></path>
                <path d="M192.401,188.547135 L199.9,194.845135 C200.618,193.336135 201.104,190.187135 198.227,187.771135 C196.483,186.306135 194.227,186.636135 192.401,188.547135 Z M213.663,199.178135 C212.442,198.152135 210.928,197.549135 209.065,197.428135 C207.489,197.328135 205.133,197.683135 203.869,198.178135 L210.016,203.340135 L202.499,211.922135 L180,193.029135 L186.395,185.728135 C193.631,177.467135 201.228,174.842135 205.98,178.834135 C209.861,182.092135 209.785,186.586135 209.223,188.781135 C210.663,188.433135 212.918,188.105135 215.042,188.443135 C217.211,188.820135 219.142,189.553135 220.842,190.980135 L213.663,199.178135 Z" id="Fill-11" fill="#00A3DA"></path>
                <path d="M234.707347,162.693 C233.416347,165.822 226.682347,178.535 213.955347,173.498 C201.226347,168.461 205.403347,154.736 206.694347,151.607 C207.921347,148.637 208.844347,147 208.844347,147 L214.862347,149.381 C214.432347,150.121 214.089347,150.805 213.540347,152.133 C212.345347,155.027 212.402347,160.147 218.473347,162.549 C224.545347,164.951 228.216347,161.309 229.411347,158.414 C229.960347,157.084 230.197347,156.359 230.477347,155.379 L236.495347,157.76 C236.495347,157.76 235.933347,159.723 234.707347,162.693" id="Fill-12" fill="#00A3DA"></path>
                <polygon id="Fill-13" fill="#00A3DA" points="241.468 141.927 231.189 140.843 230.912 143.358 224.63 142.696 224.907 140.179 212 138.819 214.621 115 220.903 115.662 219.574 127.739 226.199 128.439 227.315 118.29 233.597 118.953 232.481 129.101 236.478 129.522 237.844 117.109 244.125 117.772"></polygon>
                <path d="M164.4,188.758828 L115,188.758828 C115,188.758828 121.51,173.387828 135.297,176.010828 C135.297,176.010828 141.807,155.764828 170.146,162.514828 C170.146,162.514828 175.697,140.018828 196.76,146.016828 C196.76,146.016828 192.548,171.324828 164.4,188.758828" id="Fill-14" fill="#FFFFFE"></path>
                <path d="M164.4,188.758828 L115,188.758828 C115,188.758828 121.51,173.387828 135.297,176.010828 C135.297,176.010828 141.807,155.764828 170.146,162.514828 C170.146,162.514828 175.697,140.018828 196.76,146.016828 C196.76,146.016828 192.548,171.324828 164.4,188.758828 Z" id="Stroke-15" stroke="#00A3DA" stroke-width="6.425"></path>
                <path d="M50.4013691,134.412459 L94.2493691,134.412459 C94.2493691,134.412459 91.1863691,119.040459 77.7823691,120.915459 C77.7823691,120.915459 77.0163691,104.793459 61.6983691,109.667459 C61.6983691,109.667459 59.7843691,100.669459 54.0403691,102.168459 C54.0403691,102.168459 48.4873691,118.665459 50.4013691,134.412459" id="Fill-16" fill="#FFFFFE"></path>
                <path d="M50.4013691,134.412459 L94.2493691,134.412459 C94.2493691,134.412459 91.1863691,119.040459 77.7823691,120.915459 C77.7823691,120.915459 77.0163691,104.793459 61.6983691,109.667459 C61.6983691,109.667459 59.7843691,100.669459 54.0403691,102.168459 C54.0403691,102.168459 48.4873691,118.665459 50.4013691,134.412459 Z" id="Stroke-17" stroke="#00A3DA" stroke-width="6.425"></path>
                <polygon id="Fill-18" fill="#00A3DA" points="70 78 236.117 78 157.825 171.65 136.719 148.322 105.402 169.984 100.637 108.661"></polygon>
                <polygon id="Stroke-19" stroke="#00A3DA" points="70 78 236.117 78 157.825 171.65 136.719 148.322 105.402 169.984 100.637 108.661"></polygon>
                <polygon id="Fill-20" fill="#FFFFFE" points="101.787 103.329 220.927 82 80 82"></polygon>
                <polygon id="Stroke-21" stroke="#00A3DA" points="101.787 103.329 220.927 82 80 82"></polygon>
                <polygon id="Fill-22" fill="#FFFFFE" points="129 132.992 156.573 163.986 223.632 86"></polygon>
                <polygon id="Stroke-23" stroke="#00A3DA" points="129 132.992 156.573 163.986 223.632 86"></polygon>
                <polygon id="Fill-24" fill="#FFFFFE" points="213.248 87 105 108.663 108.745 159.655 122.361 129.993"></polygon>
                <polygon id="Stroke-25" stroke="#00A3DA" points="213.248 87 105 108.663 108.745 159.655 122.361 129.993"></polygon>
                <polygon id="Fill-26" fill="#FFFFFE" points="124.914 135 134.057 145.314 113 159.994"></polygon>
                <polygon id="Stroke-27" stroke="#00A3DA" points="124.914 135 134.057 145.314 113 159.994"></polygon>
                <polygon id="Fill-28" fill="#00A3DA" points="20.796 116.229 22.056 106 27.511 115.074 38.281 112.947 31.033 121.427 36.013 131.351 26.014 127.224 18.566 134.322 19.832 124.046 10 118.942"></polygon>
                <path d="M50.5742785,78.209 C49.1582785,81.64 41.7752785,95.58 27.8182785,90.057 C13.8622785,84.533 18.4422785,69.484 19.8582785,66.053 C21.2032785,62.794 22.2152785,61 22.2152785,61 L28.8142785,63.611 C28.3432785,64.423 27.9662785,65.171 27.3642785,66.63 C26.0552785,69.803 26.1172785,75.415 32.7732785,78.049 C39.4312785,80.684 43.4572785,76.69 44.7662785,73.517 C45.3682785,72.059 45.6282785,71.263 45.9362785,70.188 L52.5352785,72.799 C52.5352785,72.799 51.9192785,74.95 50.5742785,78.209" id="Fill-29" fill="#00A3DA"></path>
                <polygon id="Fill-30" fill="#00A3DA" points="92.096 45.458 89.272 35.721 86.786 36.412 85.059 30.461 87.546 29.77 84 17.543 107.539 11 109.265 16.951 97.33 20.269 99.15 26.544 109.179 23.756 110.904 29.707 100.876 32.495 101.974 36.282 114.241 32.872 115.966 38.823"></polygon>
                <polygon id="Fill-31" fill="#00A3DA" points="63.501 64.624 44 42.771 53.085 35 72.586 56.853"></polygon>
                <polygon id="Stroke-32" stroke="#00A3DA" stroke-width="3.213" points="63.501 64.624 44 42.771 53.085 35 72.586 56.853"></polygon>
                <polygon id="Fill-33" fill="#00A3DA" points="68 52.992 77.392 45 81.323 49.425 71.931 57.418"></polygon>
                <polygon id="Stroke-34" stroke="#00A3DA" stroke-width="3.213" points="68 52.992 77.392 45 81.323 49.425 71.931 57.418"></polygon>
            </g>
        </g>
    </g>
</svg>