<?xml version="1.0" encoding="UTF-8"?>
<svg width="132px" height="22px" viewBox="0 0 132 22" version="1.1" xmlns="http://www.w3.org/2000/svg" xmlns:xlink="http://www.w3.org/1999/xlink">
    <!-- Generator: Sketch 52.5 (67469) - http://www.bohemiancoding.com/sketch -->
    <title>Wordmark</title>
    <desc>Created with Sketch.</desc>
    <g id="Symbols" stroke="none" stroke-width="1" fill="none" fill-rule="evenodd">
        <g id="Overrides/Navigation-Bar/Center/Title/v2" transform="translate(-13.000000, -13.000000)">
            <g id="Wordmark" transform="translate(12.000000, 10.000000)">
                <text id="CenTex" font-family="Ubuntu-Medium, Ubuntu" font-size="20.1388889" font-weight="400" letter-spacing="-0.0506944437" fill="#FFFFFF">
                    <tspan x="0" y="19">C</tspan>
                    <tspan x="12.5361111" y="19" letter-spacing="0.211111104">en</tspan>
                    <tspan x="36.2388889" y="19" letter-spacing="-0.896527784">T</tspan>
                    <tspan x="45.8951389" y="19" letter-spacing="0.211111104">e</tspan>
                    <tspan x="57.6055555" y="19">x</tspan>
                </text>
                <path d="M79.3825,6.14722222 C79.2151389,6.5125 78.945,7.12986111 78.5706944,7.99722222 C78.1984722,8.86597222 77.8220833,9.72222222 77.4401389,10.5673611 C77.0595833,11.4131944 76.6783333,12.23125 76.2984722,13.0229167 C77.3956944,13.0534722 78.2325,13.0694444 78.8109722,13.0694444 C79.66375,13.0694444 80.2956944,13.0534722 80.7068056,13.0229167 C80.4338889,11.7895833 79.9908333,9.49861111 79.3825,6.14722222 M78.26375,14.4166667 C77.9276389,14.4166667 77.0595833,14.4020833 75.6588889,14.3715278 C75.4908333,14.7368056 75.2318056,15.3076389 74.8818056,16.0854167 C74.5318056,16.8611111 74.2345833,17.5201389 73.9901389,18.0604167 C73.7477778,18.6013889 73.5644444,19.0625 73.4429167,19.4430556 C73.1075,19.4270833 72.7845833,19.3395833 72.4720833,19.1805556 C72.1602778,19.0201389 72.0033333,18.7958333 72.0033333,18.5069444 C72.0033333,18.3694444 72.1602778,17.98125 72.4720833,17.3409722 C72.7845833,16.7013889 73.2519444,15.7652778 73.8769444,14.5305556 C74.5019444,13.2979167 75.0109722,12.2777778 75.4075,11.4701389 C77.1734722,7.79930556 78.2325,5.34027778 78.5838889,4.09097222 C79.1311111,4.03055556 79.4741667,4 79.6109722,4 C79.97625,4 80.2422222,4.08402778 80.4102778,4.25138889 C80.5783333,4.41875 80.7068056,4.73888889 80.7984722,5.21041667 C80.845,5.40902778 80.9616667,6.05555556 81.1526389,7.15277778 C81.3436111,8.24861111 81.5297222,9.25069444 81.7123611,10.1569444 C81.8956944,11.0631944 82.0852778,11.9270833 82.2838889,12.7493056 C82.9540278,15.6881944 83.4943056,17.7451389 83.9054167,18.9173611 C83.4790278,19.2222222 83.1068056,19.3743056 82.7866667,19.3743056 C82.3144444,19.3743056 82.0325,19.16875 81.9415278,18.7569444 C81.7283333,17.7979167 81.4158333,16.3354167 81.0047222,14.3715278 C79.4818056,14.4020833 78.5679167,14.4166667 78.26375,14.4166667" id="Fill-3" fill="#FFFFFF"></path>
                <path d="M88.8107639,4 C89.4809028,4 89.815625,4.25138889 89.815625,4.75347222 C89.815625,4.83055556 89.7788194,5.07777778 89.7010417,5.49722222 C89.6253472,5.91527778 89.5190972,6.54791667 89.3809028,7.39236111 C89.2440972,8.23819444 89.1225694,9.10277778 89.0170139,9.98611111 L88.4225694,14.5770833 C88.2399306,15.9173611 88.1482639,16.9611111 88.1482639,17.7069444 C88.1482639,18.2243056 88.178125,18.6895833 88.2399306,19.1006944 C87.965625,19.2229167 87.5996528,19.2833333 87.1427083,19.2833333 C86.5038194,19.2833333 86.184375,18.9631944 86.184375,18.3243056 C86.184375,18.2180556 86.2211806,17.8861111 86.2982639,17.3298611 C86.3732639,16.775 86.5149306,15.7388889 86.7204861,14.2229167 C86.9253472,12.7083333 87.1350694,11.0895833 87.3489583,9.36875 C87.6385417,7.08402778 87.8135417,5.31736111 87.8739583,4.06944444 C88.1177083,4.02291667 88.4295139,4 88.8107639,4" id="Fill-4" fill="#FFFFFF"></path>
                <path d="M101.426528,18.1076389 C101.348056,18.1125 101.270278,18.1180556 101.18625,18.1180556 C100.637639,18.1180556 100.203611,17.8965278 99.8841667,17.4555556 C99.5793056,17.075 99.2293056,16.4388889 98.8334722,15.5472222 C98.4369444,14.65625 98.1168056,13.8229167 97.8744444,13.0458333 C99.0161111,12.8791667 99.9647222,12.3152778 100.7175,11.3555556 C101.471667,10.3958333 101.84875,9.23888889 101.84875,7.88333333 C101.84875,7.15277778 101.711944,6.52361111 101.437639,5.99861111 C101.163333,5.47291667 100.778611,5.07013889 100.283472,4.7875 C99.7890278,4.50625 99.2633333,4.30486111 98.7077778,4.18194444 C98.1515278,4.06041667 97.5383333,4 96.8688889,4 C95.7570833,4 94.6911111,4.09027778 93.6702778,4.27361111 C93.6702778,5.55277778 93.5334722,7.30486111 93.2591667,9.52777778 L92.6883333,14.0972222 C92.6425,14.5076389 92.5654167,15.0645833 92.4598611,15.7645833 C92.3529167,16.4652778 92.2654167,17.0548611 92.1966667,17.5347222 C92.1279167,18.0145833 92.0945833,18.3305556 92.0945833,18.4833333 C92.0945833,19.1222222 92.4140278,19.4423611 93.0536111,19.4423611 C93.5105556,19.4423611 93.8758333,19.3819444 94.1494444,19.2597222 C94.0890278,18.89375 94.0591667,18.4604167 94.0591667,17.9576389 C94.0591667,17.1805556 94.1494444,16.1069444 94.3327778,14.7368056 L94.9952778,9.57291667 C95.1925,8.03541667 95.3383333,6.67222222 95.4293056,5.48472222 C95.8404167,5.42361111 96.3501389,5.39305556 96.9598611,5.39305556 C98.0265278,5.39305556 98.7945833,5.57222222 99.2675,5.92986111 C99.7390278,6.2875 99.9758333,7 99.9758333,8.06597222 C99.9758333,9.28472222 99.6709722,10.2472222 99.0619444,10.9555556 C98.4529167,11.6645833 97.6070833,12.0180556 96.5258333,12.0180556 C96.2355556,12.0180556 95.9626389,11.9722222 95.7043056,11.88125 C95.53625,12.1402778 95.4522222,12.3604167 95.4522222,12.54375 C95.4522222,12.7715278 95.6570833,12.9319444 96.0688889,13.0236111 C96.3272222,13.8145833 96.7008333,14.7743056 97.1883333,15.9013889 C97.6758333,17.0291667 98.1022222,17.8965278 98.4675,18.50625 C98.9091667,19.2368056 99.6022222,19.6020833 100.545972,19.6020833 C100.91125,19.6020833 101.194583,19.5458333 101.426528,19.4534722 L101.426528,18.1076389 Z" id="Fill-5" fill="#FFFFFF"></path>
                <path d="M120.005972,20.9811806 C120.005972,23.0290972 118.512222,24.6915972 116.676111,24.6915972 C115.530278,24.6915972 114.478194,24.0450694 113.861528,22.9659028 C113.720556,22.7138194 113.774028,22.3672917 113.995556,22.1936806 C114.216389,22.0207639 114.511528,22.0915972 114.659444,22.3436806 C115.094861,23.1152083 115.851806,23.5721528 116.676111,23.5721528 C117.989306,23.5721528 119.054583,22.406875 119.054583,20.9811806 C119.054583,19.5784028 118.016389,18.4200694 116.729583,18.3895139 L106.129583,18.3895139 C105.512917,18.3895139 105.512917,17.2707639 106.129583,17.2707639 L116.755972,17.2707639 C118.55875,17.3179861 120.005972,18.9645139 120.005972,20.9811806" id="Fill-6" fill="#FFFFFF"></path>
                <path d="M120.005972,20.9811806 C120.005972,23.0290972 118.512222,24.6915972 116.676111,24.6915972 C115.530278,24.6915972 114.478194,24.0450694 113.861528,22.9659028 C113.720556,22.7138194 113.774028,22.3672917 113.995556,22.1936806 C114.216389,22.0207639 114.511528,22.0915972 114.659444,22.3436806 C115.094861,23.1152083 115.851806,23.5721528 116.676111,23.5721528 C117.989306,23.5721528 119.054583,22.406875 119.054583,20.9811806 C119.054583,19.5784028 118.016389,18.4200694 116.729583,18.3895139 L106.129583,18.3895139 C105.512917,18.3895139 105.512917,17.2707639 106.129583,17.2707639 L116.755972,17.2707639 C118.55875,17.3179861 120.005972,18.9645139 120.005972,20.9811806 Z" id="Stroke-7" stroke="#FFFFFF" stroke-width="0.5"></path>
                <path d="M123.550069,7.78638889 C123.550069,5.73847222 122.056319,4.07597222 120.220208,4.07597222 C119.074375,4.07597222 118.022292,4.72180556 117.405625,5.80166667 C117.264653,6.05305556 117.318125,6.39958333 117.539653,6.57319444 C117.761181,6.74611111 118.055625,6.67527778 118.203542,6.42388889 C118.638958,5.65166667 119.395903,5.19472222 120.220208,5.19472222 C121.533403,5.19472222 122.598681,6.36069444 122.598681,7.78638889 C122.598681,9.18847222 121.560486,10.3468056 120.273681,10.3780556 L109.673681,10.3780556 C109.057014,10.3780556 109.057014,11.4968056 109.673681,11.4968056 L120.300069,11.4968056 C122.102847,11.4495833 123.550069,9.80305556 123.550069,7.78638889" id="Fill-11" fill="#FFFFFF"></path>
                <path d="M123.550069,7.78638889 C123.550069,5.73847222 122.056319,4.07597222 120.220208,4.07597222 C119.074375,4.07597222 118.022292,4.72180556 117.405625,5.80166667 C117.264653,6.05305556 117.318125,6.39958333 117.539653,6.57319444 C117.761181,6.74611111 118.055625,6.67527778 118.203542,6.42388889 C118.638958,5.65166667 119.395903,5.19472222 120.220208,5.19472222 C121.533403,5.19472222 122.598681,6.36069444 122.598681,7.78638889 C122.598681,9.18847222 121.560486,10.3468056 120.273681,10.3780556 L109.673681,10.3780556 C109.057014,10.3780556 109.057014,11.4968056 109.673681,11.4968056 L120.300069,11.4968056 C122.102847,11.4495833 123.550069,9.80305556 123.550069,7.78638889 Z" id="Stroke-12" stroke="#FFFFFF" stroke-width="0.5"></path>
                <path d="M132.410347,11.2586111 C132.410347,9.21069444 130.916597,7.54819444 129.080486,7.54819444 C127.934653,7.54819444 126.882569,8.19402778 126.265903,9.27388889 C126.125625,9.52527778 126.179097,9.87180556 126.400625,10.0454167 C126.621458,10.2183333 126.915903,10.1475 127.063819,9.89611111 C127.499236,9.12388889 128.256875,8.66694444 129.080486,8.66694444 C130.393681,8.66694444 131.458958,9.83291667 131.458958,11.2586111 C131.458958,12.6606944 130.420764,13.8190278 129.133958,13.8502778 L118.533958,13.8502778 C117.917292,13.8502778 117.917292,14.9690278 118.533958,14.9690278 L129.160347,14.9690278 C130.963125,14.9218056 132.410347,13.2752778 132.410347,11.2586111" id="Fill-16" fill="#FFFFFF"></path>
                <path d="M132.410347,11.2586111 C132.410347,9.21069444 130.916597,7.54819444 129.080486,7.54819444 C127.934653,7.54819444 126.882569,8.19402778 126.265903,9.27388889 C126.125625,9.52527778 126.179097,9.87180556 126.400625,10.0454167 C126.621458,10.2183333 126.915903,10.1475 127.063819,9.89611111 C127.499236,9.12388889 128.256875,8.66694444 129.080486,8.66694444 C130.393681,8.66694444 131.458958,9.83291667 131.458958,11.2586111 C131.458958,12.6606944 130.420764,13.8190278 129.133958,13.8502778 L118.533958,13.8502778 C117.917292,13.8502778 117.917292,14.9690278 118.533958,14.9690278 L129.160347,14.9690278 C130.963125,14.9218056 132.410347,13.2752778 132.410347,11.2586111 Z" id="Stroke-17" stroke="#FFFFFF" stroke-width="0.5"></path>
            </g>
        </g>
    </g>
</svg>