<?xml version="1.0" encoding="UTF-8"?>
<svg width="85px" height="84px" viewBox="0 0 85 84" version="1.1" xmlns="http://www.w3.org/2000/svg" xmlns:xlink="http://www.w3.org/1999/xlink">
    <!-- Generator: Sketch 52.5 (67469) - http://www.bohemiancoding.com/sketch -->
    <title>direction copy</title>
    <desc>Created with Sketch.</desc>
    <g id="Page-1" stroke="none" stroke-width="1" fill="none" fill-rule="evenodd">
        <g id="direction-copy" fill="#FFFFFF" fill-rule="nonzero">
            <path d="M45.9,84 C45.7,84 45.5,84 45.3,83.9 C43.5,83.6 42.1,82.2 42,80.4 L38.5,45.6 L3.6,42.1 C1.8,41.9 0.3,40.5 0.1,38.8 C-0.2,37 0.8,35.3 2.4,34.5 L78.4,0.4 C79.9,-0.3 81.7,3.88578059e-15 82.9,1.2 C84.1,2.4 84.4,4.2 83.7,5.7 L49.6,81.7 C48.9,83.1 47.4,84 45.9,84 Z M19.3,35.7 L42.4,38 C44.3,38.2 45.8,39.7 46,41.6 L48.4,64.7 L72,12 L19.3,35.7 Z" id="XMLID_507_"></path>
        </g>
    </g>
</svg>