<?xml version="1.0" encoding="UTF-8"?>
<svg width="92px" height="92px" viewBox="0 0 92 92" version="1.1" xmlns="http://www.w3.org/2000/svg" xmlns:xlink="http://www.w3.org/1999/xlink">
    <!-- Generator: Sketch 52.5 (67469) - http://www.bohemiancoding.com/sketch -->
    <title>XMLID_160_</title>
    <desc>Created with Sketch.</desc>
    <g id="Page-1" stroke="none" stroke-width="1" fill="none" fill-rule="evenodd">
        <g id="gear-copy" fill="#FFFFFF" fill-rule="nonzero">
            <path d="M46,65.3 C35.4,65.3 26.7,56.7 26.7,46 C26.7,35.4 35.3,26.7 46,26.7 C56.6,26.7 65.3,35.3 65.3,46 C65.3,56.6 56.6,65.3 46,65.3 Z M46,33.8 C39.3,33.8 33.8,39.3 33.8,46 C33.8,52.7 39.3,58.2 46,58.2 C52.7,58.2 58.2,52.7 58.2,46 C58.2,39.3 52.7,33.8 46,33.8 Z M46,92 L45.5,92 C42,92 39,91.6 38.8,91.6 C37.2,91.4 36,90.2 35.7,88.6 L34.7,81.4 C32.5,80.7 30.4,79.8 28.4,78.7 L22.8,83 C21.5,84 19.8,83.9 18.5,83 C18.4,82.9 16,81 13.5,78.6 L13.1,78.2 C10.6,75.7 8.8,73.3 8.7,73.2 C7.7,71.9 7.7,70.2 8.7,68.9 L13.1,63.1 C12,61.1 11.2,58.9 10.5,56.7 L3.5,55.7 C1.9,55.5 0.7,54.2 0.5,52.6 C0.4,52.5 0,49.5 0,46 L0,45.5 C0,42 0.4,39 0.4,38.8 C0.6,37.2 1.8,36 3.4,35.7 L10.6,34.7 C11.3,32.5 12.2,30.4 13.3,28.4 L9,22.8 C8,21.5 8.1,19.8 9,18.5 C9.1,18.4 11,16 13.4,13.5 L13.8,13.1 C16.3,10.6 18.7,8.8 18.8,8.7 C20.1,7.7 21.8,7.7 23.1,8.7 L28.9,13.1 C30.9,12 33.1,11.2 35.3,10.5 L36.3,3.5 C36.5,1.9 37.8,0.7 39.4,0.5 C39.5,0.4 42.5,0 46,0 L46.5,0 C50,0 53,0.4 53.2,0.4 C54.8,0.6 56,1.8 56.3,3.4 L57.3,10.6 C59.5,11.3 61.6,12.2 63.6,13.3 L69.2,9 C70.5,8 72.2,8.1 73.5,9 C73.6,9.1 76,11 78.5,13.4 L78.9,13.8 C81.4,16.3 83.2,18.7 83.3,18.8 C84.3,20.1 84.3,21.8 83.3,23.1 L79,28.9 C80.1,30.9 80.9,33.1 81.6,35.3 L88.6,36.3 C90.2,36.5 91.4,37.8 91.6,39.4 C91.6,39.5 92,42.6 92,46.1 L92,46.6 C92,50.1 91.6,53.1 91.6,53.3 C91.4,54.9 90.2,56.1 88.6,56.4 L81.4,57.4 C80.7,59.6 79.8,61.7 78.7,63.7 L83,69.4 C84,70.7 83.9,72.4 83,73.7 C82.9,73.8 81,76.2 78.6,78.7 L78.2,79.1 C75.7,81.6 73.3,83.4 73.2,83.5 C71.9,84.5 70.2,84.5 68.9,83.5 L63.1,79 C61.1,80.1 58.9,80.9 56.7,81.6 L55.7,88.6 C55.5,90.2 54.2,91.4 52.6,91.6 C52.5,91.6 49.5,92 46,92 Z M42.4,84.8 C43.3,84.9 44.4,84.9 45.5,84.9 L46,84.9 C47.1,84.9 48.2,84.9 49.1,84.8 L50,78.2 C50.2,76.7 51.3,75.6 52.7,75.2 C55.8,74.5 58.8,73.3 61.5,71.6 C62.3,71.1 63.3,71 64.2,71.2 C64.7,71.3 65.2,71.6 65.6,71.9 L70.9,75.9 C71.6,75.3 72.4,74.6 73.2,73.8 L73.6,73.4 C74.4,72.6 75.1,71.8 75.7,71.1 L71.7,65.8 C70.8,64.6 70.8,63 71.5,61.8 C73.2,59.2 74.4,56.3 75.1,53.3 C75.4,51.8 76.6,50.6 78.1,50.4 L84.8,49.5 C84.9,48.6 84.9,47.5 84.9,46.4 L84.9,46 C84.9,44.9 84.9,43.8 84.8,42.9 L78.2,42 C76.8,41.8 75.6,40.7 75.2,39.3 C74.5,36.2 73.3,33.3 71.7,30.6 C71.5,30.4 71.4,30.1 71.3,29.8 C70.9,28.7 71.1,27.4 71.8,26.5 L75.9,21.1 C75.3,20.4 74.6,19.6 73.8,18.8 L73.4,18.4 C72.6,17.6 71.8,16.9 71.1,16.3 L65.8,20.3 C64.5,21.2 62.8,21.2 61.6,20.3 C59,18.7 56.1,17.5 53.1,16.7 C51.7,16.4 50.6,15.2 50.4,13.7 L49.5,7 C48.6,6.9 47.5,6.9 46.4,6.9 L46,6.9 C44.9,6.9 43.8,6.9 42.9,7 L42,13.8 C41.8,15.4 40.6,16.6 39,16.8 C36,17.5 33.1,18.7 30.5,20.3 C29.7,20.8 28.7,20.9 27.8,20.7 C27.3,20.6 26.8,20.3 26.4,20 L21.2,16 C20.5,16.6 19.7,17.3 18.9,18.1 L18.5,18.5 C17.7,19.3 17,20.1 16.4,20.8 L20.4,26.1 C21.3,27.3 21.3,28.8 20.6,30.1 C20.5,30.2 20.5,30.3 20.4,30.4 C18.8,33 17.6,35.9 16.9,38.9 C16.6,40.3 15.4,41.4 13.9,41.6 L7.2,42.5 C7.1,43.4 7.1,44.5 7.1,45.6 L7.1,46 C7.1,47.1 7.1,48.2 7.2,49.1 L13.8,50 C15.4,50.2 16.6,51.4 16.8,53 C16.8,53 16.8,53.1 16.8,53.1 C17.5,56.1 18.7,58.9 20.3,61.5 C20.8,62.4 21,63.5 20.6,64.5 C20.5,64.9 20.2,65.3 19.9,65.7 L16,70.9 C16.6,71.6 17.3,72.4 18.1,73.2 L18.5,73.6 C19.3,74.4 20.1,75.1 20.8,75.7 L26.1,71.7 C27.4,70.7 29.3,70.8 30.5,71.8 C33.1,73.4 35.9,74.5 38.8,75.3 C40.2,75.6 41.3,76.8 41.5,78.3 L42.4,84.8 Z" id="XMLID_160_"></path>
        </g>
    </g>
</svg>