<?xml version="1.0" encoding="UTF-8"?>
<svg width="66px" height="92px" viewBox="0 0 66 92" version="1.1" xmlns="http://www.w3.org/2000/svg" xmlns:xlink="http://www.w3.org/1999/xlink">
    <!-- Generator: Sketch 52.5 (67469) - http://www.bohemiancoding.com/sketch -->
    <title>location copy</title>
    <desc>Created with Sketch.</desc>
    <g id="Page-1" stroke="none" stroke-width="1" fill="none" fill-rule="evenodd">
        <g id="location-copy" fill="#FFFFFF" fill-rule="nonzero">
            <path d="M55.4,7.9 C49.7,2.8 41.7,0 33,0 C24.3,0 16.3,2.8 10.6,7.9 C3.6,14.1 0,23.4 0,35 C0,60.1 28.9,89.6 30.2,90.8 C31,91.6 32,92 33,92 C34,92 35.1,91.6 35.8,90.8 C37.1,89.6 66,60.1 66,35 C66,23.4 62.4,14.1 55.4,7.9 Z M33,82.1 C30.3,79.1 26,74.1 21.8,68.1 C12.8,55.3 8,43.9 8,35 C8,10 27.1,8 33,8 C56.2,8 58,28.7 58,35 C58,52.6 40.1,74.3 33,82.1 Z M33,17.3 C24.2,17.3 17.1,24.6 17.1,33.5 C17.1,42.4 24.2,49.6 33,49.6 C41.8,49.6 48.9,42.3 48.9,33.4 C48.9,24.5 41.8,17.3 33,17.3 Z M33,42.6 C28.1,42.6 24.1,38.5 24.1,33.4 C24.1,28.3 28.1,24.2 33,24.2 C37.9,24.2 41.9,28.3 41.9,33.4 C41.9,38.5 37.9,42.6 33,42.6 Z" id="XMLID_1054_"></path>
        </g>
    </g>
</svg>