<?xml version="1.0" encoding="UTF-8"?>
<svg width="153px" height="80px" viewBox="0 0 153 80" version="1.1" xmlns="http://www.w3.org/2000/svg" xmlns:xlink="http://www.w3.org/1999/xlink">
    <!-- Generator: Sketch 52.5 (67469) - http://www.bohemiancoding.com/sketch -->
    <title>Group 9</title>
    <desc>Created with Sketch.</desc>
    <g id="Page-1" stroke="none" stroke-width="1" fill="none" fill-rule="evenodd">
        <g id="Letter" transform="translate(-342.000000, -95.000000)">
            <g id="Group-9" transform="translate(344.000000, 97.000000)">
                <path d="M46.5698,15.8943 C47.7998,16.1343 49.0198,16.5343 50.2398,17.1543 C55.1298,19.6343 58.3998,24.7543 59.0598,29.7243 C59.1898,30.7043 59.2198,31.6543 59.1598,32.5843 C58.8398,37.5143 56.0598,41.7243 53.1598,44.8343 L53.1298,44.8643 C53.0298,44.9443 52.9298,45.0243 52.8398,45.0943 C52.5898,45.2943 52.3498,45.4743 52.1198,45.6543 C50.8398,46.6143 49.8898,47.1943 49.6698,47.3343 C47.8898,48.4043 46.0198,49.2243 44.1098,49.8543 C39.4598,49.8643 34.8198,49.7843 30.2198,48.9043 C27.6398,48.4043 25.0998,47.7043 22.5398,47.0743 C20.6498,46.6143 13.5698,45.8043 9.6798,45.3743 L46.5698,15.8943 Z" id="Fill-1" fill="#FFFFFF"></path>
                <g id="Group-5" transform="translate(33.000000, 0.000000)">
                    <path d="M83.0371,75.2361 C101.4811,76.7351 115.4841,63.2981 114.6821,50.5661 C114.0631,40.7521 104.6441,31.3191 91.5431,29.0591 C92.0011,15.0491 80.9131,2.8411 66.0241,0.9111 C51.0571,-1.0299 36.7411,7.9961 33.1401,21.6811 C27.5731,15.1041 17.6121,13.2851 9.8801,17.3571 C2.3401,21.3301 -1.1439,29.8851 1.7131,37.5991" id="Fill-3" fill="#FFFFFF"></path>
                    <path d="M83.0371,75.2361 C101.4811,76.7351 115.4841,63.2981 114.6821,50.5661 C114.0631,40.7521 104.6441,31.3191 91.5431,29.0591 C92.0011,15.0491 80.9131,2.8411 66.0241,0.9111 C51.0571,-1.0299 36.7411,7.9961 33.1401,21.6811 C27.5731,15.1041 17.6121,13.2851 9.8801,17.3571 C2.3401,21.3301 -1.1439,29.8851 1.7131,37.5991" id="Stroke-4" stroke="#231F20" stroke-width="5.037" stroke-linecap="round" stroke-linejoin="round"></path>
                </g>
                <g id="Group-8" transform="translate(0.000000, 26.000000)">
                    <path d="M74.4888,28.1482 C72.3758,24.5282 68.5498,21.4922 63.6948,20.1882 C64.6908,11.4492 58.7468,3.2702 50.0158,1.3332 C41.2408,-0.6148 32.2838,4.3282 29.4408,12.7102 C26.4798,8.3242 20.6658,6.6982 15.8708,8.8662 C11.1938,10.9802 8.6858,16.1602 9.9808,21.1242 C4.5308,22.9752 0.7898,27.5042 0.5088,32.4892 C0.0718,40.2002 8.1758,44.4112 9.2298,44.9592 C18.2758,49.6612 27.8998,43.8972 28.4428,43.5602" id="Fill-6" fill="#FFFFFF"></path>
                    <path d="M74.4888,28.1482 C72.3758,24.5282 68.5498,21.4922 63.6948,20.1882 C64.6908,11.4492 58.7468,3.2702 50.0158,1.3332 C41.2408,-0.6148 32.2838,4.3282 29.4408,12.7102 C26.4798,8.3242 20.6658,6.6982 15.8708,8.8662 C11.1938,10.9802 8.6858,16.1602 9.9808,21.1242 C4.5308,22.9752 0.7898,27.5042 0.5088,32.4892 C0.0718,40.2002 8.1758,44.4112 9.2298,44.9592 C18.2758,49.6612 27.8998,43.8972 28.4428,43.5602" id="Stroke-7" stroke="#231F20" stroke-width="5.037" stroke-linecap="round" stroke-linejoin="round"></path>
                </g>
            </g>
        </g>
    </g>
</svg>