<?xml version="1.0" encoding="UTF-8"?>
<svg width="31px" height="24px" viewBox="0 0 31 24" version="1.1" xmlns="http://www.w3.org/2000/svg" xmlns:xlink="http://www.w3.org/1999/xlink">
    <!-- Generator: Sketch 52.5 (67469) - http://www.bohemiancoding.com/sketch -->
    <title>Feels Like Icon</title>
    <desc>Created with Sketch.</desc>
    <g id="Symbols" stroke="none" stroke-width="1" fill="none" fill-rule="evenodd">
        <g id="Weather-Container/Extended/v2" transform="translate(-30.000000, -154.000000)">
            <g id="Feels-Like-Icon" transform="translate(31.000000, 155.000000)">
                <g id="Group-4" transform="translate(0.500000, 2.166667)">
                    <path d="M20.939,15.66325 C24.9609444,15.9729722 28.0148333,13.1960278 27.8398333,10.5646389 C27.7048333,8.53602778 25.6509444,6.58630556 22.794,6.11963889 C22.8937222,3.22380556 20.4759444,0.70075 17.229,0.301583333 C13.9653889,-0.0995277778 10.8431667,1.76575 10.0581667,4.59436111 C8.844,3.23519444 6.67177778,2.85908333 4.98566667,3.70075 C3.3415,4.52186111 2.58177778,6.29019444 3.20483333,7.88436111 C1.27038889,8.63991667 0.0409444444,10.22825 0.0884444444,11.8718611 C0.162055556,14.4149167 3.24844444,15.5771389 3.65011111,15.7285278 C7.09594444,17.0263056 10.4367778,14.87325 10.6251111,14.7479722" id="Fill-1" fill="#FEFEFE"></path>
                    <path d="M20.939,15.66325 C24.9609444,15.9729722 28.0148333,13.1960278 27.8398333,10.5646389 C27.7048333,8.53602778 25.6509444,6.58630556 22.794,6.11963889 C22.8937222,3.22380556 20.4759444,0.70075 17.229,0.301583333 C13.9653889,-0.0995277778 10.8431667,1.76575 10.0581667,4.59436111 C8.844,3.23519444 6.67177778,2.85908333 4.98566667,3.70075 C3.3415,4.52186111 2.58177778,6.29019444 3.20483333,7.88436111 C1.27038889,8.63991667 0.0409444444,10.22825 0.0884444444,11.8718611 C0.162055556,14.4149167 3.24844444,15.5771389 3.65011111,15.7285278 C7.09594444,17.0263056 10.4367778,14.87325 10.6251111,14.7479722" id="Stroke-3" stroke="#231F20" stroke-width="1.38882353" stroke-linecap="round" stroke-linejoin="round"></path>
                </g>
                <path d="M25.0370833,17.84375 C25.0370833,20.2193056 22.9818056,22.1445833 20.4459722,22.1445833 C17.9104167,22.1445833 15.8540278,20.2193056 15.8540278,17.84375 C15.8540278,16.3665278 16.6493056,15.0626389 17.86125,14.2884722 C17.8451389,14.18625 17.8370833,14.0815278 17.8370833,13.9751389 L17.8370833,2.78902778 C17.8370833,1.59597222 18.8790278,0.619861111 20.1526389,0.619861111 L20.7384722,0.619861111 C22.0120833,0.619861111 23.0543056,1.59597222 23.0543056,2.78902778 L23.0543056,13.9751389 C23.0543056,14.0815278 23.04625,14.1854167 23.0298611,14.2876389 C24.2420833,15.0626389 25.0370833,16.3656944 25.0370833,17.84375" id="Fill-5" fill="#FEFEFE"></path>
                <path d="M25.0370833,17.84375 C25.0370833,20.2193056 22.9818056,22.1445833 20.4459722,22.1445833 C17.9104167,22.1445833 15.8540278,20.2193056 15.8540278,17.84375 C15.8540278,16.3665278 16.6493056,15.0626389 17.86125,14.2884722 C17.8451389,14.18625 17.8370833,14.0815278 17.8370833,13.9751389 L17.8370833,2.78902778 C17.8370833,1.59597222 18.8790278,0.619861111 20.1526389,0.619861111 L20.7384722,0.619861111 C22.0120833,0.619861111 23.0543056,1.59597222 23.0543056,2.78902778 L23.0543056,13.9751389 C23.0543056,14.0815278 23.04625,14.1854167 23.0298611,14.2876389 C24.2420833,15.0626389 25.0370833,16.3656944 25.0370833,17.84375 Z" id="Stroke-7" stroke="#231F20" stroke-width="1.38882353"></path>
                <path d="M23.1760556,17.4636944 C23.1760556,18.8764722 21.9535556,20.02175 20.4455,20.02175 C18.9377222,20.02175 17.7152222,18.8764722 17.7152222,17.4636944 C17.7152222,16.0509167 18.9377222,14.9059167 20.4455,14.9059167 C21.9535556,14.9059167 23.1760556,16.0509167 23.1760556,17.4636944" id="Fill-8" fill="#231F20"></path>
                <path d="M21.0584167,5.07113889 L19.8325833,5.07113889 C19.7134167,5.07113889 19.6156389,5.16891667 19.6156389,5.28836111 L19.6156389,15.63475 C19.6156389,15.7541944 19.7134167,15.8519722 19.8325833,15.8519722 L21.0584167,15.8519722 C21.1778611,15.8519722 21.2756389,15.7541944 21.2756389,15.63475 L21.2756389,5.28836111 C21.2756389,5.16891667 21.1778611,5.07113889 21.0584167,5.07113889" id="Fill-9" fill="#231F20"></path>
            </g>
        </g>
    </g>
</svg>