<?xml version="1.0" encoding="UTF-8"?>
<svg width="154px" height="76px" viewBox="0 0 154 76" version="1.1" xmlns="http://www.w3.org/2000/svg" xmlns:xlink="http://www.w3.org/1999/xlink">
    <!-- Generator: Sketch 52.5 (67469) - http://www.bohemiancoding.com/sketch -->
    <title>Group 13</title>
    <desc>Created with Sketch.</desc>
    <g id="Page-1" stroke="none" stroke-width="1" fill="none" fill-rule="evenodd">
        <g id="Letter" transform="translate(-185.000000, -604.000000)">
            <g id="Group-13" transform="translate(188.000000, 606.000000)">
                <g id="Group-4" transform="translate(34.000000, 0.000000)">
                    <path d="M105.7734,67.7388 C107.0024,66.6228 114.0154,60.0518 113.5854,50.7618 C113.1084,40.4418 103.6304,30.8188 90.4474,29.2558 C90.9044,15.2458 79.8174,3.0378 64.9274,1.1068 C49.9604,-0.8332 35.6454,8.1918 32.0444,21.8778 C26.2234,14.8788 16.2534,13.1418 8.7844,17.5528 C2.0074,21.5548 -1.3996,29.8408 0.6174,37.7948" id="Fill-1" fill="#FFFFFF"></path>
                    <path d="M105.7734,67.7388 C107.0024,66.6228 114.0154,60.0518 113.5854,50.7618 C113.1084,40.4418 103.6304,30.8188 90.4474,29.2558 C90.9044,15.2458 79.8174,3.0378 64.9274,1.1068 C49.9604,-0.8332 35.6454,8.1918 32.0444,21.8778 C26.2234,14.8788 16.2534,13.1418 8.7844,17.5528 C2.0074,21.5548 -1.3996,29.8408 0.6174,37.7948" id="Stroke-3" stroke="#000000" stroke-width="5.037" stroke-linecap="round" stroke-linejoin="round"></path>
                </g>
                <g id="Group-8" transform="translate(0.000000, 27.000000)">
                    <path d="M63.5991,19.3838 C64.5941,10.6448 58.6501,2.4668 49.9201,0.5298 C41.1441,-1.4182 32.1881,3.5238 29.3451,11.9058 C26.3831,7.5198 20.5701,5.8938 15.7741,8.0618 C11.0981,10.1758 8.5891,15.3558 9.8851,20.3198 C4.4351,22.1718 0.6941,26.6998 0.4121,31.6848 C-0.0239,39.3958 8.0791,43.6068 9.1331,44.1548" id="Fill-5" fill="#FFFFFF"></path>
                    <path d="M63.5991,19.3838 C64.5941,10.6448 58.6501,2.4668 49.9201,0.5298 C41.1441,-1.4182 32.1881,3.5238 29.3451,11.9058 C26.3831,7.5198 20.5701,5.8938 15.7741,8.0618 C11.0981,10.1758 8.5891,15.3558 9.8851,20.3198 C4.4351,22.1718 0.6941,26.6998 0.4121,31.6848 C-0.0239,39.3958 8.0791,43.6068 9.1331,44.1548" id="Stroke-7" stroke="#000000" stroke-width="5.037" stroke-linecap="round" stroke-linejoin="round"></path>
                </g>
                <path d="M28.6665,61.6099 L132.0625,61.6099 C134.7135,61.6099 134.7175,57.4899 132.0625,57.4899 L28.6665,57.4899 C26.0165,57.4899 26.0115,61.6099 28.6665,61.6099" id="Fill-9" fill="#000000"></path>
                <path d="M28.6665,71.7246 L132.6195,71.7246 C135.2695,71.7246 135.2735,67.6056 132.6195,67.6056 L28.6665,67.6056 C26.0165,67.6056 26.0115,71.7246 28.6665,71.7246" id="Fill-11" fill="#000000"></path>
                <path d="M46.6528,51.4946 L132.2598,51.4946 C134.9108,51.4946 134.9158,47.3756 132.2598,47.3756 L46.6528,47.3756 C44.0018,47.3756 43.9978,51.4946 46.6528,51.4946" id="Fill-12" fill="#000000"></path>
            </g>
        </g>
    </g>
</svg>