<?xml version="1.0" encoding="UTF-8"?>
<svg width="31px" height="23px" viewBox="0 0 31 23" version="1.1" xmlns="http://www.w3.org/2000/svg" xmlns:xlink="http://www.w3.org/1999/xlink">
    <!-- Generator: Sketch 52.5 (67469) - http://www.bohemiancoding.com/sketch -->
    <title>Humidity Icon</title>
    <desc>Created with Sketch.</desc>
    <g id="Symbols" stroke="none" stroke-width="1" fill="none" fill-rule="evenodd">
        <g id="Weather-Container/Extended/v2" transform="translate(-30.000000, -199.000000)">
            <g id="Humidity-Icon" transform="translate(31.000000, 199.000000)">
                <g id="Group-4" transform="translate(0.555556, 1.500000)">
                    <path d="M20.5224722,16.5652222 C24.4724722,16.9310556 27.50025,13.9982778 27.3535833,11.1916111 C27.2405278,9.02827778 25.2405278,6.93188889 22.4371944,6.40883333 C22.5630278,3.32327778 20.2110833,0.612444444 17.0235833,0.158555556 C13.8199722,-0.297833333 10.7338611,1.66272222 9.93497222,4.67077778 C8.75469444,3.21105556 6.62358333,2.79077778 4.95830556,3.67327778 C3.33469444,4.53383333 2.57108333,6.41188889 3.16802778,8.11688889 C1.25941667,8.90522222 0.0360833333,10.5871667 0.0669166667,12.3393889 C0.114694444,15.0507778 3.13719444,16.3171667 3.53025,16.4818889 C6.90441667,17.8957778 10.2085833,15.6305 10.3946944,15.4985556" id="Fill-1" fill="#FEFEFE"></path>
                    <path d="M20.5224722,16.5652222 C24.4724722,16.9310556 27.50025,13.9982778 27.3535833,11.1916111 C27.2405278,9.02827778 25.2405278,6.93188889 22.4371944,6.40883333 C22.5630278,3.32327778 20.2110833,0.612444444 17.0235833,0.158555556 C13.8199722,-0.297833333 10.7338611,1.66272222 9.93497222,4.67077778 C8.75469444,3.21105556 6.62358333,2.79077778 4.95830556,3.67327778 C3.33469444,4.53383333 2.57108333,6.41188889 3.16802778,8.11688889 C1.25941667,8.90522222 0.0360833333,10.5871667 0.0669166667,12.3393889 C0.114694444,15.0507778 3.13719444,16.3171667 3.53025,16.4818889 C6.90441667,17.8957778 10.2085833,15.6305 10.3946944,15.4985556" id="Stroke-3" stroke="#231F20" stroke-width="1.34277778" stroke-linecap="round" stroke-linejoin="round"></path>
                </g>
                <path d="M27.6860833,17.6694444 C27.3805278,18.4666667 26.7916389,19.4611111 26.0221944,20.2583333 C25.2305278,21.0555556 24.2583056,21.6444444 23.1555278,21.6444444 C21.40275,21.6444444 19.7916389,20.05 19.0499722,18.5833333 C18.9221944,18.3361111 18.8194167,18.075 18.7416389,17.8111111 C17.8083056,14.8944444 19.3555278,11.2722222 21.4944167,6.32777778 C21.5444167,6.21111111 21.5944167,6.10555556 21.6471944,5.98888889 C21.7499722,5.725 21.8638611,5.47777778 21.9805278,5.22777778 C22.0944167,4.98055556 22.1971944,4.74444444 22.3110833,4.49722222 C22.5805278,3.94722222 22.8499722,3.41111111 23.1305278,2.875 C23.7833056,3.96111111 24.3860833,5.09722222 24.9610833,6.30277778 C25.4610833,7.33611111 25.9194167,8.30277778 26.3305278,9.21944444 L26.3416389,9.23055556 C27.1360833,11.0111111 27.7360833,12.5944444 27.9805278,14.0583333 C28.1860833,15.3388889 28.1221944,16.5166667 27.6860833,17.6694444 M25.4971944,5.92222222 C24.5888611,4.03888889 23.7055278,2.56111111 23.0916389,1.59166667 C22.7610833,2.19444444 22.3388611,2.97777778 21.8888611,3.90833333 C21.7888611,4.11666667 21.6860833,4.33888889 21.5694167,4.56111111 C21.4805278,4.78333333 21.3666389,5.01944444 21.2638611,5.25555556 C21.1471944,5.51666667 21.0194167,5.79166667 20.9055278,6.06666667 C18.7805278,10.9972222 17.1805278,14.6611111 18.0638611,17.7472222 C18.15275,18.1388889 18.2944167,18.5055556 18.4860833,18.8722222 C19.2916389,20.4944444 21.0833056,22.3 23.1555278,22.3 C25.5610833,22.3 27.5194167,19.8777778 28.2749722,17.9166667 C29.6194167,14.45 27.8388611,10.8002778 25.4971944,5.92222222" id="Fill-5" fill="#FEFEFE"></path>
                <path d="M27.6860833,17.6694444 C27.3805278,18.4666667 26.7916389,19.4611111 26.0221944,20.2583333 C25.2305278,21.0555556 24.2583056,21.6444444 23.1555278,21.6444444 C21.40275,21.6444444 19.7916389,20.05 19.0499722,18.5833333 C18.9221944,18.3361111 18.8194167,18.075 18.7416389,17.8111111 C17.8083056,14.8944444 19.3555278,11.2722222 21.4944167,6.32777778 C21.5444167,6.21111111 21.5944167,6.10555556 21.6471944,5.98888889 C21.7499722,5.725 21.8638611,5.47777778 21.9805278,5.22777778 C22.0944167,4.98055556 22.1971944,4.74444444 22.3110833,4.49722222 C22.5805278,3.94722222 22.8499722,3.41111111 23.1305278,2.875 C23.7833056,3.96111111 24.3860833,5.09722222 24.9610833,6.30277778 C25.4610833,7.33611111 25.9194167,8.30277778 26.3305278,9.21944444 L26.3416389,9.23055556 C27.1360833,11.0111111 27.7360833,12.5944444 27.9805278,14.0583333 C28.1860833,15.3388889 28.1221944,16.5166667 27.6860833,17.6694444 M26.0749722,5.63333333 C25.3583056,4.13055556 24.5249722,2.65277778 23.6305278,1.23888889 C23.5138611,1.04444444 23.2971944,0.925 23.0805278,0.939166667 C22.8499722,0.939166667 22.6583056,1.06944444 22.5416389,1.26666667 C22.1583056,1.95833333 21.7888611,2.66388889 21.4305278,3.39722222 C21.32775,3.60833333 21.2249722,3.80277778 21.1221944,4.025 C21.0194167,4.23611111 20.9166389,4.44444444 20.82775,4.65277778 C20.6360833,5.05833333 20.4555278,5.47777778 20.27775,5.89722222 C18.1805278,10.7611111 16.5916389,14.45 17.3721944,17.6805556 C17.4888611,18.1916667 17.6666389,18.6888889 17.9110833,19.1722222 C18.8583056,21.0555556 20.85275,22.9530556 23.1555278,22.9530556 C25.8194167,22.9530556 27.9944167,20.4666667 28.8749722,18.1527778 C30.3083056,14.4388889 28.45275,10.5919444 26.0749722,5.63333333" id="Fill-7" fill="#231F20"></path>
                <path d="M27.6860833,17.6694444 C27.3805278,18.4666667 26.7916389,19.4611111 26.0221944,20.2583333 C25.2305278,21.0555556 24.2583056,21.6444444 23.1555278,21.6444444 C21.40275,21.6444444 19.7916389,20.05 19.0499722,18.5833333 C18.9221944,18.3361111 18.8194167,18.075 18.7416389,17.8111111 C17.8083056,14.8944444 19.3555278,11.2722222 21.4944167,6.32777778 C21.5444167,6.21111111 21.5944167,6.10555556 21.6471944,5.98888889 C21.7499722,5.725 21.8638611,5.47777778 21.9805278,5.22777778 C22.0944167,4.98055556 22.1971944,4.74444444 22.3110833,4.49722222 C22.5805278,3.94722222 22.8499722,3.41111111 23.1305278,2.875 C23.7833056,3.96111111 24.3860833,5.09722222 24.9610833,6.30277778 C25.4610833,7.33611111 25.9194167,8.30277778 26.3305278,9.21944444 L26.3416389,9.23055556 C27.1360833,11.0111111 27.7360833,12.5944444 27.9805278,14.0583333 C28.1860833,15.3388889 28.1221944,16.5166667 27.6860833,17.6694444" id="Fill-8" fill="#FEFEFE"></path>
            </g>
        </g>
    </g>
</svg>