<?xml version="1.0" encoding="UTF-8"?>
<svg width="76px" height="52px" viewBox="0 0 76 52" version="1.1" xmlns="http://www.w3.org/2000/svg" xmlns:xlink="http://www.w3.org/1999/xlink">
    <!-- Generator: Sketch 52.5 (67469) - http://www.bohemiancoding.com/sketch -->
    <title>Group 10</title>
    <desc>Created with Sketch.</desc>
    <g id="Symbols" stroke="none" stroke-width="1" fill="none" fill-rule="evenodd">
        <g id="Forecast/Today" transform="translate(-282.000000, -30.000000)">
            <g id="Group-10" transform="translate(283.000000, 30.000000)">
                <path d="M42.4695802,26.6664573 C42.4695802,35.6616865 35.0914938,42.9541344 25.9906296,42.9541344 C16.8897654,42.9541344 9.51211111,35.6616865 9.51211111,26.6664573 C9.51211111,17.6712281 16.8897654,10.3792073 25.9906296,10.3792073 C35.0914938,10.3792073 42.4695802,17.6712281 42.4695802,26.6664573" id="Fill-1" fill="#FAA819"></path>
                <path d="M42.4695802,26.6664573 C42.4695802,35.6616865 35.0914938,42.9541344 25.9906296,42.9541344 C16.8897654,42.9541344 9.51211111,35.6616865 9.51211111,26.6664573 C9.51211111,17.6712281 16.8897654,10.3792073 25.9906296,10.3792073 C35.0914938,10.3792073 42.4695802,17.6712281 42.4695802,26.6664573 Z" id="Stroke-3" stroke="#231F20" stroke-width="1.97814815" stroke-linecap="round" stroke-linejoin="round"></path>
                <path d="M5.0181661,25.9979949 L0.0173505893,25.9979949" id="Path-14" stroke="#000000" stroke-width="2" stroke-linecap="round" fill-rule="nonzero"></path>
                <path d="M25.997208,5.99327058 L25.997208,0.996354346" id="Path-15" stroke="#000000" stroke-width="2" stroke-linecap="round" fill-rule="nonzero"></path>
                <path d="M11.0301847,11.0338189 L7.00496913,7.02199033" id="Path-16" stroke="#000000" stroke-width="2" stroke-linecap="round" fill-rule="nonzero"></path>
                <path d="M41.0161813,11.0572943 L45.0124181,6.99690058" id="Path-17" stroke="#000000" stroke-width="2" stroke-linecap="round" fill-rule="nonzero"></path>
                <g id="Group-6" transform="translate(24.308642, 18.541667)">
                    <path d="M35.6621914,32.030225 C43.631821,32.6704229 49.6825,26.9321313 49.3359568,21.4945063 C49.0684877,17.3026833 44.9985494,13.2740063 39.3376235,12.309225 C39.5350926,6.32536042 34.7444136,1.11195417 28.3108951,0.28725625 C21.8436728,-0.5417125 15.6577469,3.31314167 14.1017593,9.15820417 C11.6962654,6.34885 7.39212963,5.57198542 4.05114198,7.31149583 C0.793117284,9.00787083 -0.712314815,12.6615688 0.522191358,15.9560896" id="Fill-4" fill="#FFFFFF"></path>
                    <path d="M35.6621914,32.030225 C43.631821,32.6704229 49.6825,26.9321313 49.3359568,21.4945063 C49.0684877,17.3026833 44.9985494,13.2740063 39.3376235,12.309225 C39.5350926,6.32536042 34.7444136,1.11195417 28.3108951,0.28725625 C21.8436728,-0.5417125 15.6577469,3.31314167 14.1017593,9.15820417 C11.6962654,6.34885 7.39212963,5.57198542 4.05114198,7.31149583 C0.793117284,9.00787083 -0.712314815,12.6615688 0.522191358,15.9560896" id="Stroke-5" stroke="#231F20" stroke-width="2.17648148" stroke-linecap="round" stroke-linejoin="round"></path>
                </g>
                <g id="Group-9" transform="translate(4.000000, 30.500000)">
                    <path d="M32.3155432,11.9389437 C31.4025185,10.392475 29.7493086,9.09585 27.6514691,8.53936042 C28.0818395,4.80665208 25.5134444,1.31396458 21.7407901,0.486704167 C17.9491235,-0.345254167 14.0788148,1.76581875 12.850358,5.34563125 C11.5709136,3.47244375 9.05912346,2.77757917 6.98677778,3.70349583 C4.96585185,4.60677708 3.88214815,6.81864167 4.44171605,8.93911042 C2.08677778,9.72964167 0.470728395,11.6639021 0.348876543,13.7924854 C0.160049383,17.0861521 3.66177778,18.8846 4.11720988,19.1186417 C8.02597531,21.1263604 12.1844938,18.6650792 12.4191235,18.5211521" id="Fill-7" fill="#FFFFFF"></path>
                    <path d="M32.3155432,11.9389437 C31.4025185,10.392475 29.7493086,9.09585 27.6514691,8.53936042 C28.0818395,4.80665208 25.5134444,1.31396458 21.7407901,0.486704167 C17.9491235,-0.345254167 14.0788148,1.76581875 12.850358,5.34563125 C11.5709136,3.47244375 9.05912346,2.77757917 6.98677778,3.70349583 C4.96585185,4.60677708 3.88214815,6.81864167 4.44171605,8.93911042 C2.08677778,9.72964167 0.470728395,11.6639021 0.348876543,13.7924854 C0.160049383,17.0861521 3.66177778,18.8846 4.11720988,19.1186417 C8.02597531,21.1263604 12.1844938,18.6650792 12.4191235,18.5211521" id="Stroke-8" stroke="#231F20" stroke-width="2.17648148" stroke-linecap="round" stroke-linejoin="round"></path>
                </g>
            </g>
        </g>
    </g>
</svg>