<?xml version="1.0" encoding="UTF-8"?>
<svg width="28px" height="27px" viewBox="0 0 28 27" version="1.1" xmlns="http://www.w3.org/2000/svg" xmlns:xlink="http://www.w3.org/1999/xlink">
    <!-- Generator: Sketch 52.5 (67469) - http://www.bohemiancoding.com/sketch -->
    <title>Precip Icon</title>
    <desc>Created with Sketch.</desc>
    <g id="Symbols" stroke="none" stroke-width="1" fill="none" fill-rule="evenodd">
        <g id="Weather-Container/Extended/v2" transform="translate(-193.000000, -154.000000)">
            <g id="Precip-Icon" transform="translate(193.000000, 154.000000)">
                <g id="Group-4" transform="translate(0.833333, 0.944444)">
                    <path d="M19.8684444,16.1343056 C23.6659444,16.4545833 26.549,13.5823611 26.3837222,10.8606944 C26.2565,8.76263889 24.3173333,6.74625 21.6201111,6.26319444 C21.7142778,3.26847222 19.4315,0.65875 16.3659444,0.245972222 C13.2842778,-0.16875 10.3367778,1.76041667 9.59538889,4.68597222 C8.44927778,3.28013889 6.39844444,2.89097222 4.80622222,3.76152778 C3.254,4.61097222 2.53677778,6.43986111 3.12511111,8.08875 C1.29844444,8.87041667 0.137888889,10.5129167 0.182611111,12.2129167 C0.252055556,14.8431944 3.16622222,16.0454167 3.54538889,16.2020833 C6.79872222,17.5443056 9.95316667,15.3176389 10.1306667,15.1879167" id="Fill-1" fill="#FEFEFE"></path>
                    <path d="M19.8684444,16.1343056 C23.6659444,16.4545833 26.549,13.5823611 26.3837222,10.8606944 C26.2565,8.76263889 24.3173333,6.74625 21.6201111,6.26319444 C21.7142778,3.26847222 19.4315,0.65875 16.3659444,0.245972222 C13.2842778,-0.16875 10.3367778,1.76041667 9.59538889,4.68597222 C8.44927778,3.28013889 6.39844444,2.89097222 4.80622222,3.76152778 C3.254,4.61097222 2.53677778,6.43986111 3.12511111,8.08875 C1.29844444,8.87041667 0.137888889,10.5129167 0.182611111,12.2129167 C0.252055556,14.8431944 3.16622222,16.0454167 3.54538889,16.2020833 C6.79872222,17.5443056 9.95316667,15.3176389 10.1306667,15.1879167" id="Stroke-3" stroke="#231F20" stroke-width="1.29638889" stroke-linecap="round" stroke-linejoin="round"></path>
                </g>
                <path d="M14.0421667,11.8256667 C13.7893889,12.3003889 13.4382778,13.0003889 13.0788333,13.8742778 C12.0316111,16.4187222 11.2802222,18.2256667 12.0163333,19.7517778 C12.3738333,20.4931667 13.1563333,21.3223333 14.0699444,21.3212222 C15.1257778,21.3201111 15.9832778,20.2112222 16.3157778,19.3087222 C16.9007778,17.7206667 16.1241111,16.0470556 15.0957778,13.8098333 C14.6988333,12.9465 14.3110556,12.2681667 14.0421667,11.8256667" id="Fill-5" fill="#FEFEFE"></path>
                <path d="M14.0421667,11.8256667 C13.7893889,12.3003889 13.4382778,13.0003889 13.0788333,13.8742778 C12.0316111,16.4187222 11.2802222,18.2256667 12.0163333,19.7517778 C12.3738333,20.4931667 13.1563333,21.3223333 14.0699444,21.3212222 C15.1257778,21.3201111 15.9832778,20.2112222 16.3157778,19.3087222 C16.9007778,17.7206667 16.1241111,16.0470556 15.0957778,13.8098333 C14.6988333,12.9465 14.3110556,12.2681667 14.0421667,11.8256667 Z" id="Stroke-7" stroke="#231F20" stroke-width="1.29638889" stroke-linecap="round" stroke-linejoin="round"></path>
                <path d="M19.8046944,16.0533611 C19.5519167,16.5280833 19.2008056,17.2280833 18.8410833,18.1019722 C17.7941389,20.6464167 17.0424722,22.4533611 17.7785833,23.9794722 C18.1363611,24.7208611 18.9188611,25.5500278 19.8324722,25.5489167 C20.8880278,25.5478056 21.7458056,24.4389167 22.0783056,23.5364167 C22.6633056,21.9483611 21.8863611,20.27475 20.8583056,18.0375278 C20.4613611,17.1741944 20.0735833,16.4958611 19.8046944,16.0533611" id="Fill-8" fill="#FEFEFE"></path>
                <path d="M19.8046944,16.0533611 C19.5519167,16.5280833 19.2008056,17.2280833 18.8410833,18.1019722 C17.7941389,20.6464167 17.0424722,22.4533611 17.7785833,23.9794722 C18.1363611,24.7208611 18.9188611,25.5500278 19.8324722,25.5489167 C20.8880278,25.5478056 21.7458056,24.4389167 22.0783056,23.5364167 C22.6633056,21.9483611 21.8863611,20.27475 20.8583056,18.0375278 C20.4613611,17.1741944 20.0735833,16.4958611 19.8046944,16.0533611 Z" id="Stroke-9" stroke="#231F20" stroke-width="1.29638889" stroke-linecap="round" stroke-linejoin="round"></path>
            </g>
        </g>
    </g>
</svg>