<?xml version="1.0" encoding="UTF-8"?>
<svg width="40px" height="34px" viewBox="0 0 40 34" version="1.1" xmlns="http://www.w3.org/2000/svg" xmlns:xlink="http://www.w3.org/1999/xlink">
    <!-- Generator: Sketch 52.5 (67469) - http://www.bohemiancoding.com/sketch -->
    <title>Pressure Icon</title>
    <desc>Created with Sketch.</desc>
    <g id="Symbols" stroke="none" stroke-width="1" fill="none" fill-rule="evenodd">
        <g id="Weather-Container/Extended/v2" transform="translate(-26.000000, -237.000000)">
            <g id="Pressure-Icon" transform="translate(26.000000, 237.000000)">
                <path d="M36.6110294,5.91919123 C35.1716176,7.22908596 33.7325,8.5389807 32.2930882,9.84887544 C31.7280882,10.3630509 32.5627941,11.2049982 33.1254412,10.6929105 C34.5648529,9.38301579 36.0042647,8.07312105 37.4433824,6.76322632 C38.0086765,6.24905088 37.1736765,5.40710351 36.6110294,5.91919123" id="Fill-1" fill="#231F20"></path>
                <path d="M31.7049706,7.6332386 C31.7723235,8.58255439 31.8390882,9.53216842 31.9064412,10.4814842 C31.9299706,10.8152211 32.1573235,11.0621684 32.4949706,11.0782737 C33.4796765,11.1256947 34.4643824,11.1728175 35.4490882,11.2202386 C36.2067353,11.2566246 36.2046765,10.0627474 35.4490882,10.0263614 C34.4643824,9.9792386 33.4796765,9.93181754 32.4949706,9.88439649 C32.6911471,10.0833263 32.8873235,10.2825544 33.0835,10.4814842 C33.0164412,9.53216842 32.9493824,8.58255439 32.8823235,7.6332386 C32.8285,6.8715193 31.6508529,6.86525614 31.7049706,7.6332386" id="Fill-3" fill="#231F20"></path>
                <path d="M16.9435,0.583398246 C17.1076176,2.45787193 17.2714412,4.33204737 17.4352647,6.20652105 C17.5017353,6.96555614 18.6796765,6.97271404 18.6126176,6.20652105 C18.4487941,4.33204737 18.2849706,2.45787193 18.1208529,0.583398246 C18.0543824,-0.175935088 16.8764412,-0.183092982 16.9435,0.583398246" id="Fill-4" fill="#231F20"></path>
                <path d="M15.2941176,5.38473509 C16.1173529,5.92664737 16.9405882,6.46885789 17.7638235,7.01106842 C17.9785294,7.1521386 18.3023529,7.10084035 18.4773529,6.91771754 C19.1411765,6.22280526 19.8047059,5.52789298 20.4685294,4.83327895 C20.9958824,4.28122632 20.1644118,3.43599825 19.6361765,3.98894561 L17.6447059,6.07338421 C17.8826471,6.04236667 18.1202941,6.01134912 18.3579412,5.98003333 C17.535,5.43812105 16.7114706,4.89591053 15.8885294,4.35399825 C15.2511765,3.93436667 14.6602941,4.96748947 15.2941176,5.38473509" id="Fill-5" fill="#231F20"></path>
                <path d="M0.336911765,9.28799474 C1.77632353,10.5558368 3.21544118,11.8236789 4.65485294,13.0915211 C5.22455882,13.5934684 6.06044118,12.7524158 5.48720588,12.247486 C4.04808824,10.9796439 2.60867647,9.71180175 1.16926471,8.44395965 C0.599852941,7.94201228 -0.236323529,8.78306491 0.336911765,9.28799474" id="Fill-6" fill="#231F20"></path>
                <path d="M4.891,10.013507 C4.82629412,10.9669982 4.76188235,11.9204895 4.69717647,12.8739807 L5.28570588,12.276893 C4.30305882,12.3550333 3.32070588,12.4328754 2.33805882,12.5110158 C1.58776471,12.5706649 1.58158824,13.7648404 2.33805882,13.7045947 C3.32070588,13.6267526 4.30305882,13.5489105 5.28570588,13.4707702 C5.62011765,13.4442263 5.85129412,13.2178579 5.87452941,12.8739807 C5.93894118,11.9204895 6.00364706,10.9669982 6.06805882,10.013507 C6.12011765,9.24671754 4.94276471,9.24999825 4.891,10.013507" id="Fill-7" fill="#231F20"></path>
                <path d="M2.44170588,32.0701421 C3.91464706,30.7963351 5.38758824,29.5228263 6.86052941,28.2493175 C7.43788235,27.7503526 6.602,26.9090018 6.02817647,27.4049842 C4.55523529,28.6787912 3.08229412,29.9523 1.60905882,31.226107 C1.032,31.7253702 1.86788235,32.5661246 2.44170588,32.0701421" id="Fill-8" fill="#231F20"></path>
                <path d="M7.37979412,30.4743491 C7.33744118,29.5235421 7.29538235,28.5727351 7.25302941,27.6222263 C7.23802941,27.2822263 6.99479412,27.0492965 6.6645,27.0254368 C5.68126471,26.9532614 4.69802941,26.8816825 3.71479412,26.8098053 C2.95891176,26.7543316 2.96214706,27.948507 3.71479412,28.0036825 C4.69802941,28.0752614 5.68126471,28.1471386 6.6645,28.2190158 C6.46832353,28.020086 6.27214706,27.8211561 6.07567647,27.6222263 C6.11802941,28.5727351 6.16038235,29.5235421 6.20244118,30.4743491 C6.23655882,31.2393491 7.41391176,31.2438228 7.37979412,30.4743491" id="Fill-9" fill="#231F20"></path>
                <path d="M22.4563529,33.4166018 C22.3413529,31.5388474 22.2263529,29.6607947 22.1113529,27.7830404 C22.0645882,27.0201281 20.8872353,27.0144614 20.9342941,27.7830404 C21.049,29.6607947 21.164,31.5388474 21.2792941,33.4166018 C21.3257647,34.1798123 22.5034118,34.1851807 22.4563529,33.4166018" id="Fill-10" fill="#231F20"></path>
                <path d="M24.2170294,28.6650719 C23.4082059,28.1025807 22.5993824,27.5403877 21.7905588,26.9778965 C21.5758529,26.8284754 21.2540882,26.8952825 21.0770294,27.0712474 C20.3955588,27.7494579 19.7137941,28.4270719 19.0323235,29.1052825 C18.4902647,29.6442123 19.3229118,30.4879491 19.8646765,29.9496158 C20.5464412,29.2714053 21.2279118,28.593493 21.9096765,27.9152825 C21.6717353,27.9465982 21.4340882,27.9773175 21.1961471,28.0086333 L23.6226176,29.6958088 C24.2490882,30.1312474 24.8387941,29.0972298 24.2170294,28.6650719" id="Fill-11" fill="#231F20"></path>
                <path d="M39.6694118,30.2512614 C38.4726471,28.7403491 37.2752941,27.2288404 36.0785294,25.7179281 C35.6041176,25.1187526 34.7755882,25.9684544 35.2461765,26.5619632 C36.4429412,28.0731737 37.64,29.5843842 38.8370588,31.0955947 C39.3114706,31.6944719 40.1397059,30.8450684 39.6694118,30.2512614" id="Fill-12" fill="#231F20"></path>
                <path d="M35.3690882,28.8383825 C35.5973235,27.9117333 35.8258529,26.984786 36.0540882,26.0584351 C35.8649706,26.2042772 35.6755588,26.3504175 35.4861471,26.4962596 C36.4664412,26.5991544 37.4464412,26.7023474 38.4267353,26.8052421 C39.1796765,26.8839789 39.1743824,25.6898035 38.4267353,25.6113649 C37.4464412,25.5084702 36.4664412,25.4055754 35.4861471,25.3026807 C35.2382059,25.2767333 34.9767353,25.5060842 34.9187941,25.7408035 C34.6902647,26.6677509 34.4620294,27.5941018 34.2337941,28.5210491 C34.0502647,29.2663649 35.1852647,29.5842947 35.3690882,28.8383825" id="Fill-13" fill="#231F20"></path>
                <g id="Group-16" transform="translate(5.588235, 7.456140)">
                    <path d="M21.8681176,17.7540544 C26.0504706,18.1465456 29.2560588,14.9976684 29.1010588,11.9841947 C28.9813529,9.66145789 26.8634118,7.41089649 23.8954706,6.8493 C24.0287059,3.53638772 21.5381176,0.625808772 18.1634118,0.138177193 C14.7713529,-0.351840351 11.5034118,1.75317719 10.6575294,4.98287895 C9.40811765,3.41559825 7.15135294,2.96465088 5.38841176,3.91187895 C3.669,4.83584386 2.86076471,6.85228246 3.49282353,8.68291404 C1.47194118,9.52933509 0.176352941,11.3352123 0.209294118,13.2168439 C0.259882353,16.1277211 3.45988235,17.4874228 3.87635294,17.6642825 C7.449,19.1823526 10.9472353,16.7504579 11.1445882,16.608493" id="Fill-14" fill="#FEFEFE"></path>
                    <path d="M21.8681176,17.7540544 C26.0504706,18.1465456 29.2560588,14.9976684 29.1010588,11.9841947 C28.9813529,9.66145789 26.8634118,7.41089649 23.8954706,6.8493 C24.0287059,3.53638772 21.5381176,0.625808772 18.1634118,0.138177193 C14.7713529,-0.351840351 11.5034118,1.75317719 10.6575294,4.98287895 C9.40811765,3.41559825 7.15135294,2.96465088 5.38841176,3.91187895 C3.669,4.83584386 2.86076471,6.85228246 3.49282353,8.68291404 C1.47194118,9.52933509 0.176352941,11.3352123 0.209294118,13.2168439 C0.259882353,16.1277211 3.45988235,17.4874228 3.87635294,17.6642825 C7.449,19.1823526 10.9472353,16.7504579 11.1445882,16.608493" id="Stroke-15" stroke="#231F20" stroke-width="1.42176471" stroke-linecap="round" stroke-linejoin="round"></path>
                </g>
            </g>
        </g>
    </g>
</svg>