<?xml version="1.0" encoding="UTF-8"?>
<svg width="153px" height="109px" viewBox="0 0 153 109" version="1.1" xmlns="http://www.w3.org/2000/svg" xmlns:xlink="http://www.w3.org/1999/xlink">
    <!-- Generator: Sketch 52.5 (67469) - http://www.bohemiancoding.com/sketch -->
    <title>Group 12</title>
    <desc>Created with Sketch.</desc>
    <g id="Page-1" stroke="none" stroke-width="1" fill="none" fill-rule="evenodd">
        <g id="Letter" transform="translate(-369.000000, -519.000000)">
            <g id="Group-12" transform="translate(371.000000, 522.000000)">
                <path d="M46.9573,15.3328 C48.1873,15.5718 49.4073,15.9728 50.6273,16.5928 C55.5173,19.0718 58.7873,24.1918 59.4473,29.1618 C59.5773,30.1428 59.6073,31.0928 59.5473,32.0218 C59.2273,36.9518 56.4473,41.1618 53.5473,44.2718 L53.5173,44.3028 C53.4173,44.3828 53.3173,44.4628 53.2273,44.5318 C52.9773,44.7318 52.7373,44.9118 52.5073,45.0928 C51.2273,46.0528 50.2773,46.6328 50.0573,46.7718 C48.2773,47.8428 46.4073,48.6618 44.4973,49.2928 C39.8473,49.3028 35.2073,49.2228 30.6073,48.3428 C28.0273,47.8428 25.4873,47.1428 22.9273,46.5128 C21.0373,46.0528 13.9573,45.2418 10.0673,44.8118 L46.9573,15.3328 Z" id="Fill-1" fill="#FFFFFF"></path>
                <g id="Group-5" transform="translate(34.000000, 0.000000)">
                    <path d="M82.4241,74.6746 C100.8681,76.1726 114.8711,62.7366 114.0691,50.0046 C113.4501,40.1906 104.0311,30.7576 90.9311,28.4976 C91.3881,14.4866 80.3001,2.2796 65.4111,0.3496 C50.4441,-1.5914 36.1281,7.4336 32.5271,21.1196 C26.9601,14.5416 16.9991,12.7226 9.2671,16.7956 C1.7271,20.7676 -1.7559,29.3226 1.1011,37.0366" id="Fill-3" fill="#FFFFFF"></path>
                    <path d="M82.4241,74.6746 C100.8681,76.1726 114.8711,62.7366 114.0691,50.0046 C113.4501,40.1906 104.0311,30.7576 90.9311,28.4976 C91.3881,14.4866 80.3001,2.2796 65.4111,0.3496 C50.4441,-1.5914 36.1281,7.4336 32.5271,21.1196 C26.9601,14.5416 16.9991,12.7226 9.2671,16.7956 C1.7271,20.7676 -1.7559,29.3226 1.1011,37.0366" id="Stroke-4" stroke="#231F20" stroke-width="5.037" stroke-linecap="round" stroke-linejoin="round"></path>
                </g>
                <g id="Group-8" transform="translate(0.000000, 26.000000)">
                    <path d="M74.8758,27.5867 C72.7628,23.9657 68.9368,20.9297 64.0818,19.6257 C65.0778,10.8867 59.1338,2.7087 50.4028,0.7717 C41.6278,-1.1763 32.6708,3.7667 29.8278,12.1487 C26.8668,7.7627 21.0538,6.1357 16.2578,8.3037 C11.5808,10.4177 9.0728,15.5977 10.3678,20.5627 C4.9178,22.4137 1.1778,26.9417 0.8958,31.9267 C0.4588,39.6387 8.5628,43.8497 9.6168,44.3977 C18.6628,49.0987 28.2868,43.3357 28.8308,42.9987" id="Fill-6" fill="#FFFFFF"></path>
                    <path d="M74.8758,27.5867 C72.7628,23.9657 68.9368,20.9297 64.0818,19.6257 C65.0778,10.8867 59.1338,2.7087 50.4028,0.7717 C41.6278,-1.1763 32.6708,3.7667 29.8278,12.1487 C26.8668,7.7627 21.0538,6.1357 16.2578,8.3037 C11.5808,10.4177 9.0728,15.5977 10.3678,20.5627 C4.9178,22.4137 1.1778,26.9417 0.8958,31.9267 C0.4588,39.6387 8.5628,43.8497 9.6168,44.3977 C18.6628,49.0987 28.2868,43.3357 28.8308,42.9987" id="Stroke-7" stroke="#231F20" stroke-width="5.037" stroke-linecap="round" stroke-linejoin="round"></path>
                </g>
                <path d="M55.45,53.8055 C54.674,55.2635 53.595,57.4145 52.491,60.0985 C49.274,67.9145 46.965,73.4665 49.226,78.1555 C50.325,80.4325 52.728,82.9795 55.535,82.9765 C58.779,82.9735 61.413,79.5665 62.435,76.7935 C64.232,71.9145 61.846,66.7745 58.687,59.9015 C57.468,57.2485 56.276,55.1645 55.45,53.8055" id="Fill-9" fill="#4169B1"></path>
                <path d="M73.1526,66.7928 C72.3766,68.2518 71.2976,70.4018 70.1936,73.0858 C66.9766,80.9028 64.6676,86.4538 66.9286,91.1428 C68.0276,93.4208 70.4306,95.9668 73.2376,95.9638 C76.4816,95.9608 79.1156,92.5538 80.1376,89.7818 C81.9346,84.9028 79.5486,79.7618 76.3896,72.8888 C75.1706,70.2368 73.9786,68.1518 73.1526,66.7928" id="Fill-10" fill="#4169B1"></path>
                <path d="M39.7366,76.3826 C38.9606,77.8416 37.8816,79.9916 36.7776,82.6756 C33.5606,90.4926 31.2516,96.0436 33.5126,100.7326 C34.6116,103.0106 37.0146,105.5566 39.8216,105.5536 C43.0656,105.5506 45.6996,102.1436 46.7216,99.3706 C48.5186,94.4916 46.1326,89.3516 42.9736,82.4786 C41.7546,79.8256 40.5626,77.7416 39.7366,76.3826" id="Fill-11" fill="#4169B1"></path>
            </g>
        </g>
    </g>
</svg>