<?xml version="1.0" encoding="UTF-8"?>
<svg width="153px" height="122px" viewBox="0 0 153 122" version="1.1" xmlns="http://www.w3.org/2000/svg" xmlns:xlink="http://www.w3.org/1999/xlink">
    <!-- Generator: Sketch 52.5 (67469) - http://www.bohemiancoding.com/sketch -->
    <title>Group 17</title>
    <desc>Created with Sketch.</desc>
    <g id="Page-1" stroke="none" stroke-width="1" fill="none" fill-rule="evenodd">
        <g id="Letter" transform="translate(-59.000000, -222.000000)">
            <g id="Group-17" transform="translate(61.000000, 225.000000)">
                <path d="M46.7524,15.4102 C47.9824,15.6502 49.2024,16.0502 50.4224,16.6702 C55.3124,19.1502 58.5824,24.2702 59.2424,29.2402 C59.3724,30.2202 59.4024,31.1802 59.3424,32.1102 C59.0224,37.0402 56.2424,41.2502 53.3424,44.3502 L53.3124,44.3802 C53.2124,44.4602 53.1124,44.5402 53.0224,44.6102 C52.7724,44.8102 52.5224,45.0002 52.2924,45.1702 C51.0124,46.1402 50.0724,46.7102 49.8524,46.8502 C48.0624,47.9302 46.1924,48.7402 44.2924,49.3702 C39.6324,49.3802 34.9924,49.3002 30.4024,48.4202 C27.8124,47.9202 25.2824,47.2202 22.7224,46.6002 C20.8324,46.1402 13.7524,45.3202 9.8624,44.8902 L46.7524,15.4102 Z" id="Fill-1" fill="#FFFFFF"></path>
                <g id="Group-5" transform="translate(33.000000, 0.000000)">
                    <path d="M83.2139,74.7529 C101.6579,76.2509 115.6609,62.8149 114.8589,50.0829 C114.2399,40.2689 104.8209,30.8359 91.7209,28.5769 C92.1779,14.5659 81.0899,2.3579 66.2009,0.4279 C51.2339,-1.5131 36.9179,7.5119 33.3169,21.1979 C27.7499,14.6209 17.7889,12.8009 10.0569,16.8739 C2.5169,20.8459 -0.9661,29.4019 1.8909,37.1159" id="Fill-3" fill="#FFFFFF"></path>
                    <path d="M83.2139,74.7529 C101.6579,76.2509 115.6609,62.8149 114.8589,50.0829 C114.2399,40.2689 104.8209,30.8359 91.7209,28.5769 C92.1779,14.5659 81.0899,2.3579 66.2009,0.4279 C51.2339,-1.5131 36.9179,7.5119 33.3169,21.1979 C27.7499,14.6209 17.7889,12.8009 10.0569,16.8739 C2.5169,20.8459 -0.9661,29.4019 1.8909,37.1159" id="Stroke-4" stroke="#000000" stroke-width="5.037" stroke-linecap="round" stroke-linejoin="round"></path>
                </g>
                <g id="Group-8" transform="translate(0.000000, 26.000000)">
                    <path d="M74.6655,27.665 C72.5525,24.045 68.7265,21.008 63.8715,19.705 C64.8675,10.965 58.9235,2.787 50.1925,0.85 C41.4175,-1.098 32.4605,3.845 29.6175,12.227 C26.6565,7.841 20.8435,6.214 16.0475,8.382 C11.3705,10.497 8.8625,15.677 10.1575,20.641 C4.7075,22.492 0.9675,27.021 0.6855,32.006 C0.2485,39.717 8.3525,43.928 9.4065,44.476 C18.4525,49.178 28.0765,43.414 28.6205,43.077" id="Fill-6" fill="#FFFFFF"></path>
                    <path d="M74.6655,27.665 C72.5525,24.045 68.7265,21.008 63.8715,19.705 C64.8675,10.965 58.9235,2.787 50.1925,0.85 C41.4175,-1.098 32.4605,3.845 29.6175,12.227 C26.6565,7.841 20.8435,6.214 16.0475,8.382 C11.3705,10.497 8.8625,15.677 10.1575,20.641 C4.7075,22.492 0.9675,27.021 0.6855,32.006 C0.2485,39.717 8.3525,43.928 9.4065,44.476 C18.4525,49.178 28.0765,43.414 28.6205,43.077" id="Stroke-7" stroke="#000000" stroke-width="5.037" stroke-linecap="round" stroke-linejoin="round"></path>
                </g>
                <path d="M61.8457,67.1855 C61.8097,68.2655 60.9297,69.1055 59.8687,69.0715 L54.0027,68.8655 L58.2907,72.9545 C59.0617,73.6915 59.0977,74.9345 58.3817,75.7225 C58.0007,76.1345 57.4937,76.3395 56.9857,76.3395 C56.5137,76.3395 56.0517,76.1685 55.6797,75.8175 L52.1437,72.4395 L52.2977,76.8205 C52.3337,77.9005 51.5097,78.7995 50.4487,78.8425 C49.9047,78.8605 49.3967,78.6375 49.0337,78.2685 C48.7077,77.9345 48.4897,77.4715 48.4717,76.9565 L48.2897,71.5395 L43.8107,75.8175 C43.4487,76.1685 42.9767,76.3395 42.5147,76.3395 C41.9977,76.3395 41.4897,76.1345 41.1177,75.7225 C40.3927,74.9345 40.4377,73.6915 41.2087,72.9545 L45.7967,68.5745 L40.0847,68.3765 C39.5857,68.3595 39.1327,68.1365 38.7967,67.8025 C38.4437,67.4335 38.2257,66.9195 38.2437,66.3535 C38.2807,65.2745 39.1597,64.4335 40.2207,64.4675 L43.9287,64.5965 L41.2087,61.9995 C40.4377,61.2625 40.3927,60.0285 41.1177,59.2395 C41.8347,58.4515 43.0407,58.4085 43.8107,59.1455 L48.0097,63.1485 L47.7917,56.7195 C47.7557,55.6395 48.5807,54.7395 49.6327,54.6965 C50.6937,54.6625 51.5727,55.5105 51.6087,56.5815 L51.8267,62.8225 L55.6797,59.1455 C56.4507,58.4085 57.6567,58.4515 58.3817,59.2395 C59.0977,60.0285 59.0617,61.2625 58.2907,61.9995 L55.1447,64.9915 L60.0047,65.1625 C61.0567,65.2055 61.8817,66.1055 61.8457,67.1855" id="Fill-9" fill="#4269B0"></path>
                <path d="M101.0327,63.4209 C100.9957,64.5009 100.1167,65.3409 99.0557,65.3069 L93.1897,65.1019 L97.4777,69.1899 C98.2487,69.9269 98.2847,71.1699 97.5687,71.9579 C97.1877,72.3699 96.6797,72.5749 96.1727,72.5749 C95.7007,72.5749 95.2387,72.4039 94.8667,72.0529 L91.3307,68.6759 L91.4847,73.0559 C91.5207,74.1359 90.6957,75.0359 89.6357,75.0779 C89.0917,75.0959 88.5837,74.8729 88.2207,74.5039 C87.8947,74.1699 87.6767,73.7069 87.6587,73.1919 L87.4767,67.7749 L82.9977,72.0529 C82.6357,72.4039 82.1637,72.5749 81.7017,72.5749 C81.1847,72.5749 80.6767,72.3699 80.3047,71.9579 C79.5797,71.1699 79.6247,69.9269 80.3957,69.1899 L84.9837,64.8099 L79.2717,64.6119 C78.7727,64.5959 78.3197,64.3729 77.9837,64.0379 C77.6307,63.6699 77.4127,63.1549 77.4307,62.5899 C77.4677,61.5099 78.3467,60.6699 79.4077,60.7039 L83.1157,60.8319 L80.3957,58.2349 C79.6247,57.4979 79.5797,56.2639 80.3047,55.4759 C81.0217,54.6869 82.2277,54.6439 82.9977,55.3809 L87.1967,59.3839 L86.9787,52.9549 C86.9427,51.8749 87.7677,50.9749 88.8197,50.9329 C89.8797,50.8979 90.7597,51.7459 90.7957,52.8179 L91.0137,59.0589 L94.8667,55.3809 C95.6377,54.6439 96.8437,54.6869 97.5687,55.4759 C98.2847,56.2639 98.2487,57.4979 97.4777,58.2349 L94.3317,61.2269 L99.1917,61.3989 C100.2437,61.4419 101.0687,62.3409 101.0327,63.4209" id="Fill-10" fill="#4269B0"></path>
                <path d="M87.3521,89.0576 C87.3161,90.1376 86.4361,90.9776 85.3751,90.9436 L79.5091,90.7386 L83.7981,94.8266 C84.5691,95.5636 84.6051,96.8066 83.8891,97.5946 C83.5081,98.0066 83.0001,98.2116 82.4921,98.2116 C82.0211,98.2116 81.5581,98.0406 81.1861,97.6896 L77.6501,94.3126 L77.8051,98.6926 C77.8411,99.7726 77.0161,100.6726 75.9551,100.7146 C75.4111,100.7326 74.9031,100.5096 74.5401,100.1406 C74.2141,99.8066 73.9971,99.3436 73.9781,98.8286 L73.7971,93.4116 L69.3181,97.6896 C68.9551,98.0406 68.4841,98.2116 68.0211,98.2116 C67.5041,98.2116 66.9971,98.0066 66.6251,97.5946 C65.8991,96.8066 65.9451,95.5636 66.7151,94.8266 L71.3031,90.4466 L65.5911,90.2486 C65.0931,90.2326 64.6391,90.0086 64.3041,89.6746 C63.9501,89.3066 63.7321,88.7916 63.7501,88.2266 C63.7871,87.1466 64.6661,86.3066 65.7271,86.3406 L69.4351,86.4686 L66.7151,83.8716 C65.9451,83.1346 65.8991,81.9006 66.6251,81.1126 C67.3411,80.3236 68.5471,80.2806 69.3181,81.0176 L73.5161,85.0206 L73.2981,78.5916 C73.2621,77.5116 74.0871,76.6116 75.1391,76.5686 C76.2001,76.5346 77.0791,77.3826 77.1161,78.4546 L77.3331,84.6946 L81.1861,81.0176 C81.9571,80.2806 83.1631,80.3236 83.8891,81.1126 C84.6051,81.9006 84.5691,83.1346 83.7981,83.8716 L80.6521,86.8636 L85.5121,87.0356 C86.5631,87.0786 87.3881,87.9776 87.3521,89.0576" id="Fill-11" fill="#4269B0"></path>
                <path d="M96.1846,88.96 C101.9806,81.758 107.7776,74.557 113.5746,67.356 C115.0746,65.492 112.4366,62.822 110.9226,64.703 C105.1256,71.905 99.3296,79.106 93.5326,86.309 C92.0336,88.171 94.6706,90.841 96.1846,88.96" id="Fill-12" fill="#000000"></path>
                <path d="M96.1016,107.8223 C101.8986,100.6213 107.6946,93.4193 113.4916,86.2183 C114.9916,84.3543 112.3536,81.6853 110.8396,83.5663 C105.0436,90.7673 99.2466,97.9683 93.4496,105.1713 C91.9506,107.0333 94.5876,109.7033 96.1016,107.8223" id="Fill-13" fill="#000000"></path>
                <path d="M25.0161,104.3311 C30.8121,97.1291 36.6091,89.9281 42.4061,82.7271 C43.9051,80.8631 41.2681,78.1931 39.7541,80.0741 C33.9571,87.2761 28.1611,94.4771 22.3641,101.6801 C20.8651,103.5421 23.5021,106.2121 25.0161,104.3311" id="Fill-14" fill="#000000"></path>
                <path d="M46.2866,98.7725 C52.0826,91.5705 57.8796,84.3695 63.6766,77.1685 C65.1766,75.3045 62.5386,72.6345 61.0246,74.5155 C55.2276,81.7175 49.4316,88.9185 43.6346,96.1205 C42.1356,97.9835 44.7726,100.6535 46.2866,98.7725" id="Fill-15" fill="#000000"></path>
                <path d="M46.2036,117.6348 C52.0006,110.4338 57.7966,103.2318 63.5936,96.0308 C65.0936,94.1668 62.4556,91.4968 60.9416,93.3778 C55.1456,100.5798 49.3486,107.7808 43.5516,114.9838 C42.0526,116.8458 44.6896,119.5158 46.2036,117.6348" id="Fill-16" fill="#000000"></path>
            </g>
        </g>
    </g>
</svg>