<?xml version="1.0" encoding="UTF-8"?>
<svg width="153px" height="104px" viewBox="0 0 153 104" version="1.1" xmlns="http://www.w3.org/2000/svg" xmlns:xlink="http://www.w3.org/1999/xlink">
    <!-- Generator: Sketch 52.5 (67469) - http://www.bohemiancoding.com/sketch -->
    <title>Group 12</title>
    <desc>Created with Sketch.</desc>
    <g id="Page-1" stroke="none" stroke-width="1" fill="none" fill-rule="evenodd">
        <g id="Letter" transform="translate(-58.000000, -445.000000)">
            <g id="Group-12" transform="translate(61.000000, 447.000000)">
                <path d="M46.3502,15.9695 C47.5792,16.2085 48.8002,16.6095 50.0202,17.2295 C54.9102,19.7085 58.1802,24.8285 58.8402,29.7995 C58.9702,30.7795 58.9992,31.7395 58.9402,32.6685 C58.6202,37.5995 55.8402,41.8095 52.9402,44.9085 L52.9102,44.9395 C52.8102,45.0195 52.7092,45.0995 52.6202,45.1685 C52.3702,45.3685 52.1202,45.5595 51.8902,45.7295 C50.6102,46.6985 49.6692,47.2695 49.4502,47.4085 C47.6602,48.4895 45.7892,49.2995 43.8902,49.9295 C39.2302,49.9395 34.5902,49.8595 29.9992,48.9795 C27.4102,48.4795 24.8802,47.7795 22.3202,47.1585 C20.4302,46.6985 13.3502,45.8785 9.4592,45.4485 L46.3502,15.9695 Z" id="Fill-1" fill="#FFFFFF"></path>
                <g id="Group-5" transform="translate(33.000000, 0.000000)">
                    <path d="M82.8111,75.3123 C101.2551,76.8103 115.2581,63.3743 114.4561,50.6423 C113.8371,40.8283 104.4181,31.3953 91.3181,29.1353 C91.7751,15.1243 80.6881,2.9173 65.7981,0.9873 C50.8321,-0.9537 36.5151,8.0713 32.9151,21.7573 C27.3471,15.1793 17.3861,13.3603 9.6541,17.4333 C2.1141,21.4053 -1.3699,29.9603 1.4881,37.6743" id="Fill-3" fill="#FFFFFF"></path>
                    <path d="M82.8111,75.3123 C101.2551,76.8103 115.2581,63.3743 114.4561,50.6423 C113.8371,40.8283 104.4181,31.3953 91.3181,29.1353 C91.7751,15.1243 80.6881,2.9173 65.7981,0.9873 C50.8321,-0.9537 36.5151,8.0713 32.9151,21.7573 C27.3471,15.1793 17.3861,13.3603 9.6541,17.4333 C2.1141,21.4053 -1.3699,29.9603 1.4881,37.6743" id="Stroke-4" stroke="#231F20" stroke-width="5.037" stroke-linecap="round" stroke-linejoin="round"></path>
                </g>
                <g id="Group-8" transform="translate(0.000000, 26.000000)">
                    <path d="M74.2633,28.2244 C72.1503,24.6034 68.3243,21.5674 63.4693,20.2634 C64.4643,11.5244 58.5213,3.3464 49.7903,1.4094 C41.0153,-0.5386 32.0583,4.4044 29.2153,12.7864 C26.2533,8.4004 20.4403,6.7734 15.6453,8.9414 C10.9683,11.0554 8.4593,16.2354 9.7553,21.2004 C4.3053,23.0514 0.5643,27.5794 0.2833,32.5644 C-0.1537,40.2754 7.9503,44.4874 9.0033,45.0354 C18.0503,49.7364 27.6743,43.9734 28.2173,43.6364" id="Fill-6" fill="#FFFFFF"></path>
                    <path d="M74.2633,28.2244 C72.1503,24.6034 68.3243,21.5674 63.4693,20.2634 C64.4643,11.5244 58.5213,3.3464 49.7903,1.4094 C41.0153,-0.5386 32.0583,4.4044 29.2153,12.7864 C26.2533,8.4004 20.4403,6.7734 15.6453,8.9414 C10.9683,11.0554 8.4593,16.2354 9.7553,21.2004 C4.3053,23.0514 0.5643,27.5794 0.2833,32.5644 C-0.1537,40.2754 7.9503,44.4874 9.0033,45.0354 C18.0503,49.7364 27.6743,43.9734 28.2173,43.6364" id="Stroke-7" stroke="#231F20" stroke-width="5.037" stroke-linecap="round" stroke-linejoin="round"></path>
                </g>
                <path d="M59.4274,73.2889 C59.3914,74.3689 58.5114,75.2089 57.4504,75.1749 L51.5834,74.9689 L55.8724,79.0579 C56.6434,79.7949 56.6794,81.0369 55.9634,81.8259 C55.5824,82.2369 55.0744,82.4429 54.5674,82.4429 C54.0954,82.4429 53.6334,82.2709 53.2614,81.9199 L49.7254,78.5429 L49.8794,82.9229 C49.9154,84.0029 49.0904,84.9029 48.0304,84.9459 C47.4864,84.9629 46.9784,84.7399 46.6144,84.3719 C46.2884,84.0379 46.0714,83.5749 46.0534,83.0599 L45.8714,77.6429 L41.3924,81.9199 C41.0304,82.2709 40.5584,82.4429 40.0964,82.4429 C39.5784,82.4429 39.0714,82.2369 38.6994,81.8259 C37.9744,81.0369 38.0194,79.7949 38.7904,79.0579 L43.3784,74.6779 L37.6654,74.4799 C37.1674,74.4629 36.7144,74.2399 36.3784,73.9059 C36.0254,73.5369 35.8074,73.0229 35.8254,72.4569 C35.8624,71.3769 36.7404,70.5369 37.8024,70.5709 L41.5104,70.6999 L38.7904,68.1019 C38.0194,67.3649 37.9744,66.1319 38.6994,65.3429 C39.4154,64.5539 40.6214,64.5119 41.3924,65.2479 L45.5904,69.2509 L45.3724,62.8219 C45.3364,61.7419 46.1614,60.8429 47.2134,60.7999 C48.2754,60.7659 49.1544,61.6139 49.1904,62.6849 L49.4074,68.9259 L53.2614,65.2479 C54.0314,64.5119 55.2384,64.5539 55.9634,65.3429 C56.6794,66.1319 56.6434,67.3649 55.8724,68.1019 L52.7264,71.0949 L57.5864,71.2659 C58.6384,71.3089 59.4634,72.2089 59.4274,73.2889" id="Fill-9" fill="#4169B1"></path>
                <path d="M106.1734,68.0125 C106.1374,69.0925 105.2584,69.9325 104.1964,69.8985 L98.3304,69.6925 L102.6194,73.7815 C103.3904,74.5185 103.4264,75.7605 102.7104,76.5495 C102.3294,76.9605 101.8214,77.1665 101.3144,77.1665 C100.8424,77.1665 100.3804,76.9945 100.0084,76.6435 L96.4724,73.2665 L96.6264,77.6465 C96.6624,78.7265 95.8374,79.6265 94.7774,79.6695 C94.2324,79.6865 93.7254,79.4635 93.3614,79.0955 C93.0354,78.7615 92.8184,78.2985 92.8004,77.7835 L92.6184,72.3665 L88.1394,76.6435 C87.7774,76.9945 87.3054,77.1665 86.8434,77.1665 C86.3254,77.1665 85.8184,76.9605 85.4464,76.5495 C84.7214,75.7605 84.7664,74.5185 85.5364,73.7815 L90.1244,69.4015 L84.4124,69.2035 C83.9144,69.1865 83.4604,68.9635 83.1254,68.6295 C82.7724,68.2605 82.5544,67.7465 82.5714,67.1805 C82.6094,66.1005 83.4874,65.2605 84.5484,65.2945 L88.2574,65.4235 L85.5364,62.8255 C84.7664,62.0885 84.7214,60.8555 85.4464,60.0665 C86.1624,59.2775 87.3684,59.2355 88.1394,59.9715 L92.3374,63.9745 L92.1194,57.5455 C92.0834,56.4655 92.9084,55.5665 93.9604,55.5235 C95.0214,55.4895 95.9014,56.3375 95.9374,57.4085 L96.1544,63.6495 L100.0084,59.9715 C100.7784,59.2355 101.9854,59.2775 102.7104,60.0665 C103.4264,60.8555 103.3904,62.0885 102.6194,62.8255 L99.4734,65.8185 L104.3334,65.9895 C105.3854,66.0325 106.2104,66.9325 106.1734,68.0125" id="Fill-10" fill="#4169B1"></path>
                <path d="M86.9498,89.617 C86.9138,90.697 86.0338,91.537 84.9728,91.503 L79.1068,91.297 L83.3948,95.386 C84.1658,96.123 84.2028,97.366 83.4858,98.154 C83.1048,98.565 82.5968,98.771 82.0898,98.771 C81.6178,98.771 81.1558,98.6 80.7838,98.249 L77.2478,94.871 L77.4018,99.252 C77.4378,100.332 76.6128,101.231 75.5528,101.274 C75.0088,101.292 74.5008,101.068 74.1368,100.7 C73.8108,100.366 73.5938,99.903 73.5758,99.388 L73.3938,93.971 L68.9148,98.249 C68.5528,98.6 68.0808,98.771 67.6188,98.771 C67.1018,98.771 66.5948,98.565 66.2218,98.154 C65.4968,97.366 65.5428,96.123 66.3128,95.386 L70.9008,91.006 L65.1878,90.808 C64.6898,90.791 64.2368,90.568 63.9008,90.234 C63.5478,89.865 63.3298,89.351 63.3478,88.785 C63.3848,87.705 64.2628,86.865 65.3248,86.899 L69.0328,87.028 L66.3128,84.43 C65.5428,83.694 65.4968,82.46 66.2218,81.671 C66.9378,80.883 68.1438,80.84 68.9148,81.577 L73.1128,85.58 L72.8948,79.151 C72.8588,78.071 73.6838,77.171 74.7358,77.128 C75.7978,77.094 76.6768,77.942 76.7128,79.013 L76.9298,85.254 L80.7838,81.577 C81.5538,80.84 82.7608,80.883 83.4858,81.671 C84.2028,82.46 84.1658,83.694 83.3948,84.43 L80.2488,87.423 L85.1088,87.594 C86.1608,87.637 86.9858,88.537 86.9498,89.617" id="Fill-11" fill="#4169B1"></path>
            </g>
        </g>
    </g>
</svg>