<?xml version="1.0" encoding="UTF-8"?>
<svg width="153px" height="112px" viewBox="0 0 153 112" version="1.1" xmlns="http://www.w3.org/2000/svg" xmlns:xlink="http://www.w3.org/1999/xlink">
    <!-- Generator: Sketch 52.5 (67469) - http://www.bohemiancoding.com/sketch -->
    <title>Group 13</title>
    <desc>Created with Sketch.</desc>
    <g id="Page-1" stroke="none" stroke-width="1" fill="none" fill-rule="evenodd">
        <g id="Letter" transform="translate(-386.000000, -222.000000)">
            <g id="Group-13" transform="translate(388.000000, 225.000000)">
                <path d="M46.9781,15.4227 C48.2071,15.6617 49.4271,16.0627 50.6481,16.6827 C55.5381,19.1617 58.8081,24.2817 59.4671,29.2527 C59.5981,30.2327 59.6271,31.1827 59.5681,32.1117 C59.2481,37.0427 56.4671,41.2527 53.5681,44.3617 L53.5381,44.3927 C53.4381,44.4727 53.3371,44.5527 53.2481,44.6217 C52.9981,44.8217 52.7571,45.0027 52.5281,45.1827 C51.2481,46.1427 50.2971,46.7227 50.0781,46.8617 C48.2971,47.9327 46.4271,48.7527 44.5181,49.3827 C39.8681,49.3927 35.2281,49.3127 30.6271,48.4327 C28.0471,47.9327 25.5071,47.2327 22.9481,46.6027 C21.0581,46.1427 13.9781,45.3317 10.0871,44.9017 L46.9781,15.4227 Z" id="Fill-1" fill="#FFFFFF"></path>
                <g id="Group-5" transform="translate(34.000000, 0.000000)">
                    <path d="M82.4449,74.7645 C100.8889,76.2625 114.8919,62.8265 114.0899,50.0945 C113.4709,40.2805 104.0519,30.8475 90.9519,28.5875 C91.4089,14.5775 80.3209,2.3695 65.4309,0.4395 C50.4659,-1.5015 36.1489,7.5235 32.5479,21.2095 C26.9809,14.6325 17.0189,12.8125 9.2879,16.8855 C1.7479,20.8575 -1.7361,29.4125 1.1219,37.1265" id="Fill-3" fill="#FFFFFF"></path>
                    <path d="M82.4449,74.7645 C100.8889,76.2625 114.8919,62.8265 114.0899,50.0945 C113.4709,40.2805 104.0519,30.8475 90.9519,28.5875 C91.4089,14.5775 80.3209,2.3695 65.4309,0.4395 C50.4659,-1.5015 36.1489,7.5235 32.5479,21.2095 C26.9809,14.6325 17.0189,12.8125 9.2879,16.8855 C1.7479,20.8575 -1.7361,29.4125 1.1219,37.1265" id="Stroke-4" stroke="#231F20" stroke-width="5.037" stroke-linecap="round" stroke-linejoin="round"></path>
                </g>
                <g id="Group-8" transform="translate(0.000000, 26.000000)">
                    <path d="M74.8971,27.6766 C72.7841,24.0556 68.9571,21.0196 64.1031,19.7156 C65.0981,10.9766 59.1541,2.7986 50.4231,0.8616 C41.6481,-1.0864 32.6921,3.8566 29.8481,12.2386 C26.8871,7.8526 21.0741,6.2256 16.2781,8.3936 C11.6011,10.5076 9.0931,15.6886 10.3891,20.6526 C4.9391,22.5036 1.1981,27.0316 0.9171,32.0166 C0.4801,39.7286 8.5831,43.9396 9.6371,44.4876 C18.6831,49.1896 28.3071,43.4256 28.8511,43.0886" id="Fill-6" fill="#FFFFFF"></path>
                    <path d="M74.8971,27.6766 C72.7841,24.0556 68.9571,21.0196 64.1031,19.7156 C65.0981,10.9766 59.1541,2.7986 50.4231,0.8616 C41.6481,-1.0864 32.6921,3.8566 29.8481,12.2386 C26.8871,7.8526 21.0741,6.2256 16.2781,8.3936 C11.6011,10.5076 9.0931,15.6886 10.3891,20.6526 C4.9391,22.5036 1.1981,27.0316 0.9171,32.0166 C0.4801,39.7286 8.5831,43.9396 9.6371,44.4876 C18.6831,49.1896 28.3071,43.4256 28.8511,43.0886" id="Stroke-7" stroke="#231F20" stroke-width="5.037" stroke-linecap="round" stroke-linejoin="round"></path>
                </g>
                <path d="M49.5836,49.9012 C48.8426,51.2932 47.8126,53.3442 46.7596,55.9062 C43.6886,63.3652 41.4856,68.6622 43.6446,73.1362 C44.6926,75.3102 46.9856,77.7402 49.6646,77.7372 C52.7606,77.7342 55.2736,74.4832 56.2486,71.8382 C57.9646,67.1812 55.6876,62.2762 52.6726,55.7172 C51.5096,53.1862 50.3716,51.1982 49.5836,49.9012" id="Fill-9" fill="#4169B1"></path>
                <path d="M34.5885,71.4451 C33.8485,72.8371 32.8185,74.8891 31.7645,77.4501 C28.6945,84.9101 26.4915,90.2071 28.6505,94.6811 C29.6985,96.8541 31.9915,99.2851 34.6705,99.2821 C37.7655,99.2791 40.2795,96.0281 41.2545,93.3821 C42.9695,88.7261 40.6925,83.8211 37.6775,77.2611 C36.5145,74.7311 35.3765,72.7421 34.5885,71.4451" id="Fill-10" fill="#4169B1"></path>
                <path d="M109.3385,56.3289 C108.5985,57.7209 107.5685,59.7729 106.5145,62.3339 C103.4445,69.7929 101.2415,75.0909 103.4005,79.5639 C104.4485,81.7379 106.7415,84.1679 109.4205,84.1659 C112.5155,84.1619 115.0295,80.9109 116.0045,78.2659 C117.7195,73.6099 115.4425,68.7039 112.4275,62.1449 C111.2645,59.6149 110.1265,57.6259 109.3385,56.3289" id="Fill-11" fill="#4169B1"></path>
                <polyline id="Stroke-12" stroke="#FAA819" stroke-width="5.726" stroke-linecap="round" points="87.586 56 75.478 76.738 85.911 76.738 72 105.383"></polyline>
            </g>
        </g>
    </g>
</svg>