<?xml version="1.0" encoding="UTF-8"?>
<svg width="60px" height="52px" viewBox="0 0 60 52" version="1.1" xmlns="http://www.w3.org/2000/svg" xmlns:xlink="http://www.w3.org/1999/xlink">
    <!-- Generator: Sketch 52.5 (67469) - http://www.bohemiancoding.com/sketch -->
    <title>Group 4</title>
    <desc>Created with Sketch.</desc>
    <g id="Symbols" stroke="none" stroke-width="1" fill="none" fill-rule="evenodd">
        <g id="Forecast/Saturday" transform="translate(-292.000000, -30.000000)">
            <g id="Group-4" transform="translate(293.000000, 31.000000)">
                <path d="M48.4945128,29 C48.4945128,39.8010256 39.7381026,48.5574359 28.9370769,48.5574359 C18.1360513,48.5574359 9.38015385,39.8010256 9.38015385,29 C9.38015385,18.1989744 18.1360513,9.4425641 28.9370769,9.4425641 C39.7381026,9.4425641 48.4945128,18.1989744 48.4945128,29" id="Fill-1" fill="#FAA819"></path>
                <path d="M48.4945128,29 C48.4945128,39.8010256 39.7381026,48.5574359 28.9370769,48.5574359 C18.1360513,48.5574359 9.38015385,39.8010256 9.38015385,29 C9.38015385,18.1989744 18.1360513,9.4425641 28.9370769,9.4425641 C39.7381026,9.4425641 48.4945128,18.1989744 48.4945128,29 Z" id="Stroke-3" stroke="#231F20" stroke-width="2.34769231" stroke-linecap="round" stroke-linejoin="round"></path>
                <path d="M53.0074345,29 L57.9967071,29" id="Path-7" stroke="#000000" stroke-width="2" stroke-linecap="round" fill-rule="nonzero"></path>
                <path d="M5.08810986,29 L0.160398511,29" id="Path-5" stroke="#000000" stroke-width="2" stroke-linecap="round" fill-rule="nonzero"></path>
                <path d="M29,4.96699856 L29,0.0323756326" id="Path-8" stroke="#000000" stroke-width="2" stroke-linecap="round" fill-rule="nonzero"></path>
                <path d="M46.0619779,11.9659561 L50.033077,8.00877" id="Path-11" stroke="#000000" stroke-width="2" stroke-linecap="round" fill-rule="nonzero"></path>
                <path d="M12.0202272,12.0379735 L8.02041954,8.04874803" id="Path-12" stroke="#000000" stroke-width="2" stroke-linecap="round" fill-rule="nonzero"></path>
                <path d="M46.0341744,46.01069 L50.0090932,50.001169" id="Path-13" stroke="#000000" stroke-width="2" stroke-linecap="round" fill-rule="nonzero"></path>
                <path d="M12.0308784,46.0656937 L8.02701036,50.0047877" id="Path-3" stroke="#000000" stroke-width="2" stroke-linecap="round" fill-rule="nonzero"></path>
            </g>
        </g>
    </g>
</svg>