<?xml version="1.0" encoding="UTF-8"?>
<svg width="30px" height="20px" viewBox="0 0 30 20" version="1.1" xmlns="http://www.w3.org/2000/svg" xmlns:xlink="http://www.w3.org/1999/xlink">
    <!-- Generator: Sketch 52.5 (67469) - http://www.bohemiancoding.com/sketch -->
    <title>Visibility Icon</title>
    <desc>Created with Sketch.</desc>
    <g id="Symbols" stroke="none" stroke-width="1" fill="none" fill-rule="evenodd">
        <g id="Weather-Container/Extended/v2" transform="translate(-192.000000, -243.000000)">
            <g id="Visibility-Icon" transform="translate(193.000000, 244.000000)">
                <g id="Group-4" transform="translate(0.388889, 0.222222)">
                    <path d="M19.8583889,16.0991667 C23.6558889,16.4194444 26.5389444,13.5472222 26.3736667,10.8258333 C26.2464444,8.7275 24.3072778,6.71111111 21.6100556,6.22805556 C21.7039444,3.23333333 19.4211667,0.623611111 16.3556111,0.210833333 C13.2742222,-0.203888889 10.3267222,1.72527778 9.58533333,4.65083333 C8.43894444,3.245 6.38811111,2.85583333 4.79616667,3.72666667 C3.24366667,4.57583333 2.52644444,6.40472222 3.11505556,8.05361111 C1.28838889,8.83527778 0.127555556,10.4777778 0.172555556,12.1777778 C0.242,14.8080556 3.15616667,16.0105556 3.53505556,16.1666667 C6.78838889,17.5091667 9.94283333,15.2825 10.1203333,15.1527778" id="Fill-1" fill="#FEFEFE"></path>
                    <path d="M19.8583889,16.0991667 C23.6558889,16.4194444 26.5389444,13.5472222 26.3736667,10.8258333 C26.2464444,8.7275 24.3072778,6.71111111 21.6100556,6.22805556 C21.7039444,3.23333333 19.4211667,0.623611111 16.3556111,0.210833333 C13.2742222,-0.203888889 10.3267222,1.72527778 9.58533333,4.65083333 C8.43894444,3.245 6.38811111,2.85583333 4.79616667,3.72666667 C3.24366667,4.57583333 2.52644444,6.40472222 3.11505556,8.05361111 C1.28838889,8.83527778 0.127555556,10.4777778 0.172555556,12.1777778 C0.242,14.8080556 3.15616667,16.0105556 3.53505556,16.1666667 C6.78838889,17.5091667 9.94283333,15.2825 10.1203333,15.1527778" id="Stroke-3" stroke="#231F20" stroke-width="1.29638889" stroke-linecap="round" stroke-linejoin="round"></path>
                </g>
                <path d="M12.0051111,13.7015 C12.7967778,12.8034444 15.8437222,9.564 20.3323333,9.70261111 C24.4706667,9.83066667 27.2570556,12.7506667 28.0942778,13.7015 L28.0942778,13.8248333 C27.3023333,14.7234444 24.2553889,17.9626111 19.7667778,17.8237222 C15.6284444,17.6959444 12.8423333,14.7756667 12.0051111,13.8248333 L12.0051111,13.7015 Z" id="Fill-5" fill="#FEFEFE"></path>
                <path d="M12.0051111,13.7015 C12.7967778,12.8034444 15.8437222,9.564 20.3323333,9.70261111 C24.4706667,9.83066667 27.2570556,12.7506667 28.0942778,13.7015 L28.0942778,13.8248333 C27.3023333,14.7234444 24.2553889,17.9626111 19.7667778,17.8237222 C15.6284444,17.6959444 12.8423333,14.7756667 12.0051111,13.8248333 L12.0051111,13.7015 Z" id="Stroke-7" stroke="#231F20" stroke-width="1.29638889"></path>
                <path d="M22.8501111,13.7633333 C22.8501111,15.0222222 21.8515,16.0427778 20.6201111,16.0427778 C19.3881667,16.0427778 18.3898333,15.0222222 18.3898333,13.7633333 C18.3898333,12.5041667 19.3881667,11.4836111 20.6201111,11.4836111 C21.8515,11.4836111 22.8501111,12.5041667 22.8501111,13.7633333 Z" id="Stroke-8" stroke="#231F20" stroke-width="1.29638889"></path>
            </g>
        </g>
    </g>
</svg>