<?xml version="1.0" encoding="UTF-8"?>
<svg width="41px" height="22px" viewBox="0 0 41 22" version="1.1" xmlns="http://www.w3.org/2000/svg" xmlns:xlink="http://www.w3.org/1999/xlink">
    <!-- Generator: Sketch 52.5 (67469) - http://www.bohemiancoding.com/sketch -->
    <title>Wind Icon</title>
    <desc>Created with Sketch.</desc>
    <g id="Symbols" stroke="none" stroke-width="1" fill="none" fill-rule="evenodd">
        <g id="Weather-Container/Extended/v2" transform="translate(-192.000000, -197.000000)">
            <g id="Wind-Icon" transform="translate(193.000000, 198.000000)">
                <path d="M25.5626187,10.8250397 C25.3726906,9.3953137 24.4316835,7.92243699 23.0244892,7.20901233 C21.8618993,6.6192863 20.6849209,6.70558767 19.4273669,6.93284795 C16.1985899,7.51394384 8.99858993,9.63983425 9.06765468,12.8186014 C9.09067626,13.8053137 9.80146763,14.5388753 10.6043453,15.2465466 C10.6043453,15.2465466 14.2926906,15.6323137 15.0532662,15.8172863 C15.7896691,15.9965055 16.5191655,16.198163 17.2636259,16.341711 C18.5850647,16.5965877 19.9214676,16.6175877 21.2607482,16.6152863 C21.8095252,16.4346288 22.3465036,16.2001767 22.8604604,15.8909301 C22.9352806,15.8449027 23.3007482,15.6205192 23.7726906,15.2465466 C23.7985899,15.2264096 23.8273669,15.2033959 23.8561439,15.1803822 L23.864777,15.1717521 C24.8575827,14.1102452 25.8014676,12.5970945 25.5626187,10.8250397" id="Fill-1" fill="#FEFEFE"></path>
                <path d="M23.8560863,15.180411 C23.8359424,15.2034325 23.8157986,15.2264541 23.7956547,15.246598 L23.7726331,15.246598 C23.7985324,15.2264541 23.8273094,15.2034325 23.8560863,15.180411" id="Fill-3" fill="#FEFEFE"></path>
                <g id="Group-6">
                    <path d="M25.6390504,8.97764384 C24.8154532,7.74928767 23.4134388,6.77321918 21.699482,6.43808219 C21.8217842,3.31368493 19.5558849,0.570164384 16.4839424,0.11190411 C13.3958849,-0.348945205 10.4200576,1.63742466 9.64883453,4.68357534 C8.51185612,3.20609589 6.4577554,2.78178082 4.85228777,3.67586301 C3.28653237,4.54779452 2.54984173,6.44958904 3.12451799,8.17561644 C1.28451799,8.97476712 0.104374101,10.6783562 0.133438849,12.4527123 C0.178330935,15.1976712 3.09113669,16.4786712 3.4701295,16.6452329 C6.72192806,18.0752466 9.90753957,15.7802055 10.0873957,15.646726" id="Fill-4" fill="#FEFEFE"></path>
                    <path d="M25.6390504,8.97764384 C24.8154532,7.74928767 23.4134388,6.77321918 21.699482,6.43808219 C21.8217842,3.31368493 19.5558849,0.570164384 16.4839424,0.11190411 C13.3958849,-0.348945205 10.4200576,1.63742466 9.64883453,4.68357534 C8.51185612,3.20609589 6.4577554,2.78178082 4.85228777,3.67586301 C3.28653237,4.54779452 2.54984173,6.44958904 3.12451799,8.17561644 C1.28451799,8.97476712 0.104374101,10.6783562 0.133438849,12.4527123 C0.178330935,15.1976712 3.09113669,16.4786712 3.4701295,16.6452329 C6.72192806,18.0752466 9.90753957,15.7802055 10.0873957,15.646726" id="Stroke-5" stroke="#231F20" stroke-width="1.32661871" stroke-linecap="round" stroke-linejoin="round"></path>
                </g>
                <path d="M15.9754245,13.9596493 L34.7708201,13.9596493 C35.5693813,13.9596493 35.5705324,12.7194986 34.7708201,12.7194986 L15.9754245,12.7194986 C15.1771511,12.7194986 15.1757122,13.9596493 15.9754245,13.9596493" id="Fill-7" fill="#231F20"></path>
                <path d="M34.9064173,13.9493795 C37.4482878,13.9850507 40.2724604,12.1836534 39.7760576,9.32276301 C39.3185036,6.68711918 36.3956259,5.42222877 34.2215252,7.07720137 C33.5944748,7.55444795 34.2120288,8.63206438 34.8477122,8.1479137 C36.3625324,6.9949274 38.3927482,7.75322877 38.5774964,9.71744795 C38.7668489,11.7348863 36.6128921,12.7328178 34.9064173,12.7092288 C34.1078561,12.6980096 34.1075683,13.9381603 34.9064173,13.9493795" id="Fill-8" fill="#231F20"></path>
                <path d="M15.9754245,16.8586849 L26.830964,16.8586849 C27.6292374,16.8586849 27.6306763,15.6182466 26.830964,15.6182466 L15.9754245,15.6182466 C15.1771511,15.6182466 15.1757122,16.8586849 15.9754245,16.8586849" id="Fill-9" fill="#231F20"></path>
                <path d="M26.6099856,16.867689 C27.6289784,16.8262644 29.0266763,17.1401137 28.8220719,18.4533329 C28.6614964,19.4803192 27.6666763,19.928511 26.7538705,19.5096616 C26.0335827,19.1788397 25.4025036,20.2475384 26.1279712,20.580374 C27.7524317,21.3263055 29.6350216,20.6393466 30.0183309,18.7830041 C30.4606331,16.6398534 28.4825036,15.5510178 26.6099856,15.6275384 C25.8143022,15.6600452 25.8102734,16.9004836 26.6099856,16.867689" id="Fill-10" fill="#231F20"></path>
                <path d="M17.7492662,11.4451726 L28.6048058,11.4451726 C29.4030791,11.4451726 29.404518,10.2050219 28.6048058,10.2050219 L17.7492662,10.2050219 C16.9509928,10.2050219 16.9498417,11.4451726 17.7492662,11.4451726" id="Fill-11" fill="#231F20"></path>
                <path d="M28.3838273,11.4360534 C30.2500144,11.5122863 32.2422446,10.423163 31.7921727,8.28058767 C31.4025324,6.4262589 29.5311655,5.73498493 27.9018129,6.48321781 C27.1772086,6.81576575 27.8065612,7.88503973 28.528,7.55393014 C29.4382158,7.13594384 30.4382158,7.58240959 30.5959137,8.6102589 C30.7973525,9.92405342 29.4059856,10.2373274 28.3838273,10.1959027 C27.585554,10.1633959 27.586705,11.4035466 28.3838273,11.4360534" id="Fill-12" fill="#231F20"></path>
            </g>
        </g>
    </g>
</svg>