<?xml version="1.0" encoding="UTF-8"?>
<svg width="153px" height="96px" viewBox="0 0 153 96" version="1.1" xmlns="http://www.w3.org/2000/svg" xmlns:xlink="http://www.w3.org/1999/xlink">
    <!-- Generator: Sketch 52.5 (67469) - http://www.bohemiancoding.com/sketch -->
    <title>Group 16</title>
    <desc>Created with Sketch.</desc>
    <g id="Page-1" stroke="none" stroke-width="1" fill="none" fill-rule="evenodd">
        <g id="Letter" transform="translate(-221.000000, -327.000000)">
            <g id="Group-16" transform="translate(223.000000, 329.000000)">
                <g id="Group-4" transform="translate(33.000000, 0.000000)">
                    <path d="M83.0371,75.2729 C101.4811,76.7719 115.4841,63.3359 114.6821,50.6039 C114.0631,40.7889 104.6441,31.3559 91.5431,29.0969 C92.0011,15.0859 80.9131,2.8789 66.0241,0.9479 C51.0571,-0.9931 36.7411,8.0329 33.1401,21.7179 C27.5731,15.1409 17.6121,13.3219 9.8801,17.3949 C2.3401,21.3659 -1.1439,29.9219 1.7131,37.6359" id="Fill-1" fill="#FFFFFF"></path>
                    <path d="M83.0371,75.2729 C101.4811,76.7719 115.4841,63.3359 114.6821,50.6039 C114.0631,40.7889 104.6441,31.3559 91.5431,29.0969 C92.0011,15.0859 80.9131,2.8789 66.0241,0.9479 C51.0571,-0.9931 36.7411,8.0329 33.1401,21.7179 C27.5731,15.1409 17.6121,13.3219 9.8801,17.3949 C2.3401,21.3659 -1.1439,29.9219 1.7131,37.6359" id="Stroke-3" stroke="#231F20" stroke-width="5.037" stroke-linecap="round" stroke-linejoin="round"></path>
                </g>
                <g id="Group-8" transform="translate(0.000000, 26.000000)">
                    <path d="M74.4888,28.1855 C72.3758,24.5645 68.5498,21.5285 63.6948,20.2245 C64.6908,11.4855 58.7468,3.3075 50.0158,1.3705 C41.2408,-0.5775 32.2838,4.3645 29.4408,12.7475 C26.4798,8.3605 20.6658,6.7345 15.8708,8.9025 C11.1938,11.0175 8.6858,16.1965 9.9808,21.1615 C4.5308,23.0125 0.7898,27.5415 0.5088,32.5255 C0.0718,40.2365 8.1758,44.4485 9.2298,44.9965 C18.2758,49.6975 27.8998,43.9345 28.4428,43.5975" id="Fill-5" fill="#FFFFFF"></path>
                    <path d="M74.4888,28.1855 C72.3758,24.5645 68.5498,21.5285 63.6948,20.2245 C64.6908,11.4855 58.7468,3.3075 50.0158,1.3705 C41.2408,-0.5775 32.2838,4.3645 29.4408,12.7475 C26.4798,8.3605 20.6658,6.7345 15.8708,8.9025 C11.1938,11.0175 8.6858,16.1965 9.9808,21.1615 C4.5308,23.0125 0.7898,27.5415 0.5088,32.5255 C0.0718,40.2365 8.1758,44.4485 9.2298,44.9965 C18.2758,49.6975 27.8998,43.9345 28.4428,43.5975" id="Stroke-7" stroke="#231F20" stroke-width="5.037" stroke-linecap="round" stroke-linejoin="round"></path>
                </g>
                <path d="M42.5083,69.2446 L107.8223,69.2446 C110.5963,69.2446 110.6013,64.9326 107.8223,64.9326 L42.5083,64.9326 C39.7343,64.9326 39.7293,69.2446 42.5083,69.2446" id="Fill-9" fill="#4169B1"></path>
                <path d="M108.2935,69.209 C117.1265,69.332 126.9405,63.071 125.2145,53.126 C123.6255,43.964 113.4675,39.566 105.9135,45.32 C103.7345,46.979 105.8805,50.725 108.0895,49.042 C113.3535,45.034 120.4085,47.669 121.0495,54.498 C121.7085,61.51 114.2235,64.98 108.2935,64.897 C105.5185,64.859 105.5175,69.17 108.2935,69.209" id="Fill-11" fill="#4169B1"></path>
                <path d="M42.5083,79.3218 L80.2313,79.3218 C83.0053,79.3218 83.0093,75.0108 80.2313,75.0108 L42.5083,75.0108 C39.7343,75.0108 39.7293,79.3218 42.5083,79.3218" id="Fill-12" fill="#4169B1"></path>
                <path d="M79.4634,79.3535 C83.0044,79.2085 87.8614,80.3005 87.1504,84.8645 C86.5924,88.4345 83.1354,89.9935 79.9634,88.5375 C77.4604,87.3875 75.2674,91.1015 77.7884,92.2595 C83.4334,94.8525 89.9754,92.4645 91.3074,86.0105 C92.8444,78.5615 85.9704,74.7765 79.4634,75.0425 C76.6984,75.1555 76.6844,79.4665 79.4634,79.3535" id="Fill-13" fill="#4169B1"></path>
                <path d="M48.6724,60.5039 L86.3954,60.5039 C89.1694,60.5039 89.1744,56.1919 86.3954,56.1919 L48.6724,56.1919 C45.8984,56.1919 45.8944,60.5039 48.6724,60.5039" id="Fill-14" fill="#4169B1"></path>
                <path d="M85.6274,60.4722 C92.1124,60.7372 99.0364,56.9512 97.4714,49.5032 C96.1174,43.0572 89.6144,40.6542 83.9524,43.2542 C81.4344,44.4112 83.6224,48.1282 86.1284,46.9772 C89.2914,45.5242 92.7664,47.0752 93.3144,50.6492 C94.0144,55.2162 89.1794,56.3052 85.6274,56.1602 C82.8534,56.0472 82.8584,60.3592 85.6274,60.4722" id="Fill-15" fill="#4169B1"></path>
            </g>
        </g>
    </g>
</svg>