<?xml version="1.0" encoding="UTF-8"?>
<svg width="62px" height="62px" viewBox="0 0 62 62" version="1.1" xmlns="http://www.w3.org/2000/svg" xmlns:xlink="http://www.w3.org/1999/xlink">
    <!-- Generator: Sketch 52.5 (67469) - http://www.bohemiancoding.com/sketch -->
    <title>Group 8</title>
    <desc>Created with Sketch.</desc>
    <g id="Hi-Fi-Wires-v2" stroke="none" stroke-width="1" fill="none" fill-rule="evenodd">
        <g id="FAQ-What-is-2" transform="translate(-157.000000, -379.000000)">
            <g id="Group-8" transform="translate(158.000000, 380.000000)">
                <path d="M54.0344056,59.7794685 L5.23174825,59.7794685 C2.46251748,59.7794685 0.196783217,57.5141538 0.196783217,54.7445035 L0.196783217,9.01191608 C0.196783217,6.2431049 2.46251748,3.97695105 5.23174825,3.97695105 L54.0344056,3.97695105 C56.8036364,3.97695105 59.0693706,6.2431049 59.0693706,9.01191608 L59.0693706,54.7445035 C59.0693706,57.5141538 56.8036364,59.7794685 54.0344056,59.7794685 Z" id="Stroke-1" stroke="#4169E1" stroke-width="1.93258741" stroke-linecap="round"></path>
                <path d="M54.0344056,20.3751608 L5.23174825,20.3751608 C2.46251748,20.3751608 0.196783217,18.1094266 0.196783217,15.3401958 L0.196783217,8.41040559 C0.196783217,5.64117483 2.46251748,3.37544056 5.23174825,3.37544056 L54.0344056,3.37544056 C56.8036364,3.37544056 59.0693706,5.64117483 59.0693706,8.41040559 L59.0693706,15.3401958 C59.0693706,18.1094266 56.8036364,20.3751608 54.0344056,20.3751608" id="Fill-3" fill="#4169E1"></path>
                <path d="M12.9182098,0.30620979 L12.9182098,11.5371189" id="Stroke-5" stroke="#4169E1" stroke-width="1.93258741" stroke-linecap="round"></path>
                <path d="M29.6332028,0.30620979 L29.6332028,11.5371189" id="Stroke-6" stroke="#4169E1" stroke-width="1.93258741" stroke-linecap="round"></path>
                <path d="M46.347986,0.30620979 L46.347986,11.5371189" id="Stroke-7" stroke="#4169E1" stroke-width="1.93258741" stroke-linecap="round"></path>
                <text id="!" font-family="Dosis-ExtraBold, Dosis" font-size="42.669021" font-weight="600" fill="#4169E1">
                    <tspan x="25" y="55">!</tspan>
                </text>
            </g>
        </g>
    </g>
</svg>