<?xml version="1.0" encoding="UTF-8"?>
<svg width="70px" height="82px" viewBox="0 0 70 82" version="1.1" xmlns="http://www.w3.org/2000/svg" xmlns:xlink="http://www.w3.org/1999/xlink">
    <!-- Generator: Sketch 52.5 (67469) - http://www.bohemiancoding.com/sketch -->
    <title>Group 6</title>
    <desc>Created with Sketch.</desc>
    <g id="Hi-Fi-Wires-v2" stroke="none" stroke-width="1" fill="none" fill-rule="evenodd">
        <g id="FAQ-Who-is" transform="translate(-154.000000, -334.000000)" stroke="#4169E1" stroke-width="1.917603">
            <g id="Who-is-at" transform="translate(0.000000, 275.000000)">
                <g id="Group-6" transform="translate(155.000000, 60.000000)">
                    <path d="M55.0282761,38.444992 C57.5291611,38.444992 59.5668248,36.400192 59.5668248,33.880512 C59.5668248,31.362112 57.5291611,29.318592 55.0282761,29.318592 C52.5146478,29.318592 50.4846301,31.360192 50.4846301,33.880512 C50.4846301,36.400192 52.5146478,38.444992 55.0282761,38.444992" id="Stroke-2"></path>
                    <path d="M22.5576142,13.29376 C26.1289416,13.29376 29.0286938,10.38496 29.0286938,6.79264 C29.0286938,3.20288 26.1289416,0.28768 22.5576142,0.28768 C18.9792779,0.28768 16.0814372,3.20288 16.0814372,6.79264 C16.0814372,10.38496 18.9792779,13.29376 22.5576142,13.29376" id="Stroke-3"></path>
                    <path d="M67.6453522,45.552512 L67.6453522,57.078912 C67.6453522,58.186112 66.7788035,59.082752 65.6828743,59.082752 C64.5869451,59.082752 63.7012814,58.186112 63.7012814,57.078912 L63.7012814,46.941312 L61.6432283,46.941312 L61.6432283,76.854912 C61.6432283,78.326912 60.4326088,79.530112 58.9607504,79.530112 C57.488892,79.530112 56.2910159,78.326912 56.2910159,76.854912 L56.2910159,60.848512 L54.2074761,60.848512 L54.2074761,76.854912 C54.2074761,78.326912 53.0159717,79.530112 51.550485,79.530112 C50.8113699,79.530112 50.1423434,79.229312 49.6517239,78.742912 C49.1611044,78.257152 48.8616354,77.591552 48.8616354,76.854912 L48.8616354,44.835712 L42.3434053,42.998912 C41.209246,42.659712 40.1515469,41.661312 39.8584496,40.637312 L35.1816354,23.581312 L32.7285381,23.581312 L32.7285381,75.210112 C32.7285381,77.315712 31.0145558,79.018112 28.9182726,79.018112 C26.8156177,79.018112 25.1143788,77.315712 25.1143788,75.210112 L25.1143788,45.834112 L22.3108389,45.834112 L22.3108389,75.210112 C22.3108389,77.315712 20.6032283,79.018112 18.5133168,79.018112 C16.4106619,79.018112 14.6966796,77.315712 14.6966796,75.210112 L14.6966796,23.978112 C14.5482195,23.885952 14.3092814,23.768192 13.9983434,23.725952 C13.3477947,23.636352 12.8495292,23.942912 12.7023434,24.042752 L6.43898053,42.531712 C5.96747611,43.933952 4.43190088,44.688512 3.03650265,44.214912 L2.08712212,43.888512 C0.691723894,43.408512 -0.0601345133,41.872512 0.411369912,40.471552 L7.73243186,18.851712 C8.07841416,18.191872 9.0156885,16.616192 10.9405735,15.498112 C12.8533522,14.387712 14.6680071,14.351872 15.410308,14.378112 L32.0276531,14.378112 C32.0276531,14.378112 38.0552637,14.148352 40.1260602,21.386112 L45.248892,39.325952 L49.2375646,39.715712 C49.2821664,39.709312 61.6049982,39.702912 61.6049982,39.702912 C64.809954,39.702912 67.6453522,42.320512 67.6453522,45.552512 Z" id="Stroke-4"></path>
                </g>
            </g>
        </g>
    </g>
</svg>