<?xml version="1.0" encoding="UTF-8"?>
<svg width="122px" height="46px" viewBox="0 0 122 46" version="1.1" xmlns="http://www.w3.org/2000/svg" xmlns:xlink="http://www.w3.org/1999/xlink">
    <!-- Generator: Sketch 52.5 (67469) - http://www.bohemiancoding.com/sketch -->
    <title>Group 4</title>
    <desc>Created with Sketch.</desc>
    <g id="Hi-Fi-Wires-v2" stroke="none" stroke-width="1" fill="none" fill-rule="evenodd">
        <g id="FAQ-What-contributes" transform="translate(-127.000000, -440.000000)">
            <g id="Group-4" transform="translate(128.000000, 442.000000)">
                <path d="M102.145,21.1689 C96.749,21.1689 92.3745,25.9819345 92.3745,31.9198885 C92.3745,37.8573483 96.749,42.6703828 102.145,42.6703828 C107.541,42.6703828 111.915,37.8573483 111.915,31.9198885 C111.915,25.9819345 107.541,21.1689 102.145,21.1689 Z M119.144,19.4152908 C117.818,17.1817621 114.4225,16.4028195 111.836,15.4736241 C93.775,10.6739345 87.769,12.2362678 84.7545,11.7682103 C84.1465,11.5902793 80.885,9.26037126 79.811,8.5362908 C78.036,7.34019885 69.8455,2.41052069 67.6315,1.51987701 C62.7655,-0.436375862 32.4085,0.130037931 32.3095,0.652957471 C28.687,2.33391149 25.0215,3.62341724 21.42,5.30387701 C19.917,6.00522184 18.366,6.69124483 16.8345,7.43262414 C15.882,7.89376207 11.4545,9.15806092 10.1715,9.4822908 C7.835,10.072923 5.3015,10.1515092 2.72,10.1920379 C2.4255,10.7485667 0.461,27.872946 0.499,28.7176241 C1.1315,29.1841989 1.8475,29.9334862 2.2905,30.6101184 C2.5065,30.9397851 2.6115,31.5081759 3.007,31.6347046 C5.1215,33.3334517 15.831,33.6843713 15.831,33.6843713 L16.3945,33.7184747 C16.308,33.1327851 16.2625,32.5317736 16.2625,31.9198885 C16.2625,25.7446931 20.8125,20.7389 26.4245,20.7389 C32.036,20.7389 36.5855,25.7446931 36.5855,31.9198885 C36.5855,32.956831 36.4565,34.6407506 36.2165,35.5941644 L92.5105,35.4844402 C92.169,34.3644632 91.9835,33.1659 91.9835,31.9198885 C91.9835,25.7446931 96.5325,20.7389 102.1445,20.7389 C107.757,20.7389 112.306,25.7446931 112.306,31.9198885 C112.306,33.001808 112.166,34.0486356 111.905,35.0381299 L112.48,35.0247851 C112.48,35.0247851 116.915,34.7890264 117.9965,34.2359575 C119.0785,33.683877 119.5015,32.1081989 119.5015,32.1081989 L119.144,19.4152908 Z M26.426,21.1693943 C21.03,21.1693943 16.6555,25.9824287 16.6555,31.9198885 C16.6555,37.8578425 21.03,42.670877 26.426,42.670877 C31.822,42.670877 36.196,37.8578425 36.196,31.9198885 C36.196,25.9824287 31.822,21.1693943 26.426,21.1693943 Z" id="Fill-2" fill="#FFFFFF"></path>
                <path d="M102.145,21.1689 C96.749,21.1689 92.3745,25.9819345 92.3745,31.9198885 C92.3745,37.8573483 96.749,42.6703828 102.145,42.6703828 C107.541,42.6703828 111.915,37.8573483 111.915,31.9198885 C111.915,25.9819345 107.541,21.1689 102.145,21.1689 Z M119.144,19.4152908 C117.818,17.1817621 114.4225,16.4028195 111.836,15.4736241 C93.775,10.6739345 87.769,12.2362678 84.7545,11.7682103 C84.1465,11.5902793 80.885,9.26037126 79.811,8.5362908 C78.036,7.34019885 69.8455,2.41052069 67.6315,1.51987701 C62.7655,-0.436375862 32.4085,0.130037931 32.3095,0.652957471 C28.687,2.33391149 25.0215,3.62341724 21.42,5.30387701 C19.917,6.00522184 18.366,6.69124483 16.8345,7.43262414 C15.882,7.89376207 11.4545,9.15806092 10.1715,9.4822908 C7.835,10.072923 5.3015,10.1515092 2.72,10.1920379 C2.4255,10.7485667 0.461,27.872946 0.499,28.7176241 C1.1315,29.1841989 1.8475,29.9334862 2.2905,30.6101184 C2.5065,30.9397851 2.6115,31.5081759 3.007,31.6347046 C5.1215,33.3334517 15.831,33.6843713 15.831,33.6843713 L16.3945,33.7184747 C16.308,33.1327851 16.2625,32.5317736 16.2625,31.9198885 C16.2625,25.7446931 20.8125,20.7389 26.4245,20.7389 C32.036,20.7389 36.5855,25.7446931 36.5855,31.9198885 C36.5855,32.956831 36.4565,34.6407506 36.2165,35.5941644 L92.5105,35.4844402 C92.169,34.3644632 91.9835,33.1659 91.9835,31.9198885 C91.9835,25.7446931 96.5325,20.7389 102.1445,20.7389 C107.757,20.7389 112.306,25.7446931 112.306,31.9198885 C112.306,33.001808 112.166,34.0486356 111.905,35.0381299 L112.48,35.0247851 C112.48,35.0247851 116.915,34.7890264 117.9965,34.2359575 C119.0785,33.683877 119.5015,32.1081989 119.5015,32.1081989 L119.144,19.4152908 Z M26.426,21.1693943 C21.03,21.1693943 16.6555,25.9824287 16.6555,31.9198885 C16.6555,37.8578425 21.03,42.670877 26.426,42.670877 C31.822,42.670877 36.196,37.8578425 36.196,31.9198885 C36.196,25.9824287 31.822,21.1693943 26.426,21.1693943 Z" id="Stroke-3" stroke="#4169E1" stroke-width="2.49272954"></path>
            </g>
        </g>
    </g>
</svg>