<?xml version="1.0" encoding="UTF-8"?>
<svg width="72px" height="62px" viewBox="0 0 72 62" version="1.1" xmlns="http://www.w3.org/2000/svg" xmlns:xlink="http://www.w3.org/1999/xlink">
    <!-- Generator: Sketch 52.5 (67469) - http://www.bohemiancoding.com/sketch -->
    <title>Group 14</title>
    <desc>Created with Sketch.</desc>
    <g id="Hi-Fi-Wires-v2" stroke="none" stroke-width="1" fill="none" fill-rule="evenodd" stroke-linecap="round" stroke-linejoin="round">
        <g id="FAQ-Why-is" transform="translate(-152.000000, -205.000000)" stroke="#4169E1">
            <g id="Group-14" transform="translate(153.000000, 206.000000)">
                <path d="M63.8594744,20.3845075 C64.8466538,21.3597313 65.4600513,22.7110746 65.4600513,24.1980896 L65.4600513,54.3458507 C65.4600513,57.3010746 63.0369744,59.7189851 60.0754359,59.7189851 L9.92447436,59.7189851 C6.9629359,59.7189851 4.53985897,57.3010746 4.53985897,54.3458507 L4.53985897,24.1980896 C4.53985897,22.8624179 5.03479487,21.6368955 5.8505641,20.6943582" id="Stroke-1" stroke-width="2.10089552"></path>
                <polyline id="Stroke-3" stroke-width="2.10089552" points="7.05833333 19.785 35.9414103 0.39380597 69.7348077 24.3458955"></polyline>
                <path d="M0.265102564,24.3457164 L7.05824359,19.7848209" id="Stroke-5" stroke-width="2.10089552"></path>
                <path d="M16.0627115,52.3856418 C19.7157244,49.2190746 24.1490577,46.683403 29.0638654,46.9095224 C37.6312372,47.304 40.8418141,55.7796716 50.0095705,56.8923582 C53.9690577,57.372806 58.9094423,56.4642985 64.9366218,52.3856418" id="Stroke-7" stroke-width="1.89940299"></path>
                <path d="M16.0627115,47.2276567 C19.7157244,44.0615373 24.1490577,41.5254179 29.0638654,41.7519851 C37.6312372,42.1460149 40.8418141,50.6216866 50.0095705,51.7343731 C53.9690577,52.2148209 58.9094423,51.3063134 64.9366218,47.2276567" id="Stroke-9" stroke-width="1.89940299"></path>
                <path d="M15.6244936,42.0698955 C19.2775064,38.9033284 23.7108397,36.3676567 28.6256474,36.5937761 C37.1930192,36.9882537 40.4035962,45.4639254 49.5713526,46.5766119 C53.5308397,47.0570597 58.4712244,46.1485522 64.4984038,42.0698955" id="Stroke-11" stroke-width="1.89940299"></path>
            </g>
        </g>
    </g>
</svg>