<?xml version="1.0" encoding="UTF-8"?>
<svg width="66px" height="74px" viewBox="0 0 66 74" version="1.1" xmlns="http://www.w3.org/2000/svg" xmlns:xlink="http://www.w3.org/1999/xlink">
    <!-- Generator: Sketch 52.5 (67469) - http://www.bohemiancoding.com/sketch -->
    <title>Group 11</title>
    <desc>Created with Sketch.</desc>
    <g id="Hi-Fi-Wires-v2" stroke="none" stroke-width="1" fill="none" fill-rule="evenodd">
        <g id="FAQ-What-can" transform="translate(-155.000000, -543.000000)" stroke="#4169E1" stroke-width="2.04678363">
            <g id="Group-11" transform="translate(157.000000, 545.000000)">
                <path d="M31.099975,70.8349064 C29.8065408,70.6912222 28.5498171,70.5561345 27.2943171,70.4108129 C26.8713303,70.3616901 26.7187776,70.1778889 26.7701724,69.6858421 C27.0826197,66.6881228 27.3420408,63.6846725 27.6263434,60.6836784 C27.9481724,57.2864269 28.2797908,53.8899942 28.6024355,50.4935614 C28.8467645,47.9264854 29.0833434,45.359 29.3235934,42.791924 C29.3623434,42.3764269 29.3480671,41.9457836 29.4610539,41.5515731 C29.5348829,41.2949064 29.7478039,40.9997602 29.9790803,40.8822749 C30.7059487,40.5122164 31.4948171,40.4937953 32.2143434,40.8753158 C32.4762118,41.0140877 32.7421592,41.393152 32.7719355,41.6866608 C33.2846592,46.741807 33.7639355,51.7998187 34.2436197,56.8574211 C34.6535539,61.1798187 35.0471724,65.5034444 35.470975,69.8237953 C35.5154355,70.2798187 35.2580539,70.3641462 34.9606987,70.4005789 C33.6688961,70.5606374 32.3742382,70.6936784 31.099975,70.8349064 Z" id="Stroke-1"></path>
                <path d="M23.4931868,36.2094678 C24.3770947,39.1113977 24.3770947,39.1113977 25.9409632,40.3325088 C22.5244368,45.0781813 6.00062105,53.0270702 0.04495,52.7401111 C0.184857895,52.4899942 0.29295,52.2652573 0.430002632,52.0593509 C1.64022632,50.247538 3.16452895,48.7181813 4.78427895,47.2870702 C9.48037105,43.1390585 14.5945553,39.6316901 20.3915553,37.2001111 C21.2599632,36.8357836 22.1744632,36.5815731 23.0697921,36.2839708 C23.2060289,36.2385322 23.3553184,36.2328012 23.4931868,36.2094678 Z" id="Stroke-3"></path>
                <path d="M59.44405,36 C60.3279579,38.9019298 60.3279579,38.9019298 61.8918263,40.1230409 C58.4753,44.8687135 41.9514842,52.8176023 35.9958132,52.5306433 C36.1357211,52.2805263 36.2438132,52.0557895 36.3808658,51.849883 C37.5910895,50.0380702 39.1153921,48.5087135 40.7351421,47.0776023 C45.4312342,42.9295906 50.5454184,39.4222222 56.3424184,36.9906433 C57.2108263,36.6263158 58.1253263,36.3721053 59.0206553,36.0745029 C59.1568921,36.0290643 59.3061816,36.0233333 59.44405,36 Z" id="Stroke-3" transform="translate(48.943820, 44.269102) scale(-1, 1) translate(-48.943820, -44.269102) "></path>
                <path d="M28.7406303,29.0874966 C26.4535645,22.6024674 27.8893539,5.30223346 31.1370118,0.359251 C31.2858934,0.625332871 31.4311039,0.851297784 31.5449066,1.09322761 C32.5772882,3.28860773 33.1291697,5.62849077 33.5798934,7.99539135 C34.4674724,12.6534615 34.7807355,17.3581984 34.5914724,22.0928183 C34.4976566,24.4425259 34.2321171,26.7758592 33.5382882,29.1083738 C31.9458671,28.2515902 30.3550776,28.2110639 28.7406303,29.0874966 Z" id="Stroke-7"></path>
                <path d="M31.0987921,32.2790292 C32.9339105,32.2720702 34.3790816,33.7113684 34.3786737,35.5452865 C34.3786737,37.3603743 32.8902658,38.8532982 31.0959368,38.8373333 C29.3093579,38.8217778 27.8543974,37.3595556 27.8458316,35.571076 C27.8372658,33.7273333 29.2620421,32.2855789 31.0987921,32.2790292 Z" id="Stroke-9"></path>
            </g>
        </g>
    </g>
</svg>