<?xml version="1.0" encoding="UTF-8"?>
<svg width="61px" height="62px" viewBox="0 0 61 62" version="1.1" xmlns="http://www.w3.org/2000/svg" xmlns:xlink="http://www.w3.org/1999/xlink">
    <!-- Generator: Sketch 52.5 (67469) - http://www.bohemiancoding.com/sketch -->
    <title>Group 24</title>
    <desc>Created with Sketch.</desc>
    <g id="Hi-Fi-Wires-v2" stroke="none" stroke-width="1" fill="none" fill-rule="evenodd">
        <g id="FAQ-When-is" transform="translate(-157.000000, -249.000000)">
            <g id="Group-24" transform="translate(158.000000, 250.000000)">
                <path d="M54.4189147,20.4117722 L4.59114551,20.4117722 C2.09499167,20.4117722 0.0526839744,18.3611392 0.0526839744,15.8548101 L0.0526839744,7.89037975 C0.0526839744,5.38405063 2.09499167,3.33341772 4.59114551,3.33341772 L54.4189147,3.33341772 C56.9154468,3.33341772 58.9573763,5.38405063 58.9573763,7.89037975 L58.9573763,15.8548101 C58.9573763,18.3611392 56.9154468,20.4117722 54.4189147,20.4117722" id="Fill-1" fill="#4169E1"></path>
                <path d="M54.4189147,59.9983291 L4.59114551,59.9983291 C2.09499167,59.9983291 0.0526839744,57.9476962 0.0526839744,55.4413671 L0.0526839744,8.49478481 C0.0526839744,5.9884557 2.09499167,3.93782278 4.59114551,3.93782278 L54.4189147,3.93782278 C56.9154468,3.93782278 58.9573763,5.9884557 58.9573763,8.49478481 L58.9573763,55.4413671 C58.9573763,57.9476962 56.9154468,59.9983291 54.4189147,59.9983291 Z" id="Stroke-3" stroke="#4169E1" stroke-width="1.89873418" stroke-linecap="round"></path>
                <path d="M12.7812532,0.249949367 L12.7812532,11.5326076" id="Stroke-4" stroke="#4169E1" stroke-width="1.89873418" stroke-linecap="round"></path>
                <path d="M29.5050301,0.249949367 L29.5050301,11.5326076" id="Stroke-5" stroke="#4169E1" stroke-width="1.89873418" stroke-linecap="round"></path>
                <path d="M46.2291474,0.249949367 L46.2291474,11.5326076" id="Stroke-6" stroke="#4169E1" stroke-width="1.89873418" stroke-linecap="round"></path>
                <path d="M32.1823821,47.4544557 L26.8281321,47.4544557 C26.4748885,47.4544557 26.1863179,47.1647089 26.1863179,46.8104051 L26.1863179,41.6690127 C26.1863179,41.3147089 26.4748885,41.024962 26.8281321,41.024962 L32.1823821,41.024962 C32.5352474,41.024962 32.8238179,41.3147089 32.8238179,41.6690127 L32.8238179,46.8104051 C32.8238179,47.1647089 32.5352474,47.4544557 32.1823821,47.4544557" id="Fill-7" fill="#4169E1"></path>
                <path d="M43.1163301,47.4544557 L37.7617019,47.4544557 C37.4088365,47.4544557 37.120266,47.1647089 37.120266,46.8104051 L37.120266,41.6690127 C37.120266,41.3147089 37.4088365,41.024962 37.7617019,41.024962 L43.1163301,41.024962 C43.4691955,41.024962 43.7573878,41.3147089 43.7573878,41.6690127 L43.7573878,46.8104051 C43.7573878,47.1647089 43.4691955,47.4544557 43.1163301,47.4544557" id="Fill-8" fill="#4169E1"></path>
                <path d="M10.3148263,47.4544557 L4.96057628,47.4544557 C4.6077109,47.4544557 4.31876218,47.1647089 4.31876218,46.8104051 L4.31876218,41.6690127 C4.31876218,41.3147089 4.6077109,41.024962 4.96057628,41.024962 L10.3148263,41.024962 C10.6676917,41.024962 10.9562622,41.3147089 10.9562622,41.6690127 L10.9562622,46.8104051 C10.9562622,47.1647089 10.6676917,47.4544557 10.3148263,47.4544557" id="Fill-9" fill="#4169E1"></path>
                <path d="M21.2487744,47.4544557 L15.8941462,47.4544557 C15.5412808,47.4544557 15.2527103,47.1647089 15.2527103,46.8104051 L15.2527103,41.6690127 C15.2527103,41.3147089 15.5412808,41.024962 15.8941462,41.024962 L21.2487744,41.024962 C21.6016397,41.024962 21.8898321,41.3147089 21.8898321,41.6690127 L21.8898321,46.8104051 C21.8898321,47.1647089 21.6016397,47.4544557 21.2487744,47.4544557" id="Fill-10" fill="#4169E1"></path>
                <path d="M54.0499378,47.4544557 L48.6953096,47.4544557 C48.3424442,47.4544557 48.0538737,47.1647089 48.0538737,46.8104051 L48.0538737,41.6690127 C48.0538737,41.3147089 48.3424442,41.024962 48.6953096,41.024962 L54.0499378,41.024962 C54.4028032,41.024962 54.6909955,41.3147089 54.6909955,41.6690127 L54.6909955,46.8104051 C54.6909955,47.1647089 54.4028032,47.4544557 54.0499378,47.4544557" id="Fill-11" fill="#4169E1"></path>
                <path d="M32.1823821,38.6431519 L26.8281321,38.6431519 C26.4748885,38.6431519 26.1863179,38.3534051 26.1863179,37.9991013 L26.1863179,32.8577089 C26.1863179,32.5034051 26.4748885,32.2136582 26.8281321,32.2136582 L32.1823821,32.2136582 C32.5352474,32.2136582 32.8238179,32.5034051 32.8238179,32.8577089 L32.8238179,37.9991013 C32.8238179,38.3534051 32.5352474,38.6431519 32.1823821,38.6431519" id="Fill-12" fill="#4169E1"></path>
                <path d="M43.1163301,38.6431519 L37.7617019,38.6431519 C37.4088365,38.6431519 37.120266,38.3534051 37.120266,37.9991013 L37.120266,32.8577089 C37.120266,32.5034051 37.4088365,32.2136582 37.7617019,32.2136582 L43.1163301,32.2136582 C43.4691955,32.2136582 43.7573878,32.5034051 43.7573878,32.8577089 L43.7573878,37.9991013 C43.7573878,38.3534051 43.4691955,38.6431519 43.1163301,38.6431519" id="Fill-13" fill="#4169E1"></path>
                <path d="M10.3148263,38.6431519 L4.96057628,38.6431519 C4.6077109,38.6431519 4.31876218,38.3534051 4.31876218,37.9991013 L4.31876218,32.8577089 C4.31876218,32.5034051 4.6077109,32.2136582 4.96057628,32.2136582 L10.3148263,32.2136582 C10.6676917,32.2136582 10.9562622,32.5034051 10.9562622,32.8577089 L10.9562622,37.9991013 C10.9562622,38.3534051 10.6676917,38.6431519 10.3148263,38.6431519" id="Fill-14" fill="#4169E1"></path>
                <path d="M21.2487744,38.6431519 L15.8941462,38.6431519 C15.5412808,38.6431519 15.2527103,38.3534051 15.2527103,37.9991013 L15.2527103,32.8577089 C15.2527103,32.5034051 15.5412808,32.2136582 15.8941462,32.2136582 L21.2487744,32.2136582 C21.6016397,32.2136582 21.8898321,32.5034051 21.8898321,32.8577089 L21.8898321,37.9991013 C21.8898321,38.3534051 21.6016397,38.6431519 21.2487744,38.6431519" id="Fill-15" fill="#4169E1"></path>
                <path d="M54.0499378,38.6431519 L48.6953096,38.6431519 C48.3424442,38.6431519 48.0538737,38.3534051 48.0538737,37.9991013 L48.0538737,32.8577089 C48.0538737,32.5034051 48.3424442,32.2136582 48.6953096,32.2136582 L54.0499378,32.2136582 C54.4028032,32.2136582 54.6909955,32.5034051 54.6909955,32.8577089 L54.6909955,37.9991013 C54.6909955,38.3534051 54.4028032,38.6431519 54.0499378,38.6431519" id="Fill-16" fill="#4169E1"></path>
                <path d="M32.1823821,29.8318101 L26.8281321,29.8318101 C26.4748885,29.8318101 26.1863179,29.5420633 26.1863179,29.1877595 L26.1863179,24.0463671 C26.1863179,23.6920633 26.4748885,23.4023165 26.8281321,23.4023165 L32.1823821,23.4023165 C32.5352474,23.4023165 32.8238179,23.6920633 32.8238179,24.0463671 L32.8238179,29.1877595 C32.8238179,29.5420633 32.5352474,29.8318101 32.1823821,29.8318101" id="Fill-17" fill="#4169E1"></path>
                <path d="M43.1163301,29.8318101 L37.7617019,29.8318101 C37.4088365,29.8318101 37.120266,29.5420633 37.120266,29.1877595 L37.120266,24.0463671 C37.120266,23.6920633 37.4088365,23.4023165 37.7617019,23.4023165 L43.1163301,23.4023165 C43.4691955,23.4023165 43.7573878,23.6920633 43.7573878,24.0463671 L43.7573878,29.1877595 C43.7573878,29.5420633 43.4691955,29.8318101 43.1163301,29.8318101" id="Fill-18" fill="#4169E1"></path>
                <path d="M21.2487744,29.8318101 L15.8941462,29.8318101 C15.5412808,29.8318101 15.2527103,29.5420633 15.2527103,29.1877595 L15.2527103,24.0463671 C15.2527103,23.6920633 15.5412808,23.4023165 15.8941462,23.4023165 L21.2487744,23.4023165 C21.6016397,23.4023165 21.8898321,23.6920633 21.8898321,24.0463671 L21.8898321,29.1877595 C21.8898321,29.5420633 21.6016397,29.8318101 21.2487744,29.8318101" id="Fill-19" fill="#4169E1"></path>
                <path d="M54.0499378,29.8318101 L48.6953096,29.8318101 C48.3424442,29.8318101 48.0538737,29.5420633 48.0538737,29.1877595 L48.0538737,24.0463671 C48.0538737,23.6920633 48.3424442,23.4023165 48.6953096,23.4023165 L54.0499378,23.4023165 C54.4028032,23.4023165 54.6909955,23.6920633 54.6909955,24.0463671 L54.6909955,29.1877595 C54.6909955,29.5420633 54.4028032,29.8318101 54.0499378,29.8318101" id="Fill-20" fill="#4169E1"></path>
                <path d="M32.1823821,56.2657595 L26.8281321,56.2657595 C26.4748885,56.2657595 26.1863179,55.9760127 26.1863179,55.6217089 L26.1863179,50.4803165 C26.1863179,50.1260127 26.4748885,49.8362658 26.8281321,49.8362658 L32.1823821,49.8362658 C32.5352474,49.8362658 32.8238179,50.1260127 32.8238179,50.4803165 L32.8238179,55.6217089 C32.8238179,55.9760127 32.5352474,56.2657595 32.1823821,56.2657595" id="Fill-21" fill="#4169E1"></path>
                <path d="M10.3148263,56.2657595 L4.96057628,56.2657595 C4.6077109,56.2657595 4.31876218,55.9760127 4.31876218,55.6217089 L4.31876218,50.4803165 C4.31876218,50.1260127 4.6077109,49.8362658 4.96057628,49.8362658 L10.3148263,49.8362658 C10.6676917,49.8362658 10.9562622,50.1260127 10.9562622,50.4803165 L10.9562622,55.6217089 C10.9562622,55.9760127 10.6676917,56.2657595 10.3148263,56.2657595" id="Fill-22" fill="#4169E1"></path>
                <path d="M21.2487744,56.2657595 L15.8941462,56.2657595 C15.5412808,56.2657595 15.2527103,55.9760127 15.2527103,55.6217089 L15.2527103,50.4803165 C15.2527103,50.1260127 15.5412808,49.8362658 15.8941462,49.8362658 L21.2487744,49.8362658 C21.6016397,49.8362658 21.8898321,50.1260127 21.8898321,50.4803165 L21.8898321,55.6217089 C21.8898321,55.9760127 21.6016397,56.2657595 21.2487744,56.2657595" id="Fill-23" fill="#4169E1"></path>
            </g>
        </g>
    </g>
</svg>