<?xml version="1.0" encoding="UTF-8"?>
<svg width="62px" height="50px" viewBox="0 0 62 50" version="1.1" xmlns="http://www.w3.org/2000/svg" xmlns:xlink="http://www.w3.org/1999/xlink">
    <!-- Generator: Sketch 52.5 (67469) - http://www.bohemiancoding.com/sketch -->
    <title>Group 11</title>
    <desc>Created with Sketch.</desc>
    <g id="Hi-Fi-Wires-v2" stroke="none" stroke-width="1" fill="none" fill-rule="evenodd">
        <g id="FAQ-What-is" transform="translate(-158.000000, -168.000000)">
            <g id="CenTexAIR" transform="translate(0.000000, 103.000000)">
                <g id="Group-11" transform="translate(159.000000, 66.000000)">
                    <path d="M25.5535448,11.6651779 L5.97427939,38.6702011" id="Stroke-2" stroke="#4169E1" stroke-width="1.73215718"></path>
                    <path d="M29.437353,11.6651779 L9.85808757,38.6702011" id="Stroke-3" stroke="#4169E1" stroke-width="1.73215718"></path>
                    <path d="M31.7250476,11.6651779 L51.3043131,38.6702011" id="Stroke-4" stroke="#4169E1" stroke-width="1.73215718"></path>
                    <path d="M20.6177283,37.449446 C20.6177283,43.1167179 16.023701,47.7107451 10.3564292,47.7107451 C4.68950377,47.7107451 0.0954765036,43.1167179 0.0954765036,37.449446 C0.0954765036,31.7825206 4.68950377,27.1884933 10.3564292,27.1884933 C16.023701,27.1884933 20.6177283,31.7825206 20.6177283,37.449446" id="Fill-5" fill="#FFFFFF"></path>
                    <path d="M20.6177283,37.449446 C20.6177283,43.1167179 16.023701,47.7107451 10.3564292,47.7107451 C4.68950377,47.7107451 0.0954765036,43.1167179 0.0954765036,37.449446 C0.0954765036,31.7825206 4.68950377,27.1884933 10.3564292,27.1884933 C16.023701,27.1884933 20.6177283,31.7825206 20.6177283,37.449446 Z" id="Stroke-6" stroke="#4169E1" stroke-width="1.73215718"></path>
                    <path d="M59.4907997,37.449446 C59.4907997,43.1167179 54.8967724,47.7107451 49.2295006,47.7107451 C43.5622287,47.7107451 38.9685479,43.1167179 38.9685479,37.449446 C38.9685479,31.7825206 43.5622287,27.1884933 49.2295006,27.1884933 C54.8967724,27.1884933 59.4907997,31.7825206 59.4907997,37.449446" id="Fill-7" fill="#FFFFFF"></path>
                    <path d="M59.4907997,37.449446 C59.4907997,43.1167179 54.8967724,47.7107451 49.2295006,47.7107451 C43.5622287,47.7107451 38.9685479,43.1167179 38.9685479,37.449446 C38.9685479,31.7825206 43.5622287,27.1884933 49.2295006,27.1884933 C54.8967724,27.1884933 59.4907997,31.7825206 59.4907997,37.449446 Z" id="Stroke-8" stroke="#4169E1" stroke-width="1.73215718"></path>
                    <text id="O" font-family="Ubuntu-Regular, Ubuntu" font-size="10.441686" font-weight="normal" fill="#4169E1">
                        <tspan x="6.38715638" y="39.3699752">O</tspan>
                    </text>
                    <path d="M40.1972016,10.4445267 C40.1972016,16.1117986 35.6031743,20.7058258 29.9359025,20.7058258 C24.2689771,20.7058258 19.6749498,16.1117986 19.6749498,10.4445267 C19.6749498,4.77760128 24.2689771,0.183227586 29.9359025,0.183227586 C35.6031743,0.183227586 40.1972016,4.77760128 40.1972016,10.4445267" id="Fill-9" fill="#FFFFFF"></path>
                    <path d="M40.1972016,10.4445267 C40.1972016,16.1117986 35.6031743,20.7058258 29.9359025,20.7058258 C24.2689771,20.7058258 19.6749498,16.1117986 19.6749498,10.4445267 C19.6749498,4.77760128 24.2689771,0.183227586 29.9359025,0.183227586 C35.6031743,0.183227586 40.1972016,4.77760128 40.1972016,10.4445267 Z" id="Stroke-10" stroke="#4169E1" stroke-width="1.73215718"></path>
                    <text id="O" font-family="Ubuntu-Regular, Ubuntu" font-size="10.441686" font-weight="normal" fill="#4169E1">
                        <tspan x="25.8422954" y="12.5218854">O</tspan>
                    </text>
                    <text id="O" font-family="Ubuntu-Regular, Ubuntu" font-size="10.441686" font-weight="normal" fill="#4169E1">
                        <tspan x="45.1383532" y="39.3674463">O</tspan>
                    </text>
                </g>
            </g>
        </g>
    </g>
</svg>