<?xml version="1.0" encoding="UTF-8"?>
<svg width="72px" height="62px" viewBox="0 0 72 62" version="1.1" xmlns="http://www.w3.org/2000/svg" xmlns:xlink="http://www.w3.org/1999/xlink">
    <!-- Generator: Sketch 52.5 (67469) - http://www.bohemiancoding.com/sketch -->
    <title>Group 10</title>
    <desc>Created with Sketch.</desc>
    <g id="Hi-Fi-Wires-v2" stroke="none" stroke-width="1" fill="none" fill-rule="evenodd">
        <g id="FAQ-How-can" transform="translate(-152.000000, -503.000000)">
            <g id="Group-10" transform="translate(153.000000, 504.000000)">
                <path d="M18.5508077,39.7563134 C19.5056795,39.7563134 20.2801667,39.0121343 20.2801667,38.0928806 C20.2801667,37.1745224 19.5056795,36.4285522 18.5508077,36.4285522 C17.594141,36.4285522 16.8201026,37.1745224 16.8201026,38.0928806 C16.8201026,39.0121343 17.594141,39.7563134 18.5508077,39.7563134" id="Stroke-2" stroke="#4169E1" stroke-width="0.895522388"></path>
                <path d="M24.5673077,46.4998209 C24.4730769,46.9117612 24.3833333,47.3286269 24.2532051,47.7181791 L23.8403846,47.6062388 C23.5352564,47.5166866 23.2525641,47.2610149 23.1762821,47.0013134 L21.924359,42.6356418 L21.2692308,42.6356418 L21.2692308,48.4699701 L19.2365385,48.4699701 L19.2365385,48.3266866 L18.4826923,48.3266866 L18.4826923,48.4699701 L16.45,48.4699701 L16.45,42.7050448 C16.3844872,42.6871343 16.3032692,42.6701194 16.2094872,42.6629552 C16.1080769,42.6544478 16.0192308,42.6593731 15.9483333,42.6678806 C15.3946154,44.2332537 14.8408974,45.7990746 14.2871795,47.3644478 C14.1346154,47.7898209 13.65,48.0181791 13.2057692,47.8744478 C12.7615385,47.7266866 12.5237179,47.2610149 12.6762821,46.8356418 L14.5429487,41.5475821 C14.5869231,41.4123582 14.7866026,40.8499701 15.3874359,40.503403 C15.9451923,40.1823582 16.4876923,40.2553433 16.6384615,40.2804179 L21.0807692,40.2804179 C21.0807692,40.2804179 22.6916667,40.222209 23.2480769,42.0759403 L24.5673077,46.4998209 Z" id="Fill-3" fill="#FFFFFF"></path>
                <path d="M24.5673077,46.4998209 C24.4730769,46.9117612 24.3833333,47.3286269 24.2532051,47.7181791 L23.8403846,47.6062388 C23.5352564,47.5166866 23.2525641,47.2610149 23.1762821,47.0013134 L21.924359,42.6356418 L21.2692308,42.6356418 L21.2692308,48.4699701 L19.2365385,48.4699701 L19.2365385,48.3266866 L18.4826923,48.3266866 L18.4826923,48.4699701 L16.45,48.4699701 L16.45,42.7050448 C16.3844872,42.6871343 16.3032692,42.6701194 16.2094872,42.6629552 C16.1080769,42.6544478 16.0192308,42.6593731 15.9483333,42.6678806 C15.3946154,44.2332537 14.8408974,45.7990746 14.2871795,47.3644478 C14.1346154,47.7898209 13.65,48.0181791 13.2057692,47.8744478 C12.7615385,47.7266866 12.5237179,47.2610149 12.6762821,46.8356418 L14.5429487,41.5475821 C14.5869231,41.4123582 14.7866026,40.8499701 15.3874359,40.503403 C15.9451923,40.1823582 16.4876923,40.2553433 16.6384615,40.2804179 L21.0807692,40.2804179 C21.0807692,40.2804179 22.6916667,40.222209 23.2480769,42.0759403 L24.5673077,46.4998209 Z" id="Stroke-4" stroke="#4169E1" stroke-width="0.895522388"></path>
                <path d="M63.8594744,20.3530299 C64.8462051,21.3282537 65.4596026,22.6791493 65.4596026,24.1661642 L65.4596026,54.3143731 C65.4596026,57.2691493 63.0369744,59.6875075 60.0749872,59.6875075 L9.92492308,59.6875075 C6.9629359,59.6875075 4.54030769,57.2691493 4.54030769,54.3143731 L4.54030769,24.1661642 C4.54030769,22.8309403 5.03479487,21.6054179 5.8505641,20.6624328" id="Stroke-5" stroke="#4169E1" stroke-width="2.10089552" stroke-linecap="round" stroke-linejoin="round"></path>
                <polyline id="Stroke-6" stroke="#4169E1" stroke-width="2.10089552" stroke-linecap="round" stroke-linejoin="round" points="7.05855769 19.7530746 35.9411859 0.361880597 69.7350321 24.3144179"></polyline>
                <path d="M0.265102564,24.3142388 L7.05869231,19.7528955" id="Stroke-7" stroke="#4169E1" stroke-width="2.10089552" stroke-linecap="round" stroke-linejoin="round"></path>
                <path d="M24.1019423,48.0276269 L13.52925,48.0276269 C11.8833526,48.0276269 10.53675,46.6838955 10.53675,45.0415075 L10.53675,34.4913582 C10.53675,32.8494179 11.8833526,31.5056866 13.52925,31.5056866 L24.1019423,31.5056866 C25.747391,31.5056866 27.0939936,32.8494179 27.0939936,34.4913582 L27.0939936,45.0415075 C27.0939936,46.6838955 25.747391,48.0276269 24.1019423,48.0276269 Z" id="Stroke-8" stroke="#4169E1" stroke-width="2.10089552" stroke-linecap="round" stroke-linejoin="round"></path>
                <path d="M56.8412564,59.551791 L56.8412564,34.329403 C56.8412564,33.2726866 55.9747821,32.4080597 54.9162564,32.4080597 L43.1643333,32.4080597 C42.105359,32.4080597 41.2388846,33.2726866 41.2388846,34.329403 L41.2388846,59.551791 L56.8412564,59.551791 Z" id="Stroke-9" stroke="#4169E1" stroke-width="2.10089552" stroke-linecap="round" stroke-linejoin="round"></path>
            </g>
        </g>
    </g>
</svg>