<?xml version="1.0" encoding="UTF-8"?>
<svg width="68px" height="60px" viewBox="0 0 68 60" version="1.1" xmlns="http://www.w3.org/2000/svg" xmlns:xlink="http://www.w3.org/1999/xlink">
    <!-- Generator: Sketch 52.5 (67469) - http://www.bohemiancoding.com/sketch -->
    <title>Group 10</title>
    <desc>Created with Sketch.</desc>
    <g id="Hi-Fi-Wires-v2" stroke="none" stroke-width="1" fill="none" fill-rule="evenodd">
        <g id="FAQ-How-does" transform="translate(-154.000000, -292.000000)">
            <g id="Group-10" transform="translate(154.000000, 292.000000)">
                <path d="M58.3835976,2.79368276 C53.8433537,0.509131034 48.2180122,0.610510345 43.6794268,2.89506207 C39.6981098,4.90071724 36.7127439,8.32651034 33.999378,11.9070621 C31.2855976,8.32651034 28.2998171,4.90071724 24.3209878,2.89506207 C19.7803293,0.610510345 14.1545732,0.509131034 9.61681707,2.79368276 C5.07657317,5.07864828 1.78313415,9.74913103 1.33864634,14.8027862 C0.906597561,19.7016828 3.02828049,24.5223724 5.96306098,28.4728552 C8.47864634,31.8580966 26.1171829,51.7230621 32.1542561,57.2352 C33.0614756,58.0644414 33.7091341,58.5717517 33.999378,58.6429241 C34.2912805,58.5717517 34.9364512,58.0644414 35.8465732,57.2352 C41.8807439,51.7230621 59.5192805,31.8580966 62.0377683,28.4728552 C64.9721341,24.5223724 67.0913293,19.7016828 66.6617683,14.8027862 C66.2172805,9.74913103 62.9242561,5.07864828 58.3835976,2.79368276 Z" id="Fill-1" fill="#FFFFFF"></path>
                <path d="M53.2421341,0.222372414 C44.4253537,-0.815006897 38.0831098,4.86554483 33.1037683,11.3848552 L34.8941585,11.3848552 C30.668622,5.85244138 25.6590122,0.830234483 18.3523293,0.166924138 C11.7314512,-0.434317241 5.2299878,2.90623448 2.0995,8.79657931 C-1.22918293,15.0601655 0.450085366,22.1964414 4.25310976,27.8434759 C6.25371951,30.813269 8.75893902,33.4752 11.1132317,36.1619586 C17.5122805,43.4658207 23.9200366,50.9786483 31.0330854,57.6080276 C31.7159878,58.2440276 32.5576951,59.2540966 33.4756951,59.5358897 C34.4558902,59.8367172 35.1060366,59.2263724 35.8432561,58.6127172 C37.3591585,57.3494069 38.7365732,55.9044414 40.1123293,54.4938207 C43.7142561,50.8015448 47.1980122,46.9925793 50.6539878,43.1641655 C54.1572317,39.2840276 57.6459634,35.3827862 61.0074024,31.3793379 C64.9617683,26.6703724 68.0997195,21.1495448 67.6983537,14.8027862 C67.6150122,13.4803034 65.5410122,13.4712 65.6251829,14.8027862 C66.2388415,24.5153379 57.8105732,32.0529931 51.8622317,38.721269 C48.6015488,42.3763034 45.3076951,46.0032 41.952061,49.5713379 C40.5112073,51.1044414 39.0591585,52.6280276 37.5751829,54.1197517 C36.3988659,55.3019586 35.0032073,57.0874759 33.4756951,57.7495448 L34.5222317,57.7495448 C32.8151829,57.0063724 31.2010122,54.9100966 29.8994756,53.5884414 C28.0958171,51.7569931 26.332378,49.8866483 24.5822073,48.005131 C20.7145,43.8481655 16.9127195,39.6295448 13.1640122,35.3649931 C10.5791829,32.4254069 7.76837805,29.517269 5.65540244,26.2069241 C3.35128049,22.5969931 1.74208537,18.2025103 2.49879268,13.8734069 C3.15059756,10.1459586 5.41947561,6.71809655 8.5619878,4.6089931 C12.5213293,1.95202759 17.6706707,1.50182069 22.1325488,3.08044138 C26.7996707,4.73147586 30.188061,8.6112 33.1037683,12.429269 C33.6058902,13.0867862 34.3920366,13.0867862 34.8941585,12.429269 C39.171939,6.82775172 44.4950122,1.78733793 52.0695488,2.19078621 C58.993939,2.55906207 64.8585244,7.8792 65.6251829,14.8027862 C65.7703049,16.1120276 67.8451341,16.1265103 67.6983537,14.8027862 C66.8541585,7.17864828 60.9049878,1.12361379 53.2421341,0.222372414 Z" id="Fill-3" fill="#4169E1"></path>
                <path d="M49.0130008,25.8509379 C49.0001733,25.8662483 48.9898284,25.8840414 48.9774146,25.8989379 L49.0179664,25.7189379 C49.0154836,25.736731 49.0154836,25.7801793 49.0130008,25.8509379" id="Fill-4" fill="#4169E1"></path>
                <path d="M52.2498737,25.8990621 C52.2374599,25.8816828 52.2246323,25.8659586 52.2142875,25.8485793 C52.2118047,25.7749241 52.2118047,25.7318897 52.209322,25.7165793 L52.2498737,25.8990621 Z" id="Fill-5" fill="#4169E1"></path>
                <path d="M48.9774561,25.8990621 L49.0180078,25.7190621 C49.0155251,25.7368552 49.0155251,25.7798897 49.0130423,25.8510621 C49.0002147,25.8659586 48.9898699,25.8837517 48.9774561,25.8990621" id="Fill-6" fill="#4169E1"></path>
                <path d="M52.2143289,25.8485379 C52.2118462,25.7748828 52.2118462,25.7318483 52.2093634,25.7165379 L52.2499151,25.8990207 C52.2375013,25.8816414 52.2246738,25.8659172 52.2143289,25.8485379" id="Fill-7" fill="#4169E1"></path>
                <polyline id="Path-4" stroke="#4169E1" stroke-width="2" stroke-linejoin="round" fill-rule="nonzero" points="8.01750634 31.0124985 19.9753703 31.0030235 25 19 30.0830196 31.0030235 35.0067567 43.024997 40.0786289 31.0030235 43.0224017 24.0737288 45.9703437 31.0030235 60.0015425 31.0030235"></polyline>
                <polyline id="Path-3" stroke="#4169E1" stroke-width="1.5" fill-rule="nonzero" points="32.5 9.99671169 34.015534 11.2265804 35.5310679 9.99671169"></polyline>
                <polyline id="Path-5" stroke="#4169E1" stroke-width="2.05" stroke-linecap="round" fill-rule="nonzero" points="66.350679 13.0080963 66.5589813 14 66.6716356 15.0009577 66.6716356 16.0155564"></polyline>
            </g>
        </g>
    </g>
</svg>